{"glyphs":{"0":{"ha":867,"x_min":0,"x_max":0,"o":"m 433 -17 b 831 463 704 -17 831 218 b 433 940 831 707 704 940 b 36 463 163 940 36 707 b 433 -17 36 218 163 -17 z m 433 194 b 278 463 322 194 278 299 b 433 729 278 626 322 729 b 589 463 544 729 589 626 b 433 194 589 299 544 194 z "},"1":{"ha":621,"x_min":0,"x_max":0,"o":"m 538 0 l 538 926 l 331 926 l 7 607 l 143 464 l 299 621 l 299 0 z "},"2":{"ha":843,"x_min":0,"x_max":0,"o":"m 788 0 l 788 208 l 449 208 b 781 632 679 369 781 490 b 406 940 781 818 624 940 b 31 786 276 940 129 894 l 163 628 b 410 729 229 690 307 729 b 538 632 478 729 538 696 b 61 186 538 540 463 476 l 61 0 z "},"3":{"ha":836,"x_min":0,"x_max":0,"o":"m 406 -17 b 789 258 636 -17 789 96 b 571 478 789 392 669 468 b 774 686 681 496 774 578 b 406 940 774 839 642 940 b 35 790 235 940 113 878 l 150 640 b 381 729 215 699 296 729 b 536 644 469 729 536 703 b 386 572 536 596 482 572 b 261 574 351 572 279 572 l 261 361 b 386 363 275 363 346 363 b 551 285 513 363 551 338 b 396 194 551 233 499 194 b 143 292 315 194 210 226 l 22 129 b 406 -17 94 46 228 -17 z "},"4":{"ha":856,"x_min":0,"x_max":0,"o":"m 714 0 l 714 169 l 826 169 l 826 379 l 714 379 l 714 926 l 382 926 l 31 356 l 31 169 l 474 169 l 474 0 z m 474 379 l 263 379 l 474 718 z "},"5":{"ha":857,"x_min":0,"x_max":0,"o":"m 429 -17 b 821 311 669 -17 821 111 b 522 613 821 497 679 613 b 324 539 440 613 368 582 l 324 718 l 757 718 l 757 926 l 85 926 l 85 379 l 250 339 b 433 408 301 388 360 408 b 578 301 529 408 578 364 b 426 194 578 244 528 194 b 186 285 338 194 250 226 l 56 118 b 429 -17 142 33 265 -17 z "},"6":{"ha":857,"x_min":0,"x_max":0,"o":"m 457 -17 b 826 308 672 -17 826 118 b 506 613 826 506 672 613 b 278 507 411 613 324 568 b 278 518 278 510 278 513 b 494 729 278 647 382 729 b 672 668 571 729 621 710 l 776 851 b 494 940 707 906 604 940 b 36 461 214 940 36 757 b 457 -17 36 196 164 -17 z m 442 194 b 278 347 329 194 285 272 b 433 410 318 389 375 410 b 585 300 506 410 585 378 b 442 194 585 249 531 194 z "},"7":{"ha":778,"x_min":0,"x_max":0,"o":"m 429 0 l 756 761 l 756 926 l 29 926 l 29 718 l 481 718 l 167 0 z "},"8":{"ha":858,"x_min":0,"x_max":0,"o":"m 429 -17 b 821 244 629 -17 821 64 b 633 478 821 350 740 436 b 807 693 732 515 807 582 b 429 940 807 872 610 940 b 51 693 247 940 51 872 b 224 478 51 582 125 515 b 36 244 117 436 36 350 b 429 -17 36 63 229 -17 z m 429 571 b 294 658 372 579 294 608 b 429 742 294 710 347 742 b 563 658 508 742 563 710 b 429 571 563 608 486 579 z m 429 182 b 279 272 340 182 279 218 b 429 369 279 329 369 363 b 579 272 488 363 579 329 b 429 182 579 218 515 182 z "},"9":{"ha":857,"x_min":0,"x_max":0,"o":"m 361 -15 b 819 464 642 -15 819 169 b 399 942 819 731 692 942 b 29 617 183 942 29 807 b 351 311 29 419 185 311 b 578 418 444 311 532 357 b 578 407 578 414 578 411 b 361 196 578 294 496 196 b 183 257 286 196 235 215 l 81 74 b 361 -15 150 18 253 -15 z m 422 515 b 272 625 351 515 272 547 b 413 731 272 676 325 731 b 578 578 526 731 572 653 b 422 515 538 535 481 515 z "},"\u0000":{"ha":0,"x_min":0,"x_max":0,"o":""},"\r":{"ha":0,"x_min":0,"x_max":0,"o":""}," ":{"ha":356,"x_min":0,"x_max":0,"o":""}," ":{"ha":356,"x_min":0,"x_max":0,"o":""}," ":{"ha":71,"x_min":0,"x_max":0,"o":""},"":{"ha":882,"x_min":0,"x_max":0,"o":"m 442 -17 b 839 463 713 -17 839 218 b 442 940 839 707 713 940 b 44 463 171 940 44 707 b 442 -17 44 218 171 -17 z m 442 194 b 286 463 331 194 286 299 b 442 729 286 626 331 729 b 597 463 553 729 597 626 b 442 194 597 299 553 194 z "},"":{"ha":882,"x_min":0,"x_max":0,"o":"m 442 -17 b 839 463 713 -17 839 218 b 742 792 839 583 807 703 l 832 926 l 671 926 l 643 885 b 442 940 589 919 521 940 b 44 463 171 940 44 707 b 139 133 44 342 75 222 l 50 0 l 211 0 l 238 39 b 442 -17 293 4 361 -17 z m 442 194 b 360 221 408 194 381 203 l 590 565 b 597 463 594 535 597 500 b 442 194 597 299 553 194 z m 286 463 b 442 729 286 626 331 729 b 522 704 474 729 500 721 l 293 363 b 286 463 288 392 286 426 z "},"":{"ha":882,"x_min":0,"x_max":0,"o":"m 665 0 l 665 926 l 458 926 l 135 607 l 271 464 l 426 621 l 426 0 z "},"":{"ha":882,"x_min":0,"x_max":0,"o":"m 819 0 l 819 208 l 481 208 b 813 632 711 369 813 490 b 438 940 813 818 656 940 b 63 786 308 940 161 894 l 194 628 b 442 729 261 690 339 729 b 569 632 510 729 569 696 b 93 186 569 540 494 476 l 93 0 z "},"":{"ha":882,"x_min":0,"x_max":0,"o":"m 436 -17 b 819 258 667 -17 819 96 b 601 478 819 392 700 468 b 804 686 711 496 804 578 b 436 940 804 839 672 940 b 65 790 265 940 143 878 l 181 640 b 411 729 246 699 326 729 b 567 644 500 729 567 703 b 417 572 567 596 513 572 b 292 574 382 572 310 572 l 292 361 b 417 363 306 363 376 363 b 582 285 543 363 582 338 b 426 194 582 233 529 194 b 174 292 346 194 240 226 l 53 129 b 436 -17 125 46 258 -17 z "},"":{"ha":882,"x_min":0,"x_max":0,"o":"m 722 0 l 722 169 l 835 169 l 835 379 l 722 379 l 722 926 l 390 926 l 39 356 l 39 169 l 482 169 l 482 0 z m 482 379 l 271 379 l 482 718 z "},"":{"ha":882,"x_min":0,"x_max":0,"o":"m 438 -17 b 829 311 678 -17 829 111 b 531 613 829 497 688 613 b 332 539 449 613 376 582 l 332 718 l 765 718 l 765 926 l 93 926 l 93 379 l 258 339 b 442 408 310 388 368 408 b 586 301 538 408 586 364 b 435 194 586 244 536 194 b 194 285 346 194 258 226 l 64 118 b 438 -17 150 33 274 -17 z "},"":{"ha":882,"x_min":0,"x_max":0,"o":"m 474 -17 b 843 308 689 -17 843 118 b 522 613 843 506 689 613 b 294 507 428 613 340 568 b 294 518 294 510 294 513 b 511 729 294 647 399 729 b 689 668 588 729 638 710 l 793 851 b 511 940 724 906 621 940 b 53 461 231 940 53 757 b 474 -17 53 196 181 -17 z m 458 194 b 294 347 346 194 301 272 b 450 410 335 389 392 410 b 601 300 522 410 601 378 b 458 194 601 249 547 194 z "},"":{"ha":882,"x_min":0,"x_max":0,"o":"m 479 0 l 806 761 l 806 926 l 79 926 l 79 718 l 531 718 l 217 0 z "},"":{"ha":882,"x_min":0,"x_max":0,"o":"m 442 -17 b 833 244 642 -17 833 64 b 646 478 833 350 753 436 b 819 693 744 515 819 582 b 442 940 819 872 622 940 b 64 693 260 940 64 872 b 236 478 64 582 138 515 b 49 244 129 436 49 350 b 442 -17 49 63 242 -17 z m 442 571 b 307 658 385 579 307 608 b 442 742 307 710 360 742 b 575 658 521 742 575 710 b 442 571 575 608 499 579 z m 442 182 b 292 272 353 182 292 218 b 442 369 292 329 382 363 b 592 272 500 363 592 329 b 442 182 592 218 528 182 z "},"":{"ha":882,"x_min":0,"x_max":0,"o":"m 376 -15 b 835 464 657 -15 835 169 b 414 942 835 731 707 942 b 44 617 199 942 44 807 b 367 311 44 419 200 311 b 593 418 460 311 547 357 b 593 407 593 414 593 411 b 376 196 593 294 511 196 b 199 257 301 196 250 215 l 96 74 b 376 -15 165 18 268 -15 z m 438 515 b 288 625 367 515 288 547 b 428 731 288 676 340 731 b 593 578 542 731 588 653 b 438 515 553 535 496 515 z "},"":{"ha":882,"x_min":0,"x_max":0,"o":"m 839 382 b 442 781 839 597 711 781 b 44 382 172 781 44 597 b 442 -17 44 169 172 -17 b 839 382 711 -17 839 169 z m 597 382 b 442 194 597 272 542 194 b 286 382 342 194 286 272 b 442 569 286 490 342 569 b 597 382 542 569 597 490 z "},"":{"ha":882,"x_min":0,"x_max":0,"o":"m 665 0 l 665 764 l 458 764 l 135 444 l 271 301 l 426 458 l 426 0 z "},"":{"ha":882,"x_min":0,"x_max":0,"o":"m 774 0 l 774 208 l 522 208 b 789 525 656 260 789 392 b 436 781 789 681 658 781 b 60 626 307 781 158 735 l 192 468 b 432 569 264 538 342 569 b 547 483 497 569 547 536 b 96 188 547 411 451 294 l 96 0 z "},"":{"ha":882,"x_min":0,"x_max":0,"o":"m 436 -176 b 819 99 667 -176 819 -64 b 601 318 819 232 700 308 b 804 526 711 336 804 418 b 436 781 804 679 672 781 b 65 631 265 781 143 718 l 181 481 b 411 569 246 539 326 569 b 567 485 500 569 567 543 b 417 413 567 436 513 413 b 292 414 382 413 310 413 l 292 201 b 417 203 306 203 376 203 b 582 125 543 203 582 178 b 426 35 582 74 529 35 b 174 132 346 35 240 67 l 53 -31 b 436 -176 125 -114 258 -176 z "},"":{"ha":882,"x_min":0,"x_max":0,"o":"m 835 19 l 835 228 l 722 228 l 722 764 l 390 764 l 39 204 l 39 19 l 482 19 l 482 -162 l 722 -162 l 722 19 z m 482 228 l 271 228 l 482 556 z "},"":{"ha":882,"x_min":0,"x_max":0,"o":"m 438 -179 b 829 149 678 -179 829 -51 b 531 450 829 335 688 450 b 332 376 449 450 376 419 l 332 556 l 765 556 l 765 764 l 93 764 l 93 217 l 258 176 b 442 246 310 225 368 246 b 586 139 538 246 586 201 b 435 32 586 82 536 32 b 194 122 346 32 258 64 l 64 -44 b 438 -179 150 -129 274 -179 z "},"":{"ha":882,"x_min":0,"x_max":0,"o":"m 474 -17 b 843 308 689 -17 843 118 b 522 613 843 506 689 613 b 294 507 428 613 340 568 b 294 518 294 510 294 513 b 511 729 294 647 399 729 b 689 668 588 729 638 710 l 793 851 b 511 940 724 906 621 940 b 53 461 231 940 53 757 b 474 -17 53 196 181 -17 z m 458 194 b 294 347 346 194 301 272 b 450 410 335 389 392 410 b 601 300 522 410 601 378 b 458 194 601 249 547 194 z "},"":{"ha":882,"x_min":0,"x_max":0,"o":"m 479 -162 l 806 599 l 806 764 l 79 764 l 79 556 l 531 556 l 217 -162 z "},"":{"ha":882,"x_min":0,"x_max":0,"o":"m 442 -17 b 833 244 642 -17 833 64 b 646 478 833 350 753 436 b 819 693 744 515 819 582 b 442 940 819 872 622 940 b 64 693 260 940 64 872 b 236 478 64 582 138 515 b 49 244 129 436 49 350 b 442 -17 49 63 242 -17 z m 442 571 b 307 658 385 579 307 608 b 442 742 307 710 360 742 b 575 658 521 742 575 710 b 442 571 575 608 499 579 z m 442 182 b 292 272 353 182 292 218 b 442 369 292 329 382 363 b 592 272 500 363 592 329 b 442 182 592 218 528 182 z "},"":{"ha":882,"x_min":0,"x_max":0,"o":"m 376 -176 b 835 303 657 -176 835 8 b 414 781 835 569 707 781 b 44 456 199 781 44 646 b 367 150 44 258 200 150 b 593 257 460 150 547 196 b 593 246 593 253 593 250 b 376 35 593 133 511 35 b 199 96 301 35 250 54 l 96 -87 b 376 -176 165 -143 268 -176 z m 438 354 b 288 464 367 354 288 386 b 428 569 288 515 340 569 b 593 417 542 569 588 492 b 438 354 553 374 496 354 z "},"":{"ha":867,"x_min":0,"x_max":0,"o":"m 831 382 b 433 781 831 597 703 781 b 36 382 164 781 36 597 b 433 -17 36 169 164 -17 b 831 382 703 -17 831 169 z m 589 382 b 433 194 589 272 533 194 b 278 382 333 194 278 272 b 433 569 278 490 333 569 b 589 382 533 569 589 490 z "},"":{"ha":621,"x_min":0,"x_max":0,"o":"m 538 0 l 538 764 l 331 764 l 7 444 l 143 301 l 299 458 l 299 0 z "},"":{"ha":813,"x_min":0,"x_max":0,"o":"m 742 0 l 742 208 l 490 208 b 757 525 624 260 757 392 b 404 781 757 681 626 781 b 28 626 275 781 126 735 l 160 468 b 400 569 232 538 310 569 b 515 483 465 569 515 536 b 64 188 515 411 419 294 l 64 0 z "},"":{"ha":822,"x_min":0,"x_max":0,"o":"m 392 -178 b 775 97 622 -178 775 -65 b 557 317 775 231 656 307 b 760 525 667 335 760 417 b 392 779 760 678 628 779 b 21 629 221 779 99 717 l 136 479 b 367 568 201 538 282 568 b 522 483 456 568 522 542 b 372 411 522 435 468 411 b 247 413 338 411 265 411 l 247 200 b 372 201 261 201 332 201 b 538 124 499 201 538 176 b 382 33 538 72 485 33 b 129 131 301 33 196 65 l 8 -32 b 392 -178 81 -115 214 -178 z "},"":{"ha":856,"x_min":0,"x_max":0,"o":"m 826 19 l 826 228 l 714 228 l 714 764 l 382 764 l 31 204 l 31 19 l 474 19 l 474 -162 l 714 -162 l 714 19 z m 474 228 l 263 228 l 474 556 z "},"":{"ha":857,"x_min":0,"x_max":0,"o":"m 429 -179 b 821 149 669 -179 821 -51 b 522 450 821 335 679 450 b 324 376 440 450 368 419 l 324 556 l 757 556 l 757 764 l 85 764 l 85 217 l 250 176 b 433 246 301 225 360 246 b 578 139 529 246 578 201 b 426 32 578 82 528 32 b 186 122 338 32 250 64 l 56 -44 b 429 -179 142 -129 265 -179 z "},"":{"ha":857,"x_min":0,"x_max":0,"o":"m 457 -17 b 826 308 672 -17 826 118 b 506 613 826 506 672 613 b 278 507 411 613 324 568 b 278 518 278 510 278 513 b 494 729 278 647 382 729 b 672 668 571 729 621 710 l 776 851 b 494 940 707 906 604 940 b 36 461 214 940 36 757 b 457 -17 36 196 164 -17 z m 442 194 b 278 347 329 194 285 272 b 433 410 318 389 375 410 b 585 300 506 410 585 378 b 442 194 585 249 531 194 z "},"":{"ha":778,"x_min":0,"x_max":0,"o":"m 429 -162 l 756 599 l 756 764 l 29 764 l 29 556 l 481 556 l 167 -162 z "},"":{"ha":858,"x_min":0,"x_max":0,"o":"m 429 -17 b 821 244 629 -17 821 64 b 633 478 821 350 740 436 b 807 693 732 515 807 582 b 429 940 807 872 610 940 b 51 693 247 940 51 872 b 224 478 51 582 125 515 b 36 244 117 436 36 350 b 429 -17 36 63 229 -17 z m 429 571 b 294 658 372 579 294 608 b 429 742 294 710 347 742 b 563 658 508 742 563 710 b 429 571 563 608 486 579 z m 429 182 b 279 272 340 182 279 218 b 429 369 279 329 369 363 b 579 272 488 363 579 329 b 429 182 579 218 515 182 z "},"":{"ha":857,"x_min":0,"x_max":0,"o":"m 361 -178 b 819 301 642 -178 819 7 b 399 779 819 568 692 779 b 29 454 183 779 29 644 b 351 149 29 257 185 149 b 578 256 444 149 532 194 b 578 244 578 251 578 249 b 361 33 578 132 496 33 b 183 94 286 33 235 53 l 81 -89 b 361 -178 150 -144 253 -178 z m 422 353 b 272 463 351 353 272 385 b 413 568 272 514 325 568 b 578 415 526 568 572 490 b 422 353 538 372 481 353 z "},"A":{"ha":968,"x_min":0,"x_max":0,"o":"m 983 0 l 633 926 l 333 926 l -15 0 l 256 0 l 301 133 l 667 133 l 713 0 z m 601 342 l 365 342 l 483 690 z "},"B":{"ha":944,"x_min":0,"x_max":0,"o":"m 625 0 b 897 251 807 0 897 117 b 721 478 897 368 819 463 b 879 690 808 497 879 575 b 608 926 879 807 792 926 l 83 926 l 83 0 z m 554 571 l 322 571 l 322 725 l 554 725 b 636 649 603 725 636 693 b 554 571 636 603 603 571 z m 563 201 l 322 201 l 322 368 l 563 368 b 654 285 621 368 654 331 b 563 201 654 235 619 201 z "},"C":{"ha":961,"x_min":0,"x_max":0,"o":"m 538 -17 b 942 232 761 -17 882 113 l 736 329 b 538 194 706 256 626 194 b 279 463 386 194 279 311 b 538 731 279 614 386 731 b 736 596 626 731 706 669 l 942 693 b 538 942 881 815 761 942 b 36 463 253 942 36 749 b 538 -17 36 178 253 -17 z "},"D":{"ha":1010,"x_min":0,"x_max":0,"o":"m 474 0 b 974 464 764 0 974 176 b 472 926 974 751 764 926 l 83 926 l 83 0 z m 472 208 l 322 208 l 322 718 l 474 718 b 729 464 643 718 729 607 b 472 208 729 326 635 208 z "},"E":{"ha":818,"x_min":0,"x_max":0,"o":"m 763 0 l 763 208 l 322 208 l 322 365 l 753 365 l 753 574 l 322 574 l 322 718 l 763 718 l 763 926 l 83 926 l 83 0 z "},"F":{"ha":808,"x_min":0,"x_max":0,"o":"m 322 0 l 322 365 l 753 365 l 753 574 l 322 574 l 322 718 l 763 718 l 763 926 l 83 926 l 83 0 z "},"G":{"ha":1004,"x_min":0,"x_max":0,"o":"m 538 -17 b 947 164 713 -17 847 54 l 947 532 l 500 532 l 500 322 l 708 322 l 708 250 b 538 194 675 222 606 194 b 279 463 386 194 279 311 b 538 731 279 614 386 731 b 733 613 628 731 699 674 l 933 717 b 538 942 869 832 744 942 b 36 463 261 942 36 757 b 538 -17 36 168 261 -17 z "},"H":{"ha":1029,"x_min":0,"x_max":0,"o":"m 946 0 l 946 926 l 707 926 l 707 581 l 322 581 l 322 926 l 83 926 l 83 0 l 322 0 l 322 372 l 707 372 l 707 0 z "},"I":{"ha":406,"x_min":0,"x_max":0,"o":"m 322 0 l 322 926 l 83 926 l 83 0 z "},"J":{"ha":683,"x_min":0,"x_max":0,"o":"m 258 -17 b 600 318 461 -17 600 89 l 600 926 l 361 926 l 361 321 b 238 194 361 243 313 194 b 104 249 182 194 138 221 l 4 67 b 258 -17 74 6 165 -17 z "},"K":{"ha":908,"x_min":0,"x_max":0,"o":"m 921 0 l 542 493 l 901 926 l 607 926 l 322 546 l 322 926 l 83 926 l 83 0 l 322 0 l 322 271 l 385 349 l 628 0 z "},"L":{"ha":735,"x_min":0,"x_max":0,"o":"m 694 0 l 694 208 l 322 208 l 322 926 l 83 926 l 83 0 z "},"M":{"ha":1218,"x_min":0,"x_max":0,"o":"m 1135 0 l 1135 926 l 803 926 l 608 424 l 415 926 l 83 926 l 83 0 l 322 0 l 322 603 l 556 0 l 661 0 l 896 603 l 896 0 z "},"N":{"ha":1028,"x_min":0,"x_max":0,"o":"m 944 0 l 944 926 l 704 926 l 704 417 l 329 926 l 83 926 l 83 0 l 322 0 l 322 536 l 714 0 z "},"O":{"ha":1064,"x_min":0,"x_max":0,"o":"m 532 -17 b 1026 463 815 -17 1026 181 b 532 942 1026 744 815 942 b 36 463 249 942 36 744 b 532 -17 36 181 249 -17 z m 532 194 b 279 463 378 194 279 313 b 532 731 279 614 378 731 b 783 463 685 731 783 614 b 532 194 783 313 685 194 z "},"P":{"ha":893,"x_min":0,"x_max":0,"o":"m 322 0 l 322 311 l 547 311 b 869 618 756 311 869 451 b 547 926 869 786 756 926 l 83 926 l 83 0 z m 515 519 l 322 519 l 322 718 l 515 718 b 626 618 579 718 626 682 b 515 519 626 556 579 519 z "},"Q":{"ha":1064,"x_min":0,"x_max":0,"o":"m 532 -17 b 733 21 604 -17 672 -3 l 801 -62 l 968 71 l 910 142 b 1026 463 983 224 1026 335 b 532 942 1026 744 815 942 b 36 463 249 942 36 744 b 532 -17 36 181 249 -17 z m 532 194 b 279 463 378 194 279 313 b 532 731 279 614 378 731 b 783 463 685 731 783 614 b 754 331 783 414 772 369 l 667 436 l 501 303 l 586 200 b 532 194 568 196 550 194 z "},"R":{"ha":918,"x_min":0,"x_max":0,"o":"m 874 0 l 685 340 b 869 618 771 371 869 457 b 547 926 869 790 753 926 l 83 926 l 83 0 l 322 0 l 322 311 l 444 311 l 600 0 z m 511 519 l 322 519 l 322 718 l 511 718 b 626 619 574 718 626 682 b 511 519 626 554 574 519 z "},"S":{"ha":842,"x_min":0,"x_max":0,"o":"m 428 -17 b 814 293 676 -17 814 107 b 290 669 814 638 290 551 b 390 736 290 708 321 736 b 661 640 482 736 583 704 l 792 811 b 415 940 693 896 564 940 b 46 646 178 940 46 801 b 571 264 46 289 571 390 b 439 188 571 219 521 188 b 143 310 313 188 210 243 l 17 131 b 428 -17 110 42 240 -17 z "},"T":{"ha":818,"x_min":0,"x_max":0,"o":"m 529 0 l 529 718 l 788 718 l 788 926 l 31 926 l 31 718 l 290 718 l 290 0 z "},"U":{"ha":1042,"x_min":0,"x_max":0,"o":"m 522 -17 b 958 376 818 -17 958 146 l 958 926 l 717 926 l 717 383 b 522 194 717 274 650 194 b 326 383 392 194 326 274 l 326 926 l 83 926 l 83 375 b 522 -17 83 147 224 -17 z "},"V":{"ha":968,"x_min":0,"x_max":0,"o":"m 633 0 l 983 926 l 713 926 l 483 258 l 256 926 l -15 926 l 333 0 z "},"W":{"ha":1300,"x_min":0,"x_max":0,"o":"m 1043 0 l 1308 926 l 1039 926 l 900 308 l 742 926 l 558 926 l 400 308 l 260 926 l -8 926 l 257 0 l 510 0 l 650 581 l 790 0 z "},"X":{"ha":939,"x_min":0,"x_max":0,"o":"m 953 0 l 631 476 l 932 926 l 649 926 l 469 636 l 288 926 l 6 926 l 308 475 l -15 0 l 268 0 l 469 311 l 671 0 z "},"Y":{"ha":910,"x_min":0,"x_max":0,"o":"m 575 0 l 575 374 l 925 926 l 654 926 l 456 585 l 254 926 l -15 926 l 336 374 l 336 0 z "},"Z":{"ha":828,"x_min":0,"x_max":0,"o":"m 774 0 l 774 208 l 368 208 l 764 736 l 764 926 l 54 926 l 54 718 l 449 718 l 54 190 l 54 0 z "},"a":{"ha":765,"x_min":0,"x_max":0,"o":"m 688 0 l 688 419 b 375 688 688 628 536 688 b 71 583 272 688 157 657 l 147 449 b 338 519 201 494 271 519 b 474 422 424 519 474 481 l 474 342 b 265 419 433 392 354 419 b 35 204 163 419 35 367 b 265 -17 35 53 163 -17 b 474 67 351 -17 432 17 l 474 0 z m 354 124 b 247 201 297 124 247 149 b 354 279 247 254 297 279 b 474 232 401 279 451 263 l 474 172 b 354 124 451 140 401 124 z "},"b":{"ha":821,"x_min":0,"x_max":0,"o":"m 292 232 l 292 438 b 419 499 318 474 374 499 b 568 336 504 499 568 436 b 419 172 568 235 504 172 b 292 232 374 172 318 196 z m 292 0 l 292 78 b 490 -17 347 14 415 -17 b 786 336 656 -17 786 108 b 490 688 786 556 657 688 b 292 592 417 688 344 658 l 292 926 l 78 926 l 78 0 z "},"c":{"ha":694,"x_min":0,"x_max":0,"o":"m 400 -17 b 675 107 544 -17 635 49 l 536 238 b 410 172 510 200 467 172 b 253 336 321 172 253 235 b 410 499 253 438 321 499 b 536 435 467 499 510 474 l 675 564 b 400 688 635 624 544 688 b 33 336 190 688 33 546 b 400 -17 33 125 190 -17 z "},"d":{"ha":821,"x_min":0,"x_max":0,"o":"m 742 0 l 742 926 l 529 926 l 529 592 b 331 688 475 658 404 688 b 33 336 163 688 33 556 b 331 -17 33 108 165 -17 b 529 78 406 -17 474 14 l 529 0 z m 400 172 b 253 336 315 172 253 236 b 400 499 253 436 315 499 b 529 439 446 499 501 475 l 529 233 b 400 172 501 197 446 172 z "},"e":{"ha":761,"x_min":0,"x_max":0,"o":"m 400 -17 b 681 72 503 -17 614 13 l 590 206 b 424 149 553 169 471 149 b 256 268 326 149 268 206 l 733 268 l 733 314 b 390 688 733 542 589 688 b 33 336 181 688 33 531 b 400 -17 33 118 193 -17 z m 529 407 l 253 407 b 390 522 261 456 297 522 b 529 407 489 522 524 454 z "},"f":{"ha":485,"x_min":0,"x_max":0,"o":"m 338 0 l 338 485 l 474 485 l 474 671 l 338 671 l 338 704 b 411 778 338 751 371 778 b 478 751 442 778 461 769 l 557 874 b 364 940 511 921 436 940 b 124 704 224 940 124 846 l 124 671 l 13 671 l 13 485 l 124 485 l 124 0 z "},"g":{"ha":819,"x_min":0,"x_max":0,"o":"m 357 -272 b 740 60 524 -272 740 -214 l 740 671 l 528 671 l 528 592 b 329 688 474 658 404 688 b 33 350 161 688 33 571 b 329 11 33 124 165 11 b 528 108 406 11 472 43 l 528 57 b 357 -97 528 -68 428 -97 b 153 -19 279 -97 204 -75 l 60 -172 b 357 -272 146 -243 242 -272 z m 400 200 b 253 350 315 200 253 251 b 400 499 253 447 315 499 b 528 439 444 499 501 475 l 528 260 b 400 200 501 224 444 200 z "},"h":{"ha":825,"x_min":0,"x_max":0,"o":"m 747 0 l 747 478 b 525 688 747 601 678 688 b 293 589 413 688 333 636 l 293 926 l 79 926 l 79 0 l 293 0 l 293 433 b 422 499 318 464 360 499 b 533 390 490 499 533 472 l 533 0 z "},"i":{"ha":369,"x_min":0,"x_max":0,"o":"m 185 731 b 307 854 253 731 307 786 b 185 976 307 922 253 976 b 63 854 117 976 63 922 b 185 731 63 786 117 731 z m 292 0 l 292 671 l 78 671 l 78 0 z "},"j":{"ha":369,"x_min":0,"x_max":0,"o":"m 185 731 b 307 854 253 731 307 786 b 185 976 307 922 253 976 b 63 854 117 976 63 922 b 185 731 63 786 117 731 z m 32 -272 b 292 6 211 -272 292 -157 l 292 671 l 78 671 l 78 6 b -4 -97 78 -64 46 -97 b -90 -68 -44 -97 -64 -89 l -144 -225 b 32 -272 -93 -258 -61 -272 z "},"k":{"ha":758,"x_min":0,"x_max":0,"o":"m 767 0 l 507 365 l 754 671 l 496 671 l 292 403 l 292 926 l 78 926 l 78 0 l 292 0 l 292 161 l 356 238 l 503 0 z "},"l":{"ha":369,"x_min":0,"x_max":0,"o":"m 292 0 l 292 926 l 78 926 l 78 0 z "},"m":{"ha":1215,"x_min":0,"x_max":0,"o":"m 1136 0 l 1136 486 b 935 688 1136 624 1058 688 b 703 568 829 688 742 626 b 513 688 675 647 608 688 b 292 589 407 688 321 628 l 292 671 l 78 671 l 78 0 l 292 0 l 292 433 b 411 499 314 461 354 499 b 500 408 476 499 500 460 l 500 0 l 714 0 l 714 433 b 835 499 735 461 776 499 b 924 408 899 499 924 460 l 924 0 z "},"n":{"ha":824,"x_min":0,"x_max":0,"o":"m 746 0 l 746 475 b 524 688 746 599 676 688 b 292 589 411 688 332 636 l 292 671 l 78 671 l 78 0 l 292 0 l 292 433 b 422 499 317 464 358 499 b 532 388 489 499 532 469 l 532 0 z "},"o":{"ha":800,"x_min":0,"x_max":0,"o":"m 399 -17 b 765 336 629 -17 765 147 b 399 688 765 525 629 688 b 33 336 171 688 33 525 b 399 -17 33 147 171 -17 z m 399 172 b 254 336 306 172 254 246 b 399 499 254 425 306 499 b 546 336 493 499 546 425 b 399 172 546 246 493 172 z "},"p":{"ha":818,"x_min":0,"x_max":0,"o":"m 490 -17 b 785 336 658 -17 785 108 b 490 688 785 563 658 688 b 292 593 414 688 344 657 l 292 671 l 78 671 l 78 -256 l 292 -256 l 292 79 b 490 -17 347 13 415 -17 z m 419 172 b 292 233 374 172 318 199 l 292 438 b 419 499 318 474 374 499 b 567 336 503 499 567 436 b 419 172 567 235 503 172 z "},"q":{"ha":818,"x_min":0,"x_max":0,"o":"m 400 172 b 251 336 315 172 251 235 b 400 499 251 436 315 499 b 526 438 444 499 500 474 l 526 233 b 400 172 501 199 444 172 z m 328 -17 b 526 79 403 -17 471 13 l 526 -256 l 740 -256 l 740 671 l 526 671 l 526 593 b 328 688 474 657 404 688 b 33 336 160 688 33 563 b 328 -17 33 108 160 -17 z "},"r":{"ha":521,"x_min":0,"x_max":0,"o":"m 292 0 l 292 428 b 449 489 319 465 393 489 b 501 483 471 489 489 486 l 501 689 b 292 589 421 689 336 643 l 292 671 l 78 671 l 78 0 z "},"s":{"ha":672,"x_min":0,"x_max":0,"o":"m 335 -17 b 640 206 528 -17 640 78 b 250 482 640 481 250 404 b 335 531 250 510 285 531 b 532 457 415 531 492 496 l 614 599 b 333 688 542 651 446 688 b 46 467 147 688 46 585 b 436 196 46 197 436 283 b 346 144 436 165 410 144 b 110 233 267 144 160 189 l 21 86 b 335 -17 92 24 215 -17 z "},"t":{"ha":500,"x_min":0,"x_max":0,"o":"m 332 -17 b 490 28 411 -17 464 3 l 449 189 b 394 172 442 181 418 172 b 335 240 357 172 335 201 l 335 485 l 471 485 l 471 671 l 335 671 l 335 854 l 122 854 l 122 671 l 11 671 l 11 485 l 122 485 l 122 181 b 332 -17 122 51 196 -17 z "},"u":{"ha":822,"x_min":0,"x_max":0,"o":"m 744 0 l 744 671 l 531 671 l 531 238 b 403 172 506 206 464 172 b 292 281 333 172 292 200 l 292 671 l 78 671 l 78 193 b 299 -17 78 69 146 -17 b 531 81 411 -17 489 33 l 531 0 z "},"v":{"ha":728,"x_min":0,"x_max":0,"o":"m 478 0 l 742 671 l 515 671 l 363 246 l 211 671 l -14 671 l 250 0 z "},"w":{"ha":1093,"x_min":0,"x_max":0,"o":"m 903 0 l 1101 671 l 881 671 l 774 260 l 642 671 l 451 671 l 319 260 l 211 671 l -8 671 l 190 0 l 421 0 l 546 415 l 672 0 z "},"x":{"ha":711,"x_min":0,"x_max":0,"o":"m 719 0 l 490 344 l 704 671 l 469 671 l 356 489 l 240 671 l 6 671 l 221 344 l -8 0 l 225 0 l 356 203 l 485 0 z "},"y":{"ha":728,"x_min":0,"x_max":0,"o":"m 64 -261 b 156 -272 86 -268 136 -272 b 439 -96 283 -269 385 -237 l 742 671 l 515 671 l 363 246 l 211 671 l -14 671 l 253 -10 l 238 -46 b 147 -83 226 -74 196 -83 b 94 -71 131 -83 110 -79 z "},"z":{"ha":671,"x_min":0,"x_max":0,"o":"m 618 0 l 618 185 l 338 185 l 613 519 l 613 671 l 53 671 l 53 485 l 322 485 l 53 157 l 53 0 z "},"":{"ha":846,"x_min":0,"x_max":0,"o":"m 289 764 l -15 0 l 233 0 l 271 106 l 575 106 l 614 0 l 861 0 l 558 764 z m 513 297 l 333 297 l 424 543 z "},"":{"ha":836,"x_min":0,"x_max":0,"o":"m 553 0 b 794 208 714 0 794 97 b 647 394 794 301 732 376 b 778 568 721 415 778 478 b 538 764 778 665 700 764 l 78 764 l 78 0 z m 506 182 l 300 182 l 300 297 l 506 297 b 569 239 544 297 569 271 b 506 182 569 206 544 182 z m 497 478 l 300 478 l 300 582 l 497 582 b 553 529 531 582 553 558 b 497 478 553 500 531 478 z "},"":{"ha":815,"x_min":0,"x_max":0,"o":"m 454 -17 b 797 197 632 -17 746 86 l 613 282 b 454 178 586 222 526 178 b 257 382 339 178 257 267 b 454 586 257 499 339 586 b 613 481 526 586 586 540 l 797 567 b 454 781 744 679 632 781 b 33 382 211 781 33 618 b 454 -17 33 147 211 -17 z "},"":{"ha":876,"x_min":0,"x_max":0,"o":"m 422 0 b 843 382 676 0 843 146 b 421 764 843 619 676 764 l 78 764 l 78 0 z m 421 192 l 300 192 l 300 572 l 422 572 b 619 382 564 572 619 488 b 421 192 619 281 554 192 z "},"":{"ha":729,"x_min":0,"x_max":0,"o":"m 678 0 l 678 186 l 300 186 l 300 294 l 669 294 l 669 481 l 300 481 l 300 578 l 678 578 l 678 764 l 78 764 l 78 0 z "},"":{"ha":718,"x_min":0,"x_max":0,"o":"m 300 0 l 300 294 l 669 294 l 669 481 l 300 481 l 300 578 l 678 578 l 678 764 l 78 764 l 78 0 z "},"":{"ha":849,"x_min":0,"x_max":0,"o":"m 458 -17 b 801 135 599 -17 715 43 l 801 446 l 426 446 l 426 272 l 581 272 l 581 218 b 458 176 556 197 514 176 b 258 382 339 176 258 267 b 458 585 258 499 339 585 b 601 504 524 585 574 550 l 782 606 b 458 781 728 694 615 781 b 33 382 219 781 33 626 b 458 -17 33 140 219 -17 z "},"":{"ha":914,"x_min":0,"x_max":0,"o":"m 836 0 l 836 764 l 615 764 l 615 486 l 300 486 l 300 764 l 78 764 l 78 0 l 300 0 l 300 294 l 615 294 l 615 0 z "},"":{"ha":378,"x_min":0,"x_max":0,"o":"m 300 0 l 300 764 l 78 764 l 78 0 z "},"":{"ha":608,"x_min":0,"x_max":0,"o":"m 218 -17 b 531 260 408 -17 531 68 l 531 764 l 308 764 l 308 281 b 200 178 308 217 267 178 b 86 228 156 178 115 199 l 3 60 b 218 -17 61 7 140 -17 z "},"":{"ha":808,"x_min":0,"x_max":0,"o":"m 817 0 l 489 407 l 799 764 l 532 764 l 300 471 l 300 764 l 78 764 l 78 0 l 300 0 l 300 225 l 344 278 l 550 0 z "},"":{"ha":658,"x_min":0,"x_max":0,"o":"m 619 0 l 619 192 l 300 192 l 300 764 l 78 764 l 78 0 z "},"":{"ha":1076,"x_min":0,"x_max":0,"o":"m 999 0 l 999 764 l 704 764 l 539 353 l 371 764 l 78 764 l 78 0 l 300 0 l 300 457 l 488 0 l 590 0 l 778 457 l 778 0 z "},"":{"ha":913,"x_min":0,"x_max":0,"o":"m 833 0 l 833 764 l 613 764 l 613 363 l 318 764 l 78 764 l 78 0 l 299 0 l 299 421 l 607 0 z "},"":{"ha":904,"x_min":0,"x_max":0,"o":"m 451 -17 b 869 382 696 -17 869 150 b 451 781 869 614 696 781 b 33 382 207 781 33 614 b 451 -17 33 150 207 -17 z m 451 178 b 257 382 333 178 257 267 b 451 586 257 497 333 586 b 644 382 569 586 644 497 b 451 178 644 267 569 178 z "},"":{"ha":790,"x_min":0,"x_max":0,"o":"m 300 0 l 300 244 l 493 244 b 771 504 678 244 771 364 b 493 764 771 644 669 764 l 78 764 l 78 0 z m 467 436 l 300 436 l 300 572 l 467 572 b 546 504 515 572 546 544 b 467 436 546 465 515 436 z "},"":{"ha":904,"x_min":0,"x_max":0,"o":"m 451 -17 b 629 17 515 -17 576 -4 l 686 -51 l 818 53 l 768 111 b 869 382 832 181 869 274 b 451 781 869 614 696 781 b 33 382 207 781 33 614 b 451 -17 33 150 207 -17 z m 451 178 b 257 382 333 178 257 267 b 451 586 257 497 333 586 b 644 382 569 586 644 497 b 624 283 644 346 636 313 l 564 356 l 433 251 l 492 181 b 451 178 479 179 465 178 z "},"":{"ha":817,"x_min":0,"x_max":0,"o":"m 775 0 l 610 268 b 771 504 682 290 771 363 b 493 764 771 646 668 764 l 78 764 l 78 0 l 300 0 l 300 244 l 397 244 l 525 0 z m 467 436 l 300 436 l 300 572 l 467 572 b 546 504 515 572 546 544 b 467 436 546 465 515 436 z "},"":{"ha":725,"x_min":0,"x_max":0,"o":"m 358 -17 b 701 239 576 -17 701 81 b 265 544 701 532 265 456 b 360 600 265 575 297 600 b 586 519 431 600 528 569 l 688 671 b 361 781 606 740 496 781 b 40 533 161 781 40 663 b 478 225 40 239 478 321 b 367 164 478 189 440 164 b 111 260 267 164 165 208 l 14 96 b 358 -17 85 33 207 -17 z "},"":{"ha":686,"x_min":0,"x_max":0,"o":"m 454 0 l 454 572 l 661 572 l 661 764 l 25 764 l 25 572 l 232 572 l 232 0 z "},"":{"ha":913,"x_min":0,"x_max":0,"o":"m 457 -17 b 835 308 714 -17 835 118 l 835 764 l 611 764 l 611 328 b 457 178 611 240 556 178 b 301 328 357 178 301 240 l 301 764 l 78 764 l 78 307 b 457 -17 78 118 200 -17 z "},"":{"ha":846,"x_min":0,"x_max":0,"o":"m 558 0 l 861 764 l 614 764 l 424 239 l 236 764 l -15 764 l 289 0 z "},"":{"ha":1131,"x_min":0,"x_max":0,"o":"m 910 0 l 1140 764 l 893 764 l 779 286 l 650 764 l 481 764 l 351 288 l 239 764 l -8 764 l 221 0 l 451 0 l 565 446 l 679 0 z "},"":{"ha":824,"x_min":0,"x_max":0,"o":"m 838 0 l 557 393 l 818 764 l 560 764 l 411 538 l 263 764 l 4 764 l 265 392 l -15 0 l 244 0 l 411 246 l 579 0 z "},"":{"ha":797,"x_min":0,"x_max":0,"o":"m 510 0 l 510 310 l 813 764 l 565 764 l 400 494 l 233 764 l -15 764 l 290 310 l 290 0 z "},"":{"ha":732,"x_min":0,"x_max":0,"o":"m 685 0 l 685 194 l 356 194 l 676 606 l 676 764 l 47 764 l 47 569 l 368 569 l 47 158 l 47 0 z "},"Á":{"ha":968,"x_min":0,"x_max":0,"o":"m 983 0 l 633 926 l 333 926 l -15 0 l 256 0 l 301 133 l 667 133 l 713 0 z m 601 342 l 365 342 l 483 690 z m 757 1204 l 568 1204 l 392 1004 l 536 1004 z "},"Ă":{"ha":968,"x_min":0,"x_max":0,"o":"m 983 0 l 633 926 l 333 926 l -15 0 l 256 0 l 301 133 l 667 133 l 713 0 z m 601 342 l 365 342 l 483 690 z m 726 1088 l 635 1163 b 483 1082 600 1111 547 1082 b 331 1163 417 1082 365 1115 l 239 1088 b 483 965 296 1013 385 965 b 726 1088 583 965 671 1013 z "},"Â":{"ha":968,"x_min":0,"x_max":0,"o":"m 707 1004 l 578 1204 l 390 1204 l 265 1004 l 392 1004 l 483 1117 l 579 1004 z m 983 0 l 633 926 l 333 926 l -15 0 l 256 0 l 301 133 l 667 133 l 713 0 z m 601 342 l 365 342 l 483 690 z "},"Ä":{"ha":968,"x_min":0,"x_max":0,"o":"m 742 1086 b 632 1194 742 1146 693 1194 b 524 1086 572 1194 524 1146 b 632 976 524 1024 572 976 b 742 1086 693 976 742 1024 z m 444 1086 b 335 1194 444 1146 396 1194 b 226 1086 274 1194 226 1146 b 335 976 226 1024 274 976 b 444 1086 396 976 444 1024 z m 983 0 l 633 926 l 333 926 l -15 0 l 256 0 l 301 133 l 667 133 l 713 0 z m 601 342 l 365 342 l 483 690 z "},"À":{"ha":968,"x_min":0,"x_max":0,"o":"m 983 0 l 633 926 l 333 926 l -15 0 l 256 0 l 301 133 l 667 133 l 713 0 z m 601 342 l 365 342 l 483 690 z m 575 1004 l 399 1204 l 210 1204 l 431 1004 z "},"Ā":{"ha":968,"x_min":0,"x_max":0,"o":"m 983 0 l 633 926 l 333 926 l -15 0 l 256 0 l 301 133 l 667 133 l 713 0 z m 601 342 l 365 342 l 483 690 z m 735 1004 l 735 1122 l 231 1122 l 231 1004 z "},"Ą":{"ha":968,"x_min":0,"x_max":0,"o":"m 989 -131 b 935 -174 979 -156 963 -174 b 889 -121 913 -174 889 -161 b 983 0 889 -76 915 -35 l 633 926 l 333 926 l -15 0 l 256 0 l 301 133 l 667 133 l 713 0 l 847 0 b 789 -131 808 -36 789 -81 b 935 -258 789 -221 858 -258 b 1071 -182 999 -258 1043 -228 z m 601 342 l 365 342 l 483 690 z "},"Å":{"ha":968,"x_min":0,"x_max":0,"o":"m 983 0 l 633 926 l 333 926 l -15 0 l 256 0 l 301 133 l 667 133 l 713 0 z m 601 342 l 365 342 l 483 690 z m 486 954 b 633 1104 568 954 633 1022 b 486 1256 633 1188 568 1256 b 335 1104 403 1256 335 1188 b 486 954 335 1022 403 954 z m 486 1049 b 429 1104 454 1049 429 1074 b 486 1161 429 1136 454 1161 b 540 1104 517 1161 540 1136 b 486 1049 540 1074 517 1049 z "},"Ã":{"ha":968,"x_min":0,"x_max":0,"o":"m 983 0 l 633 926 l 333 926 l -15 0 l 256 0 l 301 133 l 667 133 l 713 0 z m 601 342 l 365 342 l 483 690 z m 560 1001 b 717 1188 663 1001 717 1065 l 608 1188 b 567 1119 608 1140 589 1119 b 410 1196 522 1119 499 1196 b 253 1010 307 1196 253 1133 l 361 1010 b 403 1078 361 1057 381 1078 b 560 1001 447 1078 469 1001 z "},"Ạ":{"ha":968,"x_min":0,"x_max":0,"o":"m 983 0 l 633 926 l 333 926 l -15 0 l 256 0 l 301 133 l 667 133 l 713 0 z m 601 342 l 365 342 l 483 690 z m 485 -282 b 593 -172 544 -282 593 -233 b 485 -64 593 -112 544 -64 b 376 -172 425 -64 376 -112 b 485 -282 376 -233 425 -282 z "},"Ả":{"ha":968,"x_min":0,"x_max":0,"o":"m 983 0 l 633 926 l 333 926 l -15 0 l 256 0 l 301 133 l 667 133 l 713 0 z m 601 342 l 365 342 l 483 690 z m 440 1036 b 483 1072 447 1056 461 1072 b 519 1032 501 1072 519 1061 b 494 968 519 1010 513 988 l 581 968 b 600 1036 592 990 600 1010 b 483 1139 600 1108 544 1139 b 368 1060 432 1139 386 1113 z "},"Ấ":{"ha":968,"x_min":0,"x_max":0,"o":"m 707 947 l 578 1097 l 390 1097 l 265 947 l 392 947 l 483 1032 l 579 947 z m 983 0 l 633 926 l 333 926 l -15 0 l 256 0 l 301 133 l 667 133 l 713 0 z m 601 342 l 365 342 l 483 690 z m 1024 1171 l 835 1171 l 658 1021 l 803 1021 z "},"Ậ":{"ha":968,"x_min":0,"x_max":0,"o":"m 983 0 l 633 926 l 333 926 l -15 0 l 256 0 l 301 133 l 667 133 l 713 0 z m 601 342 l 365 342 l 483 690 z m 706 1004 l 576 1204 l 389 1204 l 264 1004 l 390 1004 l 482 1117 l 578 1004 z m 485 -282 b 593 -172 544 -282 593 -233 b 485 -64 593 -112 544 -64 b 376 -172 425 -64 376 -112 b 485 -282 376 -233 425 -282 z "},"Ầ":{"ha":968,"x_min":0,"x_max":0,"o":"m 707 947 l 578 1097 l 390 1097 l 265 947 l 392 947 l 483 1032 l 579 947 z m 983 0 l 633 926 l 333 926 l -15 0 l 256 0 l 301 133 l 667 133 l 713 0 z m 601 342 l 365 342 l 483 690 z m 315 1021 l 139 1171 l -50 1171 l 171 1021 z "},"Ẩ":{"ha":968,"x_min":0,"x_max":0,"o":"m 707 947 l 578 1097 l 390 1097 l 265 947 l 392 947 l 483 1032 l 579 947 z m 983 0 l 633 926 l 333 926 l -15 0 l 256 0 l 301 133 l 667 133 l 713 0 z m 601 342 l 365 342 l 483 690 z m 676 1086 b 719 1113 683 1100 697 1113 b 756 1083 738 1113 756 1104 b 731 1035 756 1067 749 1050 l 817 1035 b 836 1086 828 1051 836 1067 b 719 1163 836 1140 781 1163 b 604 1104 668 1163 622 1143 z "},"Ắ":{"ha":968,"x_min":0,"x_max":0,"o":"m 983 0 l 633 926 l 333 926 l -15 0 l 256 0 l 301 133 l 667 133 l 713 0 z m 601 342 l 365 342 l 483 690 z m 760 1151 l 571 1151 l 394 1042 l 539 1042 z m 726 1022 l 635 1067 b 483 1019 600 1036 547 1019 b 331 1067 417 1019 365 1039 l 239 1022 b 483 950 296 978 385 950 b 726 1022 583 950 671 978 z "},"Ẫ":{"ha":968,"x_min":0,"x_max":0,"o":"m 707 942 l 578 1042 l 390 1042 l 265 942 l 392 942 l 483 997 l 579 942 z m 983 0 l 633 926 l 333 926 l -15 0 l 256 0 l 301 133 l 667 133 l 713 0 z m 601 342 l 365 342 l 483 690 z m 558 1051 b 715 1144 661 1051 715 1083 l 607 1144 b 565 1110 607 1121 588 1110 b 408 1149 521 1110 497 1149 b 251 1056 306 1149 251 1117 l 360 1056 b 401 1089 360 1079 379 1089 b 558 1051 446 1089 468 1051 z "},"Ằ":{"ha":968,"x_min":0,"x_max":0,"o":"m 983 0 l 633 926 l 333 926 l -15 0 l 256 0 l 301 133 l 667 133 l 713 0 z m 601 342 l 365 342 l 483 690 z m 576 1042 l 400 1151 l 211 1151 l 432 1042 z m 726 1017 l 635 1061 b 483 1014 600 1031 547 1014 b 331 1061 417 1014 365 1033 l 239 1017 b 483 944 296 972 385 944 b 726 1017 583 944 671 972 z "},"Ẳ":{"ha":968,"x_min":0,"x_max":0,"o":"m 983 0 l 633 926 l 333 926 l -15 0 l 256 0 l 301 133 l 667 133 l 713 0 z m 601 342 l 365 342 l 483 690 z m 440 1081 b 483 1100 447 1092 461 1100 b 519 1079 501 1100 519 1094 b 494 1044 519 1067 513 1054 l 581 1044 b 600 1081 592 1056 600 1067 b 483 1138 600 1121 544 1138 b 368 1094 432 1138 386 1122 z m 726 1017 l 635 1061 b 483 1014 600 1031 547 1014 b 331 1061 417 1014 365 1033 l 239 1017 b 483 944 296 972 385 944 b 726 1017 583 944 671 972 z "},"Ẵ":{"ha":968,"x_min":0,"x_max":0,"o":"m 983 0 l 633 926 l 333 926 l -15 0 l 256 0 l 301 133 l 667 133 l 713 0 z m 601 342 l 365 342 l 483 690 z m 728 1006 l 636 1046 b 485 1003 601 1018 549 1003 b 332 1046 418 1003 367 1021 l 240 1006 b 485 942 297 967 386 942 b 728 1006 585 942 672 967 z m 558 1051 b 715 1144 661 1051 715 1083 l 607 1144 b 565 1110 607 1121 588 1110 b 408 1149 521 1110 497 1149 b 251 1056 306 1149 251 1117 l 360 1056 b 401 1089 360 1079 379 1089 b 558 1051 446 1089 468 1051 z "},"Ặ":{"ha":968,"x_min":0,"x_max":0,"o":"m 983 0 l 633 926 l 333 926 l -15 0 l 256 0 l 301 133 l 667 133 l 713 0 z m 601 342 l 365 342 l 483 690 z m 485 -282 b 593 -172 544 -282 593 -233 b 485 -64 593 -112 544 -64 b 376 -172 425 -64 376 -112 b 485 -282 376 -233 425 -282 z m 726 1088 l 635 1163 b 483 1082 600 1111 547 1082 b 331 1163 417 1082 365 1115 l 239 1088 b 483 965 296 1013 385 965 b 726 1088 583 965 671 1013 z "},"Æ":{"ha":1360,"x_min":0,"x_max":0,"o":"m 1310 0 l 1310 208 l 869 208 l 869 365 l 1300 365 l 1300 574 l 869 574 l 869 718 l 1310 718 l 1310 926 l 532 926 l -24 0 l 249 0 l 324 133 l 631 133 l 631 0 z m 631 342 l 435 342 l 631 690 z "},"Ǽ":{"ha":1360,"x_min":0,"x_max":0,"o":"m 1025 1204 l 836 1204 l 660 1004 l 804 1004 z m 1310 0 l 1310 208 l 869 208 l 869 365 l 1300 365 l 1300 574 l 869 574 l 869 718 l 1310 718 l 1310 926 l 532 926 l -24 0 l 249 0 l 324 133 l 631 133 l 631 0 z m 631 342 l 435 342 l 631 690 z "},"Ḃ":{"ha":944,"x_min":0,"x_max":0,"o":"m 625 0 b 897 251 807 0 897 117 b 721 478 897 368 819 463 b 879 690 808 497 879 575 b 608 926 879 807 792 926 l 83 926 l 83 0 z m 554 571 l 322 571 l 322 725 l 554 725 b 636 649 603 725 636 693 b 554 571 636 603 603 571 z m 563 201 l 322 201 l 322 368 l 563 368 b 654 285 621 368 654 331 b 563 201 654 235 619 201 z m 472 976 b 581 1086 532 976 581 1025 b 472 1194 581 1146 532 1194 b 364 1086 413 1194 364 1146 b 472 976 364 1025 413 976 z "},"Ć":{"ha":961,"x_min":0,"x_max":0,"o":"m 810 1204 l 621 1204 l 444 1004 l 589 1004 z m 538 -17 b 942 232 761 -17 882 113 l 736 329 b 538 194 706 256 626 194 b 279 463 386 194 279 311 b 538 731 279 614 386 731 b 736 596 626 731 706 669 l 942 693 b 538 942 881 815 761 942 b 36 463 253 942 36 749 b 538 -17 36 178 253 -17 z "},"Ç":{"ha":961,"x_min":0,"x_max":0,"o":"m 529 -269 b 689 -149 617 -269 689 -225 b 594 -49 689 -90 646 -49 b 547 -62 576 -49 561 -54 l 567 -15 b 942 232 771 -6 885 118 l 736 329 b 538 194 706 256 626 194 b 279 463 386 194 279 311 b 538 731 279 614 386 731 b 736 596 626 731 706 669 l 942 693 b 538 942 881 815 761 942 b 36 463 253 942 36 749 b 469 -12 36 200 219 15 l 440 -92 l 514 -133 b 554 -115 524 -124 538 -115 b 589 -146 576 -115 589 -126 b 524 -185 589 -172 557 -185 b 410 -143 486 -185 446 -169 l 371 -224 b 529 -269 400 -247 460 -269 z "},"Ĉ":{"ha":961,"x_min":0,"x_max":0,"o":"m 757 1004 l 628 1204 l 440 1204 l 315 1004 l 442 1004 l 533 1117 l 629 1004 z m 538 -17 b 942 232 761 -17 882 113 l 736 329 b 538 194 706 256 626 194 b 279 463 386 194 279 311 b 538 731 279 614 386 731 b 736 596 626 731 706 669 l 942 693 b 538 942 881 815 761 942 b 36 463 253 942 36 749 b 538 -17 36 178 253 -17 z "},"Ċ":{"ha":961,"x_min":0,"x_max":0,"o":"m 538 -17 b 942 232 761 -17 882 113 l 736 329 b 538 194 706 256 626 194 b 279 463 386 194 279 311 b 538 731 279 614 386 731 b 736 596 626 731 706 669 l 942 693 b 538 942 881 815 761 942 b 36 463 253 942 36 749 b 538 -17 36 178 253 -17 z m 540 976 b 649 1086 600 976 649 1025 b 540 1194 649 1146 600 1194 b 432 1086 481 1194 432 1146 b 540 976 432 1025 481 976 z "},"Č":{"ha":961,"x_min":0,"x_max":0,"o":"m 632 1004 l 757 1204 l 629 1204 l 538 1092 l 442 1204 l 315 1204 l 444 1004 z m 538 -17 b 942 232 761 -17 882 113 l 736 329 b 538 194 706 256 626 194 b 279 463 386 194 279 311 b 538 731 279 614 386 731 b 736 596 626 731 706 669 l 942 693 b 538 942 881 815 761 942 b 36 463 253 942 36 749 b 538 -17 36 178 253 -17 z "},"Ď":{"ha":1010,"x_min":0,"x_max":0,"o":"m 607 1004 l 732 1204 l 604 1204 l 513 1092 l 417 1204 l 290 1204 l 419 1004 z m 474 0 b 974 464 764 0 974 176 b 472 926 974 751 764 926 l 83 926 l 83 0 z m 472 208 l 322 208 l 322 718 l 474 718 b 729 464 643 718 729 607 b 472 208 729 326 635 208 z "},"Đ":{"ha":1042,"x_min":0,"x_max":0,"o":"m 506 0 b 1006 464 796 0 1006 176 b 504 926 1006 751 796 926 l 115 926 l 115 551 l 11 551 l 11 369 l 115 369 l 115 0 z m 504 208 l 354 208 l 354 369 l 549 369 l 549 551 l 354 551 l 354 718 l 506 718 b 761 464 675 718 761 607 b 504 208 761 326 667 208 z "},"Ḋ":{"ha":1010,"x_min":0,"x_max":0,"o":"m 474 0 b 974 464 764 0 974 176 b 472 926 974 751 764 926 l 83 926 l 83 0 z m 472 208 l 322 208 l 322 718 l 474 718 b 729 464 643 718 729 607 b 472 208 729 326 635 208 z m 504 976 b 613 1086 564 976 613 1025 b 504 1194 613 1146 564 1194 b 396 1086 444 1194 396 1146 b 504 976 396 1025 444 976 z "},"É":{"ha":818,"x_min":0,"x_max":0,"o":"m 697 1204 l 508 1204 l 332 1004 l 476 1004 z m 763 0 l 763 208 l 322 208 l 322 365 l 753 365 l 753 574 l 322 574 l 322 718 l 763 718 l 763 926 l 83 926 l 83 0 z "},"Ĕ":{"ha":818,"x_min":0,"x_max":0,"o":"m 763 0 l 763 208 l 322 208 l 322 365 l 753 365 l 753 574 l 322 574 l 322 718 l 763 718 l 763 926 l 83 926 l 83 0 z m 663 1088 l 571 1163 b 419 1082 536 1111 483 1082 b 267 1163 353 1082 301 1115 l 175 1088 b 419 965 232 1013 321 965 b 663 1088 519 965 607 1013 z "},"Ê":{"ha":818,"x_min":0,"x_max":0,"o":"m 644 1004 l 515 1204 l 328 1204 l 203 1004 l 329 1004 l 421 1117 l 517 1004 z m 763 0 l 763 208 l 322 208 l 322 365 l 753 365 l 753 574 l 322 574 l 322 718 l 763 718 l 763 926 l 83 926 l 83 0 z "},"Ë":{"ha":818,"x_min":0,"x_max":0,"o":"m 683 1086 b 574 1194 683 1146 635 1194 b 465 1086 514 1194 465 1146 b 574 976 465 1024 514 976 b 683 1086 635 976 683 1024 z m 386 1086 b 276 1194 386 1146 338 1194 b 168 1086 215 1194 168 1146 b 276 976 168 1024 215 976 b 386 1086 338 976 386 1024 z m 763 0 l 763 208 l 322 208 l 322 365 l 753 365 l 753 574 l 322 574 l 322 718 l 763 718 l 763 926 l 83 926 l 83 0 z "},"Ė":{"ha":818,"x_min":0,"x_max":0,"o":"m 763 0 l 763 208 l 322 208 l 322 365 l 753 365 l 753 574 l 322 574 l 322 718 l 763 718 l 763 926 l 83 926 l 83 0 z m 422 976 b 531 1086 482 976 531 1025 b 422 1194 531 1146 482 1194 b 314 1086 363 1194 314 1146 b 422 976 314 1025 363 976 z "},"È":{"ha":818,"x_min":0,"x_max":0,"o":"m 763 0 l 763 208 l 322 208 l 322 365 l 753 365 l 753 574 l 322 574 l 322 718 l 763 718 l 763 926 l 83 926 l 83 0 z m 510 1004 l 333 1204 l 144 1204 l 365 1004 z "},"Ē":{"ha":818,"x_min":0,"x_max":0,"o":"m 763 0 l 763 208 l 322 208 l 322 365 l 753 365 l 753 574 l 322 574 l 322 718 l 763 718 l 763 926 l 83 926 l 83 0 z m 672 1004 l 672 1122 l 168 1122 l 168 1004 z "},"Ę":{"ha":818,"x_min":0,"x_max":0,"o":"m 763 0 l 763 208 l 322 208 l 322 365 l 753 365 l 753 574 l 322 574 l 322 718 l 763 718 l 763 926 l 83 926 l 83 0 l 626 0 b 568 -131 588 -36 568 -81 b 714 -258 568 -221 638 -258 b 850 -182 778 -258 822 -228 l 768 -131 b 714 -174 758 -156 742 -174 b 668 -121 692 -174 668 -161 b 763 0 668 -76 694 -35 z "},"Ě":{"ha":818,"x_min":0,"x_max":0,"o":"m 519 1004 l 644 1204 l 517 1204 l 425 1092 l 329 1204 l 203 1204 l 332 1004 z m 763 0 l 763 208 l 322 208 l 322 365 l 753 365 l 753 574 l 322 574 l 322 718 l 763 718 l 763 926 l 83 926 l 83 0 z "},"Ẹ":{"ha":818,"x_min":0,"x_max":0,"o":"m 763 0 l 763 208 l 322 208 l 322 365 l 753 365 l 753 574 l 322 574 l 322 718 l 763 718 l 763 926 l 83 926 l 83 0 z m 422 -282 b 531 -172 482 -282 531 -233 b 422 -64 531 -112 482 -64 b 314 -172 363 -64 314 -112 b 422 -282 314 -233 363 -282 z "},"Ẻ":{"ha":818,"x_min":0,"x_max":0,"o":"m 763 0 l 763 208 l 322 208 l 322 365 l 753 365 l 753 574 l 322 574 l 322 718 l 763 718 l 763 926 l 83 926 l 83 0 z m 371 1036 b 414 1072 378 1056 392 1072 b 450 1032 432 1072 450 1061 b 425 968 450 1010 443 988 l 511 968 b 531 1036 522 990 531 1010 b 414 1139 531 1108 475 1139 b 299 1060 363 1139 317 1113 z "},"Ẽ":{"ha":818,"x_min":0,"x_max":0,"o":"m 763 0 l 763 208 l 322 208 l 322 365 l 753 365 l 753 574 l 322 574 l 322 718 l 763 718 l 763 926 l 83 926 l 83 0 z m 511 1001 b 668 1188 614 1001 668 1065 l 560 1188 b 518 1119 560 1140 540 1119 b 361 1196 474 1119 450 1196 b 204 1010 258 1196 204 1133 l 313 1010 b 354 1078 313 1057 332 1078 b 511 1001 399 1078 421 1001 z "},"Ế":{"ha":818,"x_min":0,"x_max":0,"o":"m 653 947 l 524 1097 l 336 1097 l 211 947 l 338 947 l 429 1032 l 525 947 z m 969 1171 l 781 1171 l 604 1021 l 749 1021 z m 763 0 l 763 208 l 322 208 l 322 365 l 753 365 l 753 574 l 322 574 l 322 718 l 763 718 l 763 926 l 83 926 l 83 0 z "},"Ề":{"ha":818,"x_min":0,"x_max":0,"o":"m 656 947 l 526 1097 l 339 1097 l 214 947 l 340 947 l 432 1032 l 528 947 z m 763 0 l 763 208 l 322 208 l 322 365 l 753 365 l 753 574 l 322 574 l 322 718 l 763 718 l 763 926 l 83 926 l 83 0 z m 263 1021 l 86 1171 l -103 1171 l 118 1021 z "},"Ể":{"ha":818,"x_min":0,"x_max":0,"o":"m 650 947 l 521 1097 l 333 1097 l 208 947 l 335 947 l 426 1032 l 522 947 z m 763 0 l 763 208 l 322 208 l 322 365 l 753 365 l 753 574 l 322 574 l 322 718 l 763 718 l 763 926 l 83 926 l 83 0 z m 621 1086 b 664 1113 628 1100 642 1113 b 700 1083 682 1113 700 1104 b 675 1035 700 1067 693 1050 l 761 1035 b 781 1086 772 1051 781 1067 b 664 1163 781 1140 725 1163 b 549 1104 613 1163 567 1143 z "},"Ễ":{"ha":818,"x_min":0,"x_max":0,"o":"m 651 942 l 522 1042 l 335 1042 l 210 942 l 336 942 l 428 997 l 524 942 z m 763 0 l 763 208 l 322 208 l 322 365 l 753 365 l 753 574 l 322 574 l 322 718 l 763 718 l 763 926 l 83 926 l 83 0 z m 503 1051 b 660 1144 606 1051 660 1083 l 551 1144 b 510 1110 551 1121 532 1110 b 353 1149 465 1110 442 1149 b 196 1056 250 1149 196 1117 l 304 1056 b 346 1089 304 1079 324 1089 b 503 1051 390 1089 413 1051 z "},"Ệ":{"ha":818,"x_min":0,"x_max":0,"o":"m 644 1004 l 515 1204 l 328 1204 l 203 1004 l 329 1004 l 421 1117 l 517 1004 z m 763 0 l 763 208 l 322 208 l 322 365 l 753 365 l 753 574 l 322 574 l 322 718 l 763 718 l 763 926 l 83 926 l 83 0 z m 422 -282 b 531 -172 482 -282 531 -233 b 422 -64 531 -112 482 -64 b 314 -172 363 -64 314 -112 b 422 -282 314 -233 363 -282 z "},"Ḟ":{"ha":808,"x_min":0,"x_max":0,"o":"m 426 976 b 535 1086 486 976 535 1025 b 426 1194 535 1146 486 1194 b 318 1086 367 1194 318 1146 b 426 976 318 1025 367 976 z m 322 0 l 322 365 l 753 365 l 753 574 l 322 574 l 322 718 l 763 718 l 763 926 l 83 926 l 83 0 z "},"Ĝ":{"ha":1004,"x_min":0,"x_max":0,"o":"m 761 1004 l 632 1204 l 444 1204 l 319 1004 l 446 1004 l 538 1117 l 633 1004 z m 538 -17 b 947 164 713 -17 847 54 l 947 532 l 500 532 l 500 322 l 708 322 l 708 250 b 538 194 675 222 606 194 b 279 463 386 194 279 311 b 538 731 279 614 386 731 b 733 613 628 731 699 674 l 933 717 b 538 942 869 832 744 942 b 36 463 261 942 36 757 b 538 -17 36 168 261 -17 z "},"Ğ":{"ha":1004,"x_min":0,"x_max":0,"o":"m 538 -17 b 947 164 713 -17 847 54 l 947 532 l 500 532 l 500 322 l 708 322 l 708 250 b 538 194 675 222 606 194 b 279 463 386 194 279 311 b 538 731 279 614 386 731 b 733 613 628 731 699 674 l 933 717 b 538 942 869 832 744 942 b 36 463 261 942 36 757 b 538 -17 36 168 261 -17 z m 782 1088 l 690 1163 b 539 1082 656 1111 603 1082 b 386 1163 472 1082 421 1115 l 294 1088 b 539 965 351 1013 440 965 b 782 1088 639 965 726 1013 z "},"Ġ":{"ha":1004,"x_min":0,"x_max":0,"o":"m 538 -17 b 947 164 713 -17 847 54 l 947 532 l 500 532 l 500 322 l 708 322 l 708 250 b 538 194 675 222 606 194 b 279 463 386 194 279 311 b 538 731 279 614 386 731 b 733 613 628 731 699 674 l 933 717 b 538 942 869 832 744 942 b 36 463 261 942 36 757 b 538 -17 36 168 261 -17 z m 539 976 b 647 1086 599 976 647 1025 b 539 1194 647 1146 599 1194 b 431 1086 479 1194 431 1146 b 539 976 431 1025 479 976 z "},"Ģ":{"ha":1004,"x_min":0,"x_max":0,"o":"m 647 -193 b 539 -68 647 -114 596 -68 b 442 -167 486 -68 442 -112 b 524 -254 442 -219 478 -254 b 547 -250 533 -254 543 -253 b 457 -357 536 -290 492 -337 l 525 -411 b 647 -193 599 -358 647 -281 z m 538 -17 b 947 164 713 -17 847 54 l 947 532 l 500 532 l 500 322 l 708 322 l 708 250 b 538 194 675 222 606 194 b 279 463 386 194 279 311 b 538 731 279 614 386 731 b 733 613 628 731 699 674 l 933 717 b 538 942 869 832 744 942 b 36 463 261 942 36 757 b 538 -17 36 168 261 -17 z "},"Ħ":{"ha":1051,"x_min":0,"x_max":0,"o":"m 957 0 l 957 693 l 1040 693 l 1040 811 l 957 811 l 957 926 l 718 926 l 718 811 l 333 811 l 333 926 l 94 926 l 94 811 l 11 811 l 11 693 l 94 693 l 94 0 l 333 0 l 333 372 l 718 372 l 718 0 z m 333 581 l 333 693 l 718 693 l 718 581 z "},"Ĥ":{"ha":1029,"x_min":0,"x_max":0,"o":"m 735 1004 l 606 1204 l 418 1204 l 293 1004 l 419 1004 l 511 1117 l 607 1004 z m 946 0 l 946 926 l 707 926 l 707 581 l 322 581 l 322 926 l 83 926 l 83 0 l 322 0 l 322 372 l 707 372 l 707 0 z "},"Ḣ":{"ha":1029,"x_min":0,"x_max":0,"o":"m 946 0 l 946 926 l 707 926 l 707 581 l 322 581 l 322 926 l 83 926 l 83 0 l 322 0 l 322 372 l 707 372 l 707 0 z m 515 976 b 624 1086 575 976 624 1025 b 515 1194 624 1146 575 1194 b 407 1086 456 1194 407 1146 b 515 976 407 1025 456 976 z "},"Í":{"ha":406,"x_min":0,"x_max":0,"o":"m 322 0 l 322 926 l 83 926 l 83 0 z m 478 1204 l 289 1204 l 113 1004 l 257 1004 z "},"Ĭ":{"ha":406,"x_min":0,"x_max":0,"o":"m 322 0 l 322 926 l 83 926 l 83 0 z m 451 1088 l 360 1163 b 208 1082 325 1111 272 1082 b 56 1163 142 1082 90 1115 l -36 1088 b 208 965 21 1013 110 965 b 451 1088 308 965 396 1013 z "},"Î":{"ha":406,"x_min":0,"x_max":0,"o":"m 424 1004 l 294 1204 l 107 1204 l -18 1004 l 108 1004 l 200 1117 l 296 1004 z m 322 0 l 322 926 l 83 926 l 83 0 z "},"Ï":{"ha":406,"x_min":0,"x_max":0,"o":"m 461 1086 b 351 1194 461 1146 413 1194 b 243 1086 292 1194 243 1146 b 351 976 243 1024 292 976 b 461 1086 413 976 461 1024 z m 164 1086 b 54 1194 164 1146 115 1194 b -54 1086 -7 1194 -54 1146 b 54 976 -54 1024 -7 976 b 164 1086 115 976 164 1024 z m 322 0 l 322 926 l 83 926 l 83 0 z "},"İ":{"ha":406,"x_min":0,"x_max":0,"o":"m 322 0 l 322 926 l 83 926 l 83 0 z m 206 976 b 314 1086 265 976 314 1025 b 206 1194 314 1146 265 1194 b 97 1086 146 1194 97 1146 b 206 976 97 1025 146 976 z "},"Ì":{"ha":406,"x_min":0,"x_max":0,"o":"m 322 0 l 322 926 l 83 926 l 83 0 z m 296 1004 l 119 1204 l -69 1204 l 151 1004 z "},"Ī":{"ha":406,"x_min":0,"x_max":0,"o":"m 322 0 l 322 926 l 83 926 l 83 0 z m 456 1004 l 456 1122 l -49 1122 l -49 1004 z "},"Į":{"ha":406,"x_min":0,"x_max":0,"o":"m 329 -131 b 275 -174 319 -156 303 -174 b 229 -121 253 -174 229 -161 b 324 0 229 -76 256 -35 l 322 0 l 322 926 l 83 926 l 83 0 l 188 0 b 129 -131 149 -36 129 -81 b 275 -258 129 -221 199 -258 b 411 -182 339 -258 383 -228 z "},"Ĩ":{"ha":406,"x_min":0,"x_max":0,"o":"m 322 0 l 322 926 l 83 926 l 83 0 z m 279 1001 b 436 1188 382 1001 436 1065 l 328 1188 b 286 1119 328 1140 308 1119 b 129 1196 242 1119 218 1196 b -28 1010 26 1196 -28 1133 l 81 1010 b 122 1078 81 1057 100 1078 b 279 1001 167 1078 189 1001 z "},"Ỉ":{"ha":406,"x_min":0,"x_max":0,"o":"m 322 0 l 322 926 l 83 926 l 83 0 z m 160 1036 b 203 1072 167 1056 181 1072 b 239 1032 221 1072 239 1061 b 214 968 239 1010 232 988 l 300 968 b 319 1036 311 990 319 1010 b 203 1139 319 1108 264 1139 b 88 1060 151 1139 106 1113 z "},"Ị":{"ha":406,"x_min":0,"x_max":0,"o":"m 322 0 l 322 926 l 83 926 l 83 0 z m 207 -282 b 315 -172 267 -282 315 -233 b 207 -64 315 -112 267 -64 b 99 -172 147 -64 99 -112 b 207 -282 99 -233 147 -282 z "},"Ĳ":{"ha":1089,"x_min":0,"x_max":0,"o":"m 322 0 l 322 926 l 83 926 l 83 0 z m 664 -17 b 1006 318 867 -17 1006 89 l 1006 926 l 767 926 l 767 321 b 643 194 767 243 718 194 b 510 249 588 194 543 221 l 410 67 b 664 -17 479 6 571 -17 z "},"Ĵ":{"ha":683,"x_min":0,"x_max":0,"o":"m 704 1004 l 575 1204 l 388 1204 l 263 1004 l 389 1004 l 481 1117 l 576 1004 z m 258 -17 b 600 318 461 -17 600 89 l 600 926 l 361 926 l 361 321 b 238 194 361 243 313 194 b 104 249 182 194 138 221 l 4 67 b 258 -17 74 6 165 -17 z "},"Ķ":{"ha":928,"x_min":0,"x_max":0,"o":"m 572 -193 b 464 -68 572 -114 521 -68 b 367 -167 411 -68 367 -112 b 449 -254 367 -219 403 -254 b 472 -250 458 -254 468 -253 b 382 -357 461 -290 417 -337 l 450 -411 b 572 -193 524 -358 572 -281 z m 921 0 l 542 493 l 901 926 l 607 926 l 322 546 l 322 926 l 83 926 l 83 0 l 322 0 l 322 271 l 385 349 l 628 0 z "},"Ĺ":{"ha":735,"x_min":0,"x_max":0,"o":"m 660 1204 l 471 1204 l 294 1004 l 439 1004 z m 694 0 l 694 208 l 322 208 l 322 926 l 83 926 l 83 0 z "},"Ľ":{"ha":735,"x_min":0,"x_max":0,"o":"m 629 821 b 521 946 629 900 578 946 b 424 847 468 946 424 901 b 506 760 424 794 460 760 b 529 764 515 760 525 761 b 439 657 518 724 474 676 l 507 603 b 629 821 581 656 629 733 z m 694 0 l 694 208 l 322 208 l 322 926 l 83 926 l 83 0 z "},"Ļ":{"ha":735,"x_min":0,"x_max":0,"o":"m 472 -193 b 364 -68 472 -114 421 -68 b 267 -167 311 -68 267 -112 b 349 -254 267 -219 303 -254 b 372 -250 358 -254 368 -253 b 282 -357 361 -290 317 -337 l 350 -411 b 472 -193 424 -358 472 -281 z m 694 0 l 694 208 l 322 208 l 322 926 l 83 926 l 83 0 z "},"Ŀ":{"ha":792,"x_min":0,"x_max":0,"o":"m 694 0 l 694 208 l 322 208 l 322 926 l 83 926 l 83 0 z m 729 475 b 599 606 729 546 669 606 b 469 475 528 606 469 546 b 599 346 469 406 528 346 b 729 475 669 346 729 406 z "},"Ł":{"ha":751,"x_min":0,"x_max":0,"o":"m 11 246 l 99 296 l 99 0 l 710 0 l 710 208 l 338 208 l 338 433 l 431 488 l 431 681 l 338 626 l 338 926 l 99 926 l 99 488 l 11 438 z "},"Ń":{"ha":1028,"x_min":0,"x_max":0,"o":"m 788 1204 l 599 1204 l 422 1004 l 567 1004 z m 944 0 l 944 926 l 704 926 l 704 417 l 329 926 l 83 926 l 83 0 l 322 0 l 322 536 l 714 0 z "},"Ň":{"ha":1028,"x_min":0,"x_max":0,"o":"m 608 1004 l 733 1204 l 606 1204 l 514 1092 l 418 1204 l 292 1204 l 421 1004 z m 944 0 l 944 926 l 704 926 l 704 417 l 329 926 l 83 926 l 83 0 l 322 0 l 322 536 l 714 0 z "},"Ņ":{"ha":1028,"x_min":0,"x_max":0,"o":"m 621 -193 b 513 -68 621 -114 569 -68 b 415 -167 460 -68 415 -112 b 497 -254 415 -219 451 -254 b 521 -250 507 -254 517 -253 b 431 -357 510 -290 465 -337 l 499 -411 b 621 -193 572 -358 621 -281 z m 944 0 l 944 926 l 704 926 l 704 417 l 329 926 l 83 926 l 83 0 l 322 0 l 322 536 l 714 0 z "},"Ñ":{"ha":1028,"x_min":0,"x_max":0,"o":"m 586 1001 b 743 1188 689 1001 743 1065 l 635 1188 b 593 1119 635 1140 615 1119 b 436 1196 549 1119 525 1196 b 279 1010 333 1196 279 1133 l 388 1010 b 429 1078 388 1057 407 1078 b 586 1001 474 1078 496 1001 z m 944 0 l 944 926 l 704 926 l 704 417 l 329 926 l 83 926 l 83 0 l 322 0 l 322 536 l 714 0 z "},"Ŋ":{"ha":1028,"x_min":0,"x_max":0,"o":"m 601 -272 b 944 61 804 -272 944 -167 l 944 926 l 704 926 l 704 417 l 329 926 l 83 926 l 83 0 l 322 0 l 322 536 l 699 21 b 581 -61 683 -31 640 -61 b 447 -7 525 -61 481 -35 l 347 -189 b 601 -272 418 -250 510 -272 z "},"Ó":{"ha":1064,"x_min":0,"x_max":0,"o":"m 804 1204 l 615 1204 l 439 1004 l 583 1004 z m 532 -17 b 1026 463 815 -17 1026 181 b 532 942 1026 744 815 942 b 36 463 249 942 36 744 b 532 -17 36 181 249 -17 z m 532 194 b 279 463 378 194 279 313 b 532 731 279 614 378 731 b 783 463 685 731 783 614 b 532 194 783 313 685 194 z "},"Ŏ":{"ha":1064,"x_min":0,"x_max":0,"o":"m 532 -17 b 1026 463 815 -17 1026 181 b 532 942 1026 744 815 942 b 36 463 249 942 36 744 b 532 -17 36 181 249 -17 z m 532 194 b 279 463 378 194 279 313 b 532 731 279 614 378 731 b 783 463 685 731 783 614 b 532 194 783 313 685 194 z m 775 1088 l 683 1163 b 532 1082 649 1111 596 1082 b 379 1163 465 1082 414 1115 l 288 1088 b 532 965 344 1013 433 965 b 775 1088 632 965 719 1013 z "},"Ô":{"ha":1064,"x_min":0,"x_max":0,"o":"m 757 1004 l 628 1204 l 440 1204 l 315 1004 l 442 1004 l 533 1117 l 629 1004 z m 532 -17 b 1026 463 815 -17 1026 181 b 532 942 1026 744 815 942 b 36 463 249 942 36 744 b 532 -17 36 181 249 -17 z m 532 194 b 279 463 378 194 279 313 b 532 731 279 614 378 731 b 783 463 685 731 783 614 b 532 194 783 313 685 194 z "},"Ö":{"ha":1064,"x_min":0,"x_max":0,"o":"m 793 1086 b 683 1194 793 1146 744 1194 b 575 1086 624 1194 575 1146 b 683 976 575 1024 624 976 b 793 1086 744 976 793 1024 z m 496 1086 b 386 1194 496 1146 447 1194 b 278 1086 325 1194 278 1146 b 386 976 278 1024 325 976 b 496 1086 447 976 496 1024 z m 532 -17 b 1026 463 815 -17 1026 181 b 532 942 1026 744 815 942 b 36 463 249 942 36 744 b 532 -17 36 181 249 -17 z m 532 194 b 279 463 378 194 279 313 b 532 731 279 614 378 731 b 783 463 685 731 783 614 b 532 194 783 313 685 194 z "},"Ò":{"ha":1064,"x_min":0,"x_max":0,"o":"m 624 1004 l 447 1204 l 258 1204 l 479 1004 z m 532 -17 b 1026 463 815 -17 1026 181 b 532 942 1026 744 815 942 b 36 463 249 942 36 744 b 532 -17 36 181 249 -17 z m 532 194 b 279 463 378 194 279 313 b 532 731 279 614 378 731 b 783 463 685 731 783 614 b 532 194 783 313 685 194 z "},"Ő":{"ha":1064,"x_min":0,"x_max":0,"o":"m 632 1204 l 468 1204 l 351 1004 l 472 1004 z m 844 1204 l 679 1204 l 564 1004 l 685 1004 z m 532 -17 b 1026 463 815 -17 1026 181 b 532 942 1026 744 815 942 b 36 463 249 942 36 744 b 532 -17 36 181 249 -17 z m 532 194 b 279 463 378 194 279 313 b 532 731 279 614 378 731 b 783 463 685 731 783 614 b 532 194 783 313 685 194 z "},"Ō":{"ha":1064,"x_min":0,"x_max":0,"o":"m 783 1004 l 783 1122 l 279 1122 l 279 1004 z m 532 -17 b 1026 463 815 -17 1026 181 b 532 942 1026 744 815 942 b 36 463 249 942 36 744 b 532 -17 36 181 249 -17 z m 532 194 b 279 463 378 194 279 313 b 532 731 279 614 378 731 b 783 463 685 731 783 614 b 532 194 783 313 685 194 z "},"Ø":{"ha":1064,"x_min":0,"x_max":0,"o":"m 532 -17 b 1026 463 815 -17 1026 181 b 882 811 1026 606 972 726 l 975 926 l 808 926 l 775 886 b 532 942 704 922 622 942 b 36 463 249 942 36 744 b 165 129 36 328 83 213 l 61 0 l 228 0 l 268 50 b 532 -17 343 7 433 -17 z m 532 194 b 408 224 485 194 444 206 l 735 628 b 783 463 765 583 783 525 b 532 194 783 313 685 194 z m 279 463 b 532 731 279 614 378 731 b 633 710 569 731 603 724 l 315 315 b 279 463 292 357 279 408 z "},"Ǿ":{"ha":1064,"x_min":0,"x_max":0,"o":"m 804 1204 l 615 1204 l 439 1004 l 583 1004 z m 532 -17 b 1026 463 815 -17 1026 181 b 882 811 1026 606 972 726 l 975 926 l 808 926 l 775 886 b 532 942 704 922 622 942 b 36 463 249 942 36 744 b 165 129 36 328 83 213 l 61 0 l 228 0 l 268 50 b 532 -17 343 7 433 -17 z m 532 194 b 408 224 485 194 444 206 l 735 628 b 783 463 765 583 783 525 b 532 194 783 313 685 194 z m 279 463 b 532 731 279 614 378 731 b 633 710 569 731 603 724 l 315 315 b 279 463 292 357 279 408 z "},"Õ":{"ha":1064,"x_min":0,"x_max":0,"o":"m 532 -17 b 1026 463 815 -17 1026 181 b 532 942 1026 744 815 942 b 36 463 249 942 36 744 b 532 -17 36 181 249 -17 z m 532 194 b 279 463 378 194 279 313 b 532 731 279 614 378 731 b 783 463 685 731 783 614 b 532 194 783 313 685 194 z m 607 1001 b 764 1188 710 1001 764 1065 l 656 1188 b 614 1119 656 1140 636 1119 b 457 1196 569 1119 546 1196 b 300 1010 354 1196 300 1133 l 408 1010 b 450 1078 408 1057 428 1078 b 607 1001 494 1078 517 1001 z "},"Ọ":{"ha":1064,"x_min":0,"x_max":0,"o":"m 532 -17 b 1026 463 815 -17 1026 181 b 532 942 1026 744 815 942 b 36 463 249 942 36 744 b 532 -17 36 181 249 -17 z m 532 194 b 279 463 378 194 279 313 b 532 731 279 614 378 731 b 783 463 685 731 783 614 b 532 194 783 313 685 194 z m 535 -282 b 643 -172 594 -282 643 -233 b 535 -64 643 -112 594 -64 b 426 -172 475 -64 426 -112 b 535 -282 426 -233 475 -282 z "},"Ỏ":{"ha":1064,"x_min":0,"x_max":0,"o":"m 532 -17 b 1026 463 815 -17 1026 181 b 532 942 1026 744 815 942 b 36 463 249 942 36 744 b 532 -17 36 181 249 -17 z m 532 194 b 279 463 378 194 279 313 b 532 731 279 614 378 731 b 783 463 685 731 783 614 b 532 194 783 313 685 194 z m 485 1036 b 528 1072 492 1056 506 1072 b 564 1032 546 1072 564 1061 b 539 968 564 1010 557 988 l 625 968 b 644 1036 636 990 644 1010 b 528 1139 644 1108 589 1139 b 413 1060 476 1139 431 1113 z "},"Ố":{"ha":1064,"x_min":0,"x_max":0,"o":"m 747 947 l 618 1097 l 431 1097 l 306 947 l 432 947 l 524 1032 l 619 947 z m 1064 1171 l 875 1171 l 699 1021 l 843 1021 z m 532 -17 b 1026 463 815 -17 1026 181 b 532 942 1026 744 815 942 b 36 463 249 942 36 744 b 532 -17 36 181 249 -17 z m 532 194 b 279 463 378 194 279 313 b 532 731 279 614 378 731 b 783 463 685 731 783 614 b 532 194 783 313 685 194 z "},"Ồ":{"ha":1064,"x_min":0,"x_max":0,"o":"m 746 947 l 617 1097 l 429 1097 l 304 947 l 431 947 l 522 1032 l 618 947 z m 532 -17 b 1026 463 815 -17 1026 181 b 532 942 1026 744 815 942 b 36 463 249 942 36 744 b 532 -17 36 181 249 -17 z m 532 194 b 279 463 378 194 279 313 b 532 731 279 614 378 731 b 783 463 685 731 783 614 b 532 194 783 313 685 194 z m 353 1021 l 176 1171 l -12 1171 l 208 1021 z "},"Ổ":{"ha":1064,"x_min":0,"x_max":0,"o":"m 749 947 l 619 1097 l 432 1097 l 307 947 l 433 947 l 525 1032 l 621 947 z m 532 -17 b 1026 463 815 -17 1026 181 b 532 942 1026 744 815 942 b 36 463 249 942 36 744 b 532 -17 36 181 249 -17 z m 532 194 b 279 463 378 194 279 313 b 532 731 279 614 378 731 b 783 463 685 731 783 614 b 532 194 783 313 685 194 z m 718 1086 b 761 1113 725 1100 739 1113 b 797 1083 779 1113 797 1104 b 772 1035 797 1067 790 1050 l 858 1035 b 878 1086 869 1051 878 1067 b 761 1163 878 1140 822 1163 b 646 1104 710 1163 664 1143 z "},"Ỗ":{"ha":1064,"x_min":0,"x_max":0,"o":"m 750 942 l 621 1042 l 433 1042 l 308 942 l 435 942 l 526 997 l 622 942 z m 532 -17 b 1026 463 815 -17 1026 181 b 532 942 1026 744 815 942 b 36 463 249 942 36 744 b 532 -17 36 181 249 -17 z m 532 194 b 279 463 378 194 279 313 b 532 731 279 614 378 731 b 783 463 685 731 783 614 b 532 194 783 313 685 194 z m 601 1051 b 758 1144 704 1051 758 1083 l 650 1144 b 608 1110 650 1121 631 1110 b 451 1149 564 1110 540 1149 b 294 1056 349 1149 294 1117 l 403 1056 b 444 1089 403 1079 422 1089 b 601 1051 489 1089 511 1051 z "},"Ộ":{"ha":1064,"x_min":0,"x_max":0,"o":"m 757 1004 l 628 1204 l 440 1204 l 315 1004 l 442 1004 l 533 1117 l 629 1004 z m 532 -17 b 1026 463 815 -17 1026 181 b 532 942 1026 744 815 942 b 36 463 249 942 36 744 b 532 -17 36 181 249 -17 z m 532 194 b 279 463 378 194 279 313 b 532 731 279 614 378 731 b 783 463 685 731 783 614 b 532 194 783 313 685 194 z m 535 -282 b 643 -172 594 -282 643 -233 b 535 -64 643 -112 594 -64 b 426 -172 475 -64 426 -112 b 535 -282 426 -233 475 -282 z "},"Ơ":{"ha":1064,"x_min":0,"x_max":0,"o":"m 532 -17 b 1026 463 815 -17 1026 181 b 946 736 1026 567 997 660 b 1046 925 1007 783 1046 850 b 950 1036 1046 996 1001 1036 b 864 949 903 1036 864 997 b 938 871 864 903 896 871 b 958 875 946 871 956 872 b 899 794 950 846 925 814 b 532 942 810 888 681 942 b 36 463 249 942 36 744 b 532 -17 36 181 249 -17 z m 532 194 b 279 463 378 194 279 313 b 532 731 279 614 378 731 b 783 463 685 731 783 614 b 532 194 783 313 685 194 z "},"Ớ":{"ha":1064,"x_min":0,"x_max":0,"o":"m 804 1204 l 615 1204 l 439 1004 l 583 1004 z m 532 -17 b 1026 463 815 -17 1026 181 b 946 736 1026 567 997 660 b 1046 925 1007 783 1046 850 b 950 1036 1046 996 1001 1036 b 864 949 903 1036 864 997 b 938 871 864 903 896 871 b 958 875 946 871 956 872 b 899 794 950 846 925 814 b 532 942 810 888 681 942 b 36 463 249 942 36 744 b 532 -17 36 181 249 -17 z m 532 194 b 279 463 378 194 279 313 b 532 731 279 614 378 731 b 783 463 685 731 783 614 b 532 194 783 313 685 194 z "},"Ờ":{"ha":1064,"x_min":0,"x_max":0,"o":"m 532 -17 b 1026 463 815 -17 1026 181 b 946 736 1026 567 997 660 b 1046 925 1007 783 1046 850 b 950 1036 1046 996 1001 1036 b 864 949 903 1036 864 997 b 938 871 864 903 896 871 b 958 875 946 871 956 872 b 899 794 950 846 925 814 b 532 942 810 888 681 942 b 36 463 249 942 36 744 b 532 -17 36 181 249 -17 z m 532 194 b 279 463 378 194 279 313 b 532 731 279 614 378 731 b 783 463 685 731 783 614 b 532 194 783 313 685 194 z m 624 1004 l 447 1204 l 258 1204 l 479 1004 z "},"Ở":{"ha":1064,"x_min":0,"x_max":0,"o":"m 532 -17 b 1026 463 815 -17 1026 181 b 946 736 1026 567 997 660 b 1046 925 1007 783 1046 850 b 950 1036 1046 996 1001 1036 b 864 949 903 1036 864 997 b 938 871 864 903 896 871 b 958 875 946 871 956 872 b 899 794 950 846 925 814 b 532 942 810 888 681 942 b 36 463 249 942 36 744 b 532 -17 36 181 249 -17 z m 532 194 b 279 463 378 194 279 313 b 532 731 279 614 378 731 b 783 463 685 731 783 614 b 532 194 783 313 685 194 z m 488 1036 b 531 1072 494 1056 508 1072 b 567 1032 549 1072 567 1061 b 542 968 567 1010 560 988 l 628 968 b 647 1036 639 990 647 1010 b 531 1139 647 1108 592 1139 b 415 1060 479 1139 433 1113 z "},"Ỡ":{"ha":1064,"x_min":0,"x_max":0,"o":"m 532 -17 b 1026 463 815 -17 1026 181 b 946 736 1026 567 997 660 b 1046 925 1007 783 1046 850 b 950 1036 1046 996 1001 1036 b 864 949 903 1036 864 997 b 938 871 864 903 896 871 b 958 875 946 871 956 872 b 899 794 950 846 925 814 b 532 942 810 888 681 942 b 36 463 249 942 36 744 b 532 -17 36 181 249 -17 z m 532 194 b 279 463 378 194 279 313 b 532 731 279 614 378 731 b 783 463 685 731 783 614 b 532 194 783 313 685 194 z m 607 1001 b 764 1188 710 1001 764 1065 l 656 1188 b 614 1119 656 1140 636 1119 b 457 1196 569 1119 546 1196 b 300 1010 354 1196 300 1133 l 408 1010 b 450 1078 408 1057 428 1078 b 607 1001 494 1078 517 1001 z "},"Ợ":{"ha":1064,"x_min":0,"x_max":0,"o":"m 532 -17 b 1026 463 815 -17 1026 181 b 946 736 1026 567 997 660 b 1046 925 1007 783 1046 850 b 950 1036 1046 996 1001 1036 b 864 949 903 1036 864 997 b 938 871 864 903 896 871 b 958 875 946 871 956 872 b 899 794 950 846 925 814 b 532 942 810 888 681 942 b 36 463 249 942 36 744 b 532 -17 36 181 249 -17 z m 532 194 b 279 463 378 194 279 313 b 532 731 279 614 378 731 b 783 463 685 731 783 614 b 532 194 783 313 685 194 z m 535 -282 b 643 -172 594 -282 643 -233 b 535 -64 643 -112 594 -64 b 426 -172 475 -64 426 -112 b 535 -282 426 -233 475 -282 z "},"Œ":{"ha":1490,"x_min":0,"x_max":0,"o":"m 1440 0 l 1440 208 l 1000 208 l 1000 365 l 1431 365 l 1431 574 l 1000 574 l 1000 718 l 1440 718 l 1440 926 l 761 926 l 761 847 b 506 940 700 910 594 940 b 36 463 236 940 36 747 b 506 -17 36 178 236 -17 b 761 79 594 -17 700 14 l 761 0 z m 761 325 b 540 194 721 243 639 194 b 279 463 378 194 279 311 b 540 729 279 614 378 729 b 761 601 639 729 721 683 z "},"Ṗ":{"ha":893,"x_min":0,"x_max":0,"o":"m 322 0 l 322 311 l 547 311 b 869 618 756 311 869 451 b 547 926 869 786 756 926 l 83 926 l 83 0 z m 515 519 l 322 519 l 322 718 l 515 718 b 626 618 579 718 626 682 b 515 519 626 556 579 519 z m 446 976 b 554 1086 506 976 554 1025 b 446 1194 554 1146 506 1194 b 338 1086 386 1194 338 1146 b 446 976 338 1025 386 976 z "},"Ŕ":{"ha":918,"x_min":0,"x_max":0,"o":"m 746 1204 l 557 1204 l 381 1004 l 525 1004 z m 874 0 l 685 340 b 869 618 771 371 869 457 b 547 926 869 790 753 926 l 83 926 l 83 0 l 322 0 l 322 311 l 444 311 l 600 0 z m 511 519 l 322 519 l 322 718 l 511 718 b 626 619 574 718 626 682 b 511 519 626 554 574 519 z "},"Ř":{"ha":918,"x_min":0,"x_max":0,"o":"m 558 1004 l 683 1204 l 556 1204 l 464 1092 l 368 1204 l 242 1204 l 371 1004 z m 874 0 l 685 340 b 869 618 771 371 869 457 b 547 926 869 790 753 926 l 83 926 l 83 0 l 322 0 l 322 311 l 444 311 l 600 0 z m 511 519 l 322 519 l 322 718 l 511 718 b 626 619 574 718 626 682 b 511 519 626 554 574 519 z "},"Ŗ":{"ha":918,"x_min":0,"x_max":0,"o":"m 571 -193 b 463 -68 571 -114 519 -68 b 365 -167 410 -68 365 -112 b 447 -254 365 -219 401 -254 b 471 -250 457 -254 467 -253 b 381 -357 460 -290 415 -337 l 449 -411 b 571 -193 522 -358 571 -281 z m 874 0 l 685 340 b 869 618 771 371 869 457 b 547 926 869 790 753 926 l 83 926 l 83 0 l 322 0 l 322 311 l 444 311 l 600 0 z m 511 519 l 322 519 l 322 718 l 511 718 b 626 619 574 718 626 682 b 511 519 626 554 574 519 z "},"Ś":{"ha":842,"x_min":0,"x_max":0,"o":"m 694 1204 l 506 1204 l 329 1004 l 474 1004 z m 428 -17 b 814 293 676 -17 814 107 b 290 669 814 638 290 551 b 390 736 290 708 321 736 b 661 640 482 736 583 704 l 792 811 b 415 940 693 896 564 940 b 46 646 178 940 46 801 b 571 264 46 289 571 390 b 439 188 571 219 521 188 b 143 310 313 188 210 243 l 17 131 b 428 -17 110 42 240 -17 z "},"Š":{"ha":842,"x_min":0,"x_max":0,"o":"m 507 1004 l 632 1204 l 504 1204 l 413 1092 l 317 1204 l 190 1204 l 319 1004 z m 428 -17 b 814 293 676 -17 814 107 b 290 669 814 638 290 551 b 390 736 290 708 321 736 b 661 640 482 736 583 704 l 792 811 b 415 940 693 896 564 940 b 46 646 178 940 46 801 b 571 264 46 289 571 390 b 439 188 571 219 521 188 b 143 310 313 188 210 243 l 17 131 b 428 -17 110 42 240 -17 z "},"Ŝ":{"ha":842,"x_min":0,"x_max":0,"o":"m 632 1004 l 503 1204 l 315 1204 l 190 1004 l 317 1004 l 408 1117 l 504 1004 z m 428 -17 b 814 293 676 -17 814 107 b 290 669 814 638 290 551 b 390 736 290 708 321 736 b 661 640 482 736 583 704 l 792 811 b 415 940 693 896 564 940 b 46 646 178 940 46 801 b 571 264 46 289 571 390 b 439 188 571 219 521 188 b 143 310 313 188 210 243 l 17 131 b 428 -17 110 42 240 -17 z "},"Ş":{"ha":842,"x_min":0,"x_max":0,"o":"m 407 -275 b 567 -154 494 -275 567 -231 b 472 -54 567 -96 524 -54 b 425 -68 454 -54 439 -60 l 446 -17 b 814 293 683 -10 814 111 b 290 669 814 638 290 551 b 390 736 290 708 321 736 b 661 640 482 736 583 704 l 792 811 b 415 940 693 896 564 940 b 46 646 178 940 46 801 b 571 264 46 289 571 390 b 439 188 571 219 521 188 b 143 310 313 188 210 243 l 17 131 b 350 -12 96 54 203 1 l 318 -97 l 392 -139 b 432 -121 401 -129 415 -121 b 467 -151 454 -121 467 -132 b 401 -190 467 -178 435 -190 b 288 -149 364 -190 324 -175 l 249 -229 b 407 -275 278 -253 338 -275 z "},"Ș":{"ha":842,"x_min":0,"x_max":0,"o":"m 525 -193 b 417 -68 525 -114 474 -68 b 319 -167 364 -68 319 -112 b 401 -254 319 -219 356 -254 b 425 -250 411 -254 421 -253 b 335 -357 414 -290 369 -337 l 403 -411 b 525 -193 476 -358 525 -281 z m 428 -17 b 814 293 676 -17 814 107 b 290 669 814 638 290 551 b 390 736 290 708 321 736 b 661 640 482 736 583 704 l 792 811 b 415 940 693 896 564 940 b 46 646 178 940 46 801 b 571 264 46 289 571 390 b 439 188 571 219 521 188 b 143 310 313 188 210 243 l 17 131 b 428 -17 110 42 240 -17 z "},"Ṡ":{"ha":842,"x_min":0,"x_max":0,"o":"m 428 -17 b 814 293 676 -17 814 107 b 290 669 814 638 290 551 b 390 736 290 708 321 736 b 661 640 482 736 583 704 l 792 811 b 415 940 693 896 564 940 b 46 646 178 940 46 801 b 571 264 46 289 571 390 b 439 188 571 219 521 188 b 143 310 313 188 210 243 l 17 131 b 428 -17 110 42 240 -17 z m 421 976 b 529 1086 481 976 529 1025 b 421 1194 529 1146 481 1194 b 313 1086 361 1194 313 1146 b 421 976 313 1025 361 976 z "},"Ŧ":{"ha":818,"x_min":0,"x_max":0,"o":"m 529 0 l 529 342 l 704 342 l 704 460 l 529 460 l 529 718 l 788 718 l 788 926 l 31 926 l 31 718 l 290 718 l 290 460 l 117 460 l 117 342 l 290 342 l 290 0 z "},"Ť":{"ha":818,"x_min":0,"x_max":0,"o":"m 506 1004 l 631 1204 l 503 1204 l 411 1092 l 315 1204 l 189 1204 l 318 1004 z m 529 0 l 529 718 l 788 718 l 788 926 l 31 926 l 31 718 l 290 718 l 290 0 z "},"Ţ":{"ha":818,"x_min":0,"x_max":0,"o":"m 517 -193 b 408 -68 517 -114 465 -68 b 311 -167 356 -68 311 -112 b 393 -254 311 -219 347 -254 b 417 -250 403 -254 413 -253 b 326 -357 406 -290 361 -337 l 394 -411 b 517 -193 468 -358 517 -281 z m 529 0 l 529 718 l 788 718 l 788 926 l 31 926 l 31 718 l 290 718 l 290 0 z "},"Ț":{"ha":818,"x_min":0,"x_max":0,"o":"m 517 -193 b 408 -68 517 -114 465 -68 b 311 -167 356 -68 311 -112 b 393 -254 311 -219 347 -254 b 417 -250 403 -254 413 -253 b 326 -357 406 -290 361 -337 l 394 -411 b 517 -193 468 -358 517 -281 z m 529 0 l 529 718 l 788 718 l 788 926 l 31 926 l 31 718 l 290 718 l 290 0 z "},"Ṫ":{"ha":818,"x_min":0,"x_max":0,"o":"m 529 0 l 529 718 l 788 718 l 788 926 l 31 926 l 31 718 l 290 718 l 290 0 z m 408 976 b 517 1086 468 976 517 1025 b 408 1194 517 1146 468 1194 b 300 1086 349 1194 300 1146 b 408 976 300 1025 349 976 z "},"Ú":{"ha":1042,"x_min":0,"x_max":0,"o":"m 794 1204 l 606 1204 l 429 1004 l 574 1004 z m 522 -17 b 958 376 818 -17 958 146 l 958 926 l 717 926 l 717 383 b 522 194 717 274 650 194 b 326 383 392 194 326 274 l 326 926 l 83 926 l 83 375 b 522 -17 83 147 224 -17 z "},"Ŭ":{"ha":1042,"x_min":0,"x_max":0,"o":"m 522 -17 b 958 376 818 -17 958 146 l 958 926 l 717 926 l 717 383 b 522 194 717 274 650 194 b 326 383 392 194 326 274 l 326 926 l 83 926 l 83 375 b 522 -17 83 147 224 -17 z m 768 1088 l 676 1163 b 525 1082 642 1111 589 1082 b 372 1163 458 1082 407 1115 l 281 1088 b 525 965 338 1013 426 965 b 768 1088 625 965 713 1013 z "},"Û":{"ha":1042,"x_min":0,"x_max":0,"o":"m 750 1004 l 621 1204 l 433 1204 l 308 1004 l 435 1004 l 526 1117 l 622 1004 z m 522 -17 b 958 376 818 -17 958 146 l 958 926 l 717 926 l 717 383 b 522 194 717 274 650 194 b 326 383 392 194 326 274 l 326 926 l 83 926 l 83 375 b 522 -17 83 147 224 -17 z "},"Ü":{"ha":1042,"x_min":0,"x_max":0,"o":"m 783 1086 b 674 1194 783 1146 735 1194 b 565 1086 614 1194 565 1146 b 674 976 565 1024 614 976 b 783 1086 735 976 783 1024 z m 486 1086 b 376 1194 486 1146 438 1194 b 268 1086 315 1194 268 1146 b 376 976 268 1024 315 976 b 486 1086 438 976 486 1024 z m 522 -17 b 958 376 818 -17 958 146 l 958 926 l 717 926 l 717 383 b 522 194 717 274 650 194 b 326 383 392 194 326 274 l 326 926 l 83 926 l 83 375 b 522 -17 83 147 224 -17 z "},"Ù":{"ha":1042,"x_min":0,"x_max":0,"o":"m 522 -17 b 958 376 818 -17 958 146 l 958 926 l 717 926 l 717 383 b 522 194 717 274 650 194 b 326 383 392 194 326 274 l 326 926 l 83 926 l 83 375 b 522 -17 83 147 224 -17 z m 613 1004 l 436 1204 l 247 1204 l 468 1004 z "},"Ű":{"ha":1042,"x_min":0,"x_max":0,"o":"m 522 -17 b 958 376 818 -17 958 146 l 958 926 l 717 926 l 717 383 b 522 194 717 274 650 194 b 326 383 392 194 326 274 l 326 926 l 83 926 l 83 375 b 522 -17 83 147 224 -17 z m 626 1204 l 463 1204 l 346 1004 l 467 1004 z m 839 1204 l 674 1204 l 558 1004 l 679 1004 z "},"Ū":{"ha":1042,"x_min":0,"x_max":0,"o":"m 522 -17 b 958 376 818 -17 958 146 l 958 926 l 717 926 l 717 383 b 522 194 717 274 650 194 b 326 383 392 194 326 274 l 326 926 l 83 926 l 83 375 b 522 -17 83 147 224 -17 z m 776 1004 l 776 1122 l 272 1122 l 272 1004 z "},"Ų":{"ha":1042,"x_min":0,"x_max":0,"o":"m 678 -131 b 624 -174 668 -156 651 -174 b 578 -121 601 -174 578 -161 b 672 0 578 -76 604 -35 b 958 376 865 46 958 189 l 958 926 l 717 926 l 717 383 b 522 194 717 274 650 194 b 326 383 392 194 326 274 l 326 926 l 83 926 l 83 375 b 521 -17 83 147 222 -15 b 478 -131 493 -50 478 -87 b 624 -258 478 -221 547 -258 b 760 -182 688 -258 732 -228 z "},"Ů":{"ha":1042,"x_min":0,"x_max":0,"o":"m 525 961 b 672 1111 607 961 672 1029 b 525 1263 672 1194 607 1263 b 374 1111 442 1263 374 1194 b 525 961 374 1029 442 961 z m 525 1056 b 468 1111 493 1056 468 1081 b 525 1168 468 1143 493 1168 b 579 1111 556 1168 579 1143 b 525 1056 579 1081 556 1056 z m 522 -17 b 958 376 818 -17 958 146 l 958 926 l 717 926 l 717 383 b 522 194 717 274 650 194 b 326 383 392 194 326 274 l 326 926 l 83 926 l 83 375 b 522 -17 83 147 224 -17 z "},"Ũ":{"ha":1042,"x_min":0,"x_max":0,"o":"m 522 -17 b 958 376 818 -17 958 146 l 958 926 l 717 926 l 717 383 b 522 194 717 274 650 194 b 326 383 392 194 326 274 l 326 926 l 83 926 l 83 375 b 522 -17 83 147 224 -17 z m 599 1001 b 756 1188 701 1001 756 1065 l 647 1188 b 606 1119 647 1140 628 1119 b 449 1196 561 1119 538 1196 b 292 1010 346 1196 292 1133 l 400 1010 b 442 1078 400 1057 419 1078 b 599 1001 486 1078 508 1001 z "},"Ụ":{"ha":1042,"x_min":0,"x_max":0,"o":"m 522 -17 b 958 376 818 -17 958 146 l 958 926 l 717 926 l 717 383 b 522 194 717 274 650 194 b 326 383 392 194 326 274 l 326 926 l 83 926 l 83 375 b 522 -17 83 147 224 -17 z m 525 -282 b 633 -172 585 -282 633 -233 b 525 -64 633 -112 585 -64 b 417 -172 465 -64 417 -112 b 525 -282 417 -233 465 -282 z "},"Ư":{"ha":1042,"x_min":0,"x_max":0,"o":"m 1107 1008 b 1011 1118 1107 1078 1061 1118 b 925 1032 964 1118 925 1079 b 997 954 925 985 957 954 b 1019 957 1007 954 1015 956 b 958 875 1011 928 986 896 l 958 926 l 717 926 l 717 383 b 522 194 717 274 650 194 b 326 383 392 194 326 274 l 326 926 l 83 926 l 83 375 b 522 -17 83 147 224 -17 b 958 376 818 -17 958 146 l 958 789 b 1107 1008 1058 839 1107 929 z "},"Ủ":{"ha":1042,"x_min":0,"x_max":0,"o":"m 522 -17 b 958 376 818 -17 958 146 l 958 926 l 717 926 l 717 383 b 522 194 717 274 650 194 b 326 383 392 194 326 274 l 326 926 l 83 926 l 83 375 b 522 -17 83 147 224 -17 z m 478 1036 b 521 1072 485 1056 499 1072 b 557 1032 539 1072 557 1061 b 532 968 557 1010 550 988 l 618 968 b 638 1036 629 990 638 1010 b 521 1139 638 1108 582 1139 b 406 1060 469 1139 424 1113 z "},"Ứ":{"ha":1042,"x_min":0,"x_max":0,"o":"m 794 1204 l 606 1204 l 429 1004 l 574 1004 z m 1107 1008 b 1011 1118 1107 1078 1061 1118 b 925 1032 964 1118 925 1079 b 997 954 925 985 957 954 b 1019 957 1007 954 1015 956 b 958 875 1011 928 986 896 l 958 926 l 717 926 l 717 383 b 522 194 717 274 650 194 b 326 383 392 194 326 274 l 326 926 l 83 926 l 83 375 b 522 -17 83 147 224 -17 b 958 376 818 -17 958 146 l 958 789 b 1107 1008 1058 839 1107 929 z "},"Ừ":{"ha":1042,"x_min":0,"x_max":0,"o":"m 613 1004 l 436 1204 l 247 1204 l 468 1004 z m 1107 1008 b 1011 1118 1107 1078 1061 1118 b 925 1032 964 1118 925 1079 b 997 954 925 985 957 954 b 1019 957 1007 954 1015 956 b 958 875 1011 928 986 896 l 958 926 l 717 926 l 717 383 b 522 194 717 274 650 194 b 326 383 392 194 326 274 l 326 926 l 83 926 l 83 375 b 522 -17 83 147 224 -17 b 958 376 818 -17 958 146 l 958 789 b 1107 1008 1058 839 1107 929 z "},"Ử":{"ha":1042,"x_min":0,"x_max":0,"o":"m 478 1036 b 521 1072 485 1056 499 1072 b 557 1032 539 1072 557 1061 b 532 968 557 1010 550 988 l 618 968 b 638 1036 629 990 638 1010 b 521 1139 638 1108 582 1139 b 406 1060 469 1139 424 1113 z m 1107 1008 b 1011 1118 1107 1078 1061 1118 b 925 1032 964 1118 925 1079 b 997 954 925 985 957 954 b 1019 957 1007 954 1015 956 b 958 875 1011 928 986 896 l 958 926 l 717 926 l 717 383 b 522 194 717 274 650 194 b 326 383 392 194 326 274 l 326 926 l 83 926 l 83 375 b 522 -17 83 147 224 -17 b 958 376 818 -17 958 146 l 958 789 b 1107 1008 1058 839 1107 929 z "},"Ữ":{"ha":1042,"x_min":0,"x_max":0,"o":"m 1107 1008 b 1011 1118 1107 1078 1061 1118 b 925 1032 964 1118 925 1079 b 997 954 925 985 957 954 b 1019 957 1007 954 1015 956 b 958 875 1011 928 986 896 l 958 926 l 717 926 l 717 383 b 522 194 717 274 650 194 b 326 383 392 194 326 274 l 326 926 l 83 926 l 83 375 b 522 -17 83 147 224 -17 b 958 376 818 -17 958 146 l 958 789 b 1107 1008 1058 839 1107 929 z m 596 1001 b 753 1188 699 1001 753 1065 l 644 1188 b 603 1119 644 1140 625 1119 b 446 1196 558 1119 535 1196 b 289 1010 343 1196 289 1133 l 397 1010 b 439 1078 397 1057 417 1078 b 596 1001 483 1078 506 1001 z "},"Ự":{"ha":1042,"x_min":0,"x_max":0,"o":"m 525 -282 b 633 -172 585 -282 633 -233 b 525 -64 633 -112 585 -64 b 417 -172 465 -64 417 -112 b 525 -282 417 -233 465 -282 z m 1107 1008 b 1011 1118 1107 1078 1061 1118 b 925 1032 964 1118 925 1079 b 997 954 925 985 957 954 b 1019 957 1007 954 1015 956 b 958 875 1011 928 986 896 l 958 926 l 717 926 l 717 383 b 522 194 717 274 650 194 b 326 383 392 194 326 274 l 326 926 l 83 926 l 83 375 b 522 -17 83 147 224 -17 b 958 376 818 -17 958 146 l 958 789 b 1107 1008 1058 839 1107 929 z "},"Ẃ":{"ha":1300,"x_min":0,"x_max":0,"o":"m 924 1204 l 735 1204 l 558 1004 l 703 1004 z m 1043 0 l 1308 926 l 1039 926 l 900 308 l 742 926 l 558 926 l 400 308 l 260 926 l -8 926 l 257 0 l 510 0 l 650 581 l 790 0 z "},"Ŵ":{"ha":1300,"x_min":0,"x_max":0,"o":"m 872 1004 l 743 1204 l 556 1204 l 431 1004 l 557 1004 l 649 1117 l 744 1004 z m 1043 0 l 1308 926 l 1039 926 l 900 308 l 742 926 l 558 926 l 400 308 l 260 926 l -8 926 l 257 0 l 510 0 l 650 581 l 790 0 z "},"Ẅ":{"ha":1300,"x_min":0,"x_max":0,"o":"m 907 1086 b 797 1194 907 1146 858 1194 b 689 1086 738 1194 689 1146 b 797 976 689 1024 738 976 b 907 1086 858 976 907 1024 z m 610 1086 b 500 1194 610 1146 561 1194 b 392 1086 439 1194 392 1146 b 500 976 392 1024 439 976 b 610 1086 561 976 610 1024 z m 1043 0 l 1308 926 l 1039 926 l 900 308 l 742 926 l 558 926 l 400 308 l 260 926 l -8 926 l 257 0 l 510 0 l 650 581 l 790 0 z "},"Ẁ":{"ha":1300,"x_min":0,"x_max":0,"o":"m 1043 0 l 1308 926 l 1039 926 l 900 308 l 742 926 l 558 926 l 400 308 l 260 926 l -8 926 l 257 0 l 510 0 l 650 581 l 790 0 z m 743 1004 l 567 1204 l 378 1204 l 599 1004 z "},"Ý":{"ha":910,"x_min":0,"x_max":0,"o":"m 575 0 l 575 374 l 925 926 l 654 926 l 456 585 l 254 926 l -15 926 l 336 374 l 336 0 z m 728 1204 l 539 1204 l 363 1004 l 507 1004 z "},"Ŷ":{"ha":910,"x_min":0,"x_max":0,"o":"m 679 1004 l 550 1204 l 363 1204 l 238 1004 l 364 1004 l 456 1117 l 551 1004 z m 575 0 l 575 374 l 925 926 l 654 926 l 456 585 l 254 926 l -15 926 l 336 374 l 336 0 z "},"Ÿ":{"ha":910,"x_min":0,"x_max":0,"o":"m 714 1086 b 604 1194 714 1146 665 1194 b 496 1086 544 1194 496 1146 b 604 976 496 1024 544 976 b 714 1086 665 976 714 1024 z m 417 1086 b 307 1194 417 1146 368 1194 b 199 1086 246 1194 199 1146 b 307 976 199 1024 246 976 b 417 1086 368 976 417 1024 z m 575 0 l 575 374 l 925 926 l 654 926 l 456 585 l 254 926 l -15 926 l 336 374 l 336 0 z "},"Ỳ":{"ha":910,"x_min":0,"x_max":0,"o":"m 575 0 l 575 374 l 925 926 l 654 926 l 456 585 l 254 926 l -15 926 l 336 374 l 336 0 z m 549 1004 l 372 1204 l 183 1204 l 404 1004 z "},"Ź":{"ha":828,"x_min":0,"x_max":0,"o":"m 642 1204 l 453 1204 l 276 1004 l 421 1004 z m 774 0 l 774 208 l 368 208 l 764 736 l 764 926 l 54 926 l 54 718 l 449 718 l 54 190 l 54 0 z "},"Ž":{"ha":828,"x_min":0,"x_max":0,"o":"m 508 1004 l 633 1204 l 506 1204 l 414 1092 l 318 1204 l 192 1204 l 321 1004 z m 774 0 l 774 208 l 368 208 l 764 736 l 764 926 l 54 926 l 54 718 l 449 718 l 54 190 l 54 0 z "},"Ż":{"ha":828,"x_min":0,"x_max":0,"o":"m 774 0 l 774 208 l 368 208 l 764 736 l 764 926 l 54 926 l 54 718 l 449 718 l 54 190 l 54 0 z m 404 976 b 513 1086 464 976 513 1025 b 404 1194 513 1146 464 1194 b 296 1086 344 1194 296 1146 b 404 976 296 1025 344 976 z "},"Ð":{"ha":1042,"x_min":0,"x_max":0,"o":"m 506 0 b 1006 464 796 0 1006 176 b 504 926 1006 751 796 926 l 115 926 l 115 551 l 11 551 l 11 369 l 115 369 l 115 0 z m 504 208 l 354 208 l 354 369 l 549 369 l 549 551 l 354 551 l 354 718 l 506 718 b 761 464 675 718 761 607 b 504 208 761 326 667 208 z "},"Þ":{"ha":893,"x_min":0,"x_max":0,"o":"m 322 0 l 322 169 l 547 169 b 869 475 756 169 869 307 b 547 785 869 643 756 785 l 322 785 l 322 926 l 83 926 l 83 0 z m 511 379 l 322 379 l 322 576 l 511 576 b 626 476 574 576 626 539 b 511 379 626 414 574 379 z "},"á":{"ha":765,"x_min":0,"x_max":0,"o":"m 688 0 l 688 419 b 375 688 688 628 536 688 b 71 583 272 688 157 657 l 147 449 b 338 519 201 494 271 519 b 474 422 424 519 474 481 l 474 342 b 265 419 433 392 354 419 b 35 204 163 419 35 367 b 265 -17 35 53 163 -17 b 474 67 351 -17 432 17 l 474 0 z m 354 124 b 247 201 297 124 247 149 b 354 279 247 254 297 279 b 474 232 401 279 451 263 l 474 172 b 354 124 451 140 401 124 z m 649 972 l 460 972 l 283 772 l 428 772 z "},"ă":{"ha":765,"x_min":0,"x_max":0,"o":"m 688 0 l 688 419 b 375 688 688 628 536 688 b 71 583 272 688 157 657 l 147 449 b 338 519 201 494 271 519 b 474 422 424 519 474 481 l 474 342 b 265 419 433 392 354 419 b 35 204 163 419 35 367 b 265 -17 35 53 163 -17 b 474 67 351 -17 432 17 l 474 0 z m 354 124 b 247 201 297 124 247 149 b 354 279 247 254 297 279 b 474 232 401 279 451 263 l 474 172 b 354 124 451 140 401 124 z m 622 856 l 531 931 b 379 850 496 879 443 850 b 226 931 313 850 261 883 l 135 856 b 379 733 192 781 281 733 b 622 856 479 733 567 781 z "},"â":{"ha":765,"x_min":0,"x_max":0,"o":"m 688 0 l 688 419 b 375 688 688 628 536 688 b 71 583 272 688 157 657 l 147 449 b 338 519 201 494 271 519 b 474 422 424 519 474 481 l 474 342 b 265 419 433 392 354 419 b 35 204 163 419 35 367 b 265 -17 35 53 163 -17 b 474 67 351 -17 432 17 l 474 0 z m 354 124 b 247 201 297 124 247 149 b 354 279 247 254 297 279 b 474 232 401 279 451 263 l 474 172 b 354 124 451 140 401 124 z m 603 772 l 474 972 l 286 972 l 161 772 l 288 772 l 379 885 l 475 772 z "},"ä":{"ha":765,"x_min":0,"x_max":0,"o":"m 688 0 l 688 419 b 375 688 688 628 536 688 b 71 583 272 688 157 657 l 147 449 b 338 519 201 494 271 519 b 474 422 424 519 474 481 l 474 342 b 265 419 433 392 354 419 b 35 204 163 419 35 367 b 265 -17 35 53 163 -17 b 474 67 351 -17 432 17 l 474 0 z m 354 124 b 247 201 297 124 247 149 b 354 279 247 254 297 279 b 474 232 401 279 451 263 l 474 172 b 354 124 451 140 401 124 z m 635 854 b 525 963 635 914 586 963 b 417 854 465 963 417 914 b 525 744 417 792 465 744 b 635 854 586 744 635 792 z m 338 854 b 228 963 338 914 289 963 b 119 854 167 963 119 914 b 228 744 119 792 167 744 b 338 854 289 744 338 792 z "},"à":{"ha":765,"x_min":0,"x_max":0,"o":"m 688 0 l 688 419 b 375 688 688 628 536 688 b 71 583 272 688 157 657 l 147 449 b 338 519 201 494 271 519 b 474 422 424 519 474 481 l 474 342 b 265 419 433 392 354 419 b 35 204 163 419 35 367 b 265 -17 35 53 163 -17 b 474 67 351 -17 432 17 l 474 0 z m 354 124 b 247 201 297 124 247 149 b 354 279 247 254 297 279 b 474 232 401 279 451 263 l 474 172 b 354 124 451 140 401 124 z m 468 772 l 292 972 l 103 972 l 324 772 z "},"ā":{"ha":765,"x_min":0,"x_max":0,"o":"m 688 0 l 688 419 b 375 688 688 628 536 688 b 71 583 272 688 157 657 l 147 449 b 338 519 201 494 271 519 b 474 422 424 519 474 481 l 474 342 b 265 419 433 392 354 419 b 35 204 163 419 35 367 b 265 -17 35 53 163 -17 b 474 67 351 -17 432 17 l 474 0 z m 354 124 b 247 201 297 124 247 149 b 354 279 247 254 297 279 b 474 232 401 279 451 263 l 474 172 b 354 124 451 140 401 124 z m 631 772 l 631 890 l 126 890 l 126 772 z "},"ą":{"ha":765,"x_min":0,"x_max":0,"o":"m 693 -131 b 639 -174 683 -156 667 -174 b 593 -121 617 -174 593 -161 b 688 0 593 -76 619 -35 l 688 419 b 375 688 688 628 536 688 b 71 583 272 688 157 657 l 147 449 b 338 519 201 494 271 519 b 474 422 424 519 474 481 l 474 342 b 265 419 433 392 354 419 b 35 204 163 419 35 367 b 265 -17 35 53 163 -17 b 474 67 351 -17 432 17 l 474 0 l 551 0 b 493 -131 513 -36 493 -81 b 639 -258 493 -221 563 -258 b 775 -182 703 -258 747 -228 z m 354 124 b 247 201 297 124 247 149 b 354 279 247 254 297 279 b 474 232 401 279 451 263 l 474 172 b 354 124 451 140 401 124 z "},"å":{"ha":765,"x_min":0,"x_max":0,"o":"m 688 0 l 688 419 b 375 688 688 628 536 688 b 71 583 272 688 157 657 l 147 449 b 338 519 201 494 271 519 b 474 422 424 519 474 481 l 474 342 b 265 419 433 392 354 419 b 35 204 163 419 35 367 b 265 -17 35 53 163 -17 b 474 67 351 -17 432 17 l 474 0 z m 354 124 b 247 201 297 124 247 149 b 354 279 247 254 297 279 b 474 232 401 279 451 263 l 474 172 b 354 124 451 140 401 124 z m 381 729 b 528 879 463 729 528 797 b 381 1031 528 963 463 1031 b 229 879 297 1031 229 963 b 381 729 229 797 297 729 z m 381 824 b 324 879 349 824 324 849 b 381 936 324 911 349 936 b 435 879 411 936 435 911 b 381 824 435 849 411 824 z "},"ã":{"ha":765,"x_min":0,"x_max":0,"o":"m 688 0 l 688 419 b 375 688 688 628 536 688 b 71 583 272 688 157 657 l 147 449 b 338 519 201 494 271 519 b 474 422 424 519 474 481 l 474 342 b 265 419 433 392 354 419 b 35 204 163 419 35 367 b 265 -17 35 53 163 -17 b 474 67 351 -17 432 17 l 474 0 z m 354 124 b 247 201 297 124 247 149 b 354 279 247 254 297 279 b 474 232 401 279 451 263 l 474 172 b 354 124 451 140 401 124 z m 454 769 b 611 956 557 769 611 833 l 503 956 b 461 888 503 908 483 888 b 304 964 417 888 393 964 b 147 778 201 964 147 901 l 256 778 b 297 846 256 825 275 846 b 454 769 342 846 364 769 z "},"ạ":{"ha":765,"x_min":0,"x_max":0,"o":"m 688 0 l 688 419 b 375 688 688 628 536 688 b 71 583 272 688 157 657 l 147 449 b 338 519 201 494 271 519 b 474 422 424 519 474 481 l 474 342 b 265 419 433 392 354 419 b 35 204 163 419 35 367 b 265 -17 35 53 163 -17 b 474 67 351 -17 432 17 l 474 0 z m 354 124 b 247 201 297 124 247 149 b 354 279 247 254 297 279 b 474 232 401 279 451 263 l 474 172 b 354 124 451 140 401 124 z m 383 -282 b 492 -172 443 -282 492 -233 b 383 -64 492 -112 443 -64 b 275 -172 324 -64 275 -112 b 383 -282 275 -233 324 -282 z "},"ả":{"ha":765,"x_min":0,"x_max":0,"o":"m 688 0 l 688 419 b 375 688 688 628 536 688 b 71 583 272 688 157 657 l 147 449 b 338 519 201 494 271 519 b 474 422 424 519 474 481 l 474 342 b 265 419 433 392 354 419 b 35 204 163 419 35 367 b 265 -17 35 53 163 -17 b 474 67 351 -17 432 17 l 474 0 z m 354 124 b 247 201 297 124 247 149 b 354 279 247 254 297 279 b 474 232 401 279 451 263 l 474 172 b 354 124 451 140 401 124 z m 339 800 b 382 836 346 819 360 836 b 418 796 400 836 418 825 b 393 732 418 774 411 751 l 479 732 b 499 800 490 754 499 774 b 382 903 499 872 443 903 b 267 824 331 903 285 876 z "},"ấ":{"ha":765,"x_min":0,"x_max":0,"o":"m 688 0 l 688 419 b 375 688 688 628 536 688 b 71 583 272 688 157 657 l 147 449 b 338 519 201 494 271 519 b 474 422 424 519 474 481 l 474 342 b 265 419 433 392 354 419 b 35 204 163 419 35 367 b 265 -17 35 53 163 -17 b 474 67 351 -17 432 17 l 474 0 z m 354 124 b 247 201 297 124 247 149 b 354 279 247 254 297 279 b 474 232 401 279 451 263 l 474 172 b 354 124 451 140 401 124 z m 603 772 l 474 972 l 286 972 l 161 772 l 288 772 l 379 885 l 475 772 z m 911 1069 l 722 1069 l 546 869 l 690 869 z "},"ậ":{"ha":765,"x_min":0,"x_max":0,"o":"m 688 0 l 688 419 b 375 688 688 628 536 688 b 71 583 272 688 157 657 l 147 449 b 338 519 201 494 271 519 b 474 422 424 519 474 481 l 474 342 b 265 419 433 392 354 419 b 35 204 163 419 35 367 b 265 -17 35 53 163 -17 b 474 67 351 -17 432 17 l 474 0 z m 354 124 b 247 201 297 124 247 149 b 354 279 247 254 297 279 b 474 232 401 279 451 263 l 474 172 b 354 124 451 140 401 124 z m 604 772 l 475 972 l 288 972 l 163 772 l 289 772 l 381 885 l 476 772 z m 383 -282 b 492 -172 443 -282 492 -233 b 383 -64 492 -112 443 -64 b 275 -172 324 -64 275 -112 b 383 -282 275 -233 324 -282 z "},"ầ":{"ha":765,"x_min":0,"x_max":0,"o":"m 688 0 l 688 419 b 375 688 688 628 536 688 b 71 583 272 688 157 657 l 147 449 b 338 519 201 494 271 519 b 474 422 424 519 474 481 l 474 342 b 265 419 433 392 354 419 b 35 204 163 419 35 367 b 265 -17 35 53 163 -17 b 474 67 351 -17 432 17 l 474 0 z m 354 124 b 247 201 297 124 247 149 b 354 279 247 254 297 279 b 474 232 401 279 451 263 l 474 172 b 354 124 451 140 401 124 z m 603 772 l 474 972 l 286 972 l 161 772 l 288 772 l 379 885 l 475 772 z m 211 869 l 35 1069 l -154 1069 l 67 869 z "},"ẩ":{"ha":765,"x_min":0,"x_max":0,"o":"m 688 0 l 688 419 b 375 688 688 628 536 688 b 71 583 272 688 157 657 l 147 449 b 338 519 201 494 271 519 b 474 422 424 519 474 481 l 474 342 b 265 419 433 392 354 419 b 35 204 163 419 35 367 b 265 -17 35 53 163 -17 b 474 67 351 -17 432 17 l 474 0 z m 354 124 b 247 201 297 124 247 149 b 354 279 247 254 297 279 b 474 232 401 279 451 263 l 474 172 b 354 124 451 140 401 124 z m 603 772 l 474 972 l 286 972 l 161 772 l 288 772 l 379 885 l 475 772 z m 492 994 b 535 1031 499 1014 513 1031 b 571 990 553 1031 571 1019 b 546 926 571 968 564 946 l 632 926 b 651 994 643 949 651 968 b 535 1097 651 1067 596 1097 b 419 1018 483 1097 438 1071 z "},"ắ":{"ha":765,"x_min":0,"x_max":0,"o":"m 688 0 l 688 419 b 375 688 688 628 536 688 b 71 583 272 688 157 657 l 147 449 b 338 519 201 494 271 519 b 474 422 424 519 474 481 l 474 342 b 265 419 433 392 354 419 b 35 204 163 419 35 367 b 265 -17 35 53 163 -17 b 474 67 351 -17 432 17 l 474 0 z m 354 124 b 247 201 297 124 247 149 b 354 279 247 254 297 279 b 474 232 401 279 451 263 l 474 172 b 354 124 451 140 401 124 z m 658 1089 l 469 1089 l 293 889 l 438 889 z m 622 836 l 531 911 b 379 831 496 860 443 831 b 226 911 313 831 261 864 l 135 836 b 379 714 192 761 281 714 b 622 836 479 714 567 761 z "},"ẫ":{"ha":765,"x_min":0,"x_max":0,"o":"m 688 0 l 688 419 b 375 688 688 628 536 688 b 71 583 272 688 157 657 l 147 449 b 338 519 201 494 271 519 b 474 422 424 519 474 481 l 474 342 b 265 419 433 392 354 419 b 35 204 163 419 35 367 b 265 -17 35 53 163 -17 b 474 67 351 -17 432 17 l 474 0 z m 354 124 b 247 201 297 124 247 149 b 354 279 247 254 297 279 b 474 232 401 279 451 263 l 474 172 b 354 124 451 140 401 124 z m 603 726 l 474 926 l 286 926 l 161 726 l 288 726 l 379 839 l 475 726 z m 457 947 b 614 1133 560 947 614 1011 l 506 1133 b 464 1065 506 1086 486 1065 b 307 1142 419 1065 396 1142 b 150 956 204 1142 150 1079 l 258 956 b 300 1024 258 1003 278 1024 b 457 947 344 1024 367 947 z "},"ằ":{"ha":765,"x_min":0,"x_max":0,"o":"m 688 0 l 688 419 b 375 688 688 628 536 688 b 71 583 272 688 157 657 l 147 449 b 338 519 201 494 271 519 b 474 422 424 519 474 481 l 474 342 b 265 419 433 392 354 419 b 35 204 163 419 35 367 b 265 -17 35 53 163 -17 b 474 67 351 -17 432 17 l 474 0 z m 354 124 b 247 201 297 124 247 149 b 354 279 247 254 297 279 b 474 232 401 279 451 263 l 474 172 b 354 124 451 140 401 124 z m 467 889 l 290 1089 l 101 1089 l 322 889 z m 622 838 l 531 913 b 379 832 496 861 443 832 b 226 913 313 832 261 865 l 135 838 b 379 715 192 763 281 715 b 622 838 479 715 567 763 z "},"ẳ":{"ha":765,"x_min":0,"x_max":0,"o":"m 688 0 l 688 419 b 375 688 688 628 536 688 b 71 583 272 688 157 657 l 147 449 b 338 519 201 494 271 519 b 474 422 424 519 474 481 l 474 342 b 265 419 433 392 354 419 b 35 204 163 419 35 367 b 265 -17 35 53 163 -17 b 474 67 351 -17 432 17 l 474 0 z m 354 124 b 247 201 297 124 247 149 b 354 279 247 254 297 279 b 474 232 401 279 451 263 l 474 172 b 354 124 451 140 401 124 z m 336 968 b 379 1004 343 988 357 1004 b 415 964 397 1004 415 993 b 390 900 415 942 408 919 l 476 900 b 496 968 488 922 496 942 b 379 1071 496 1040 440 1071 b 264 992 328 1071 282 1044 z m 622 838 l 531 913 b 379 832 496 861 443 832 b 226 913 313 832 261 865 l 135 838 b 379 715 192 763 281 715 b 622 838 479 715 567 763 z "},"ẵ":{"ha":765,"x_min":0,"x_max":0,"o":"m 688 0 l 688 419 b 375 688 688 628 536 688 b 71 583 272 688 157 657 l 147 449 b 338 519 201 494 271 519 b 474 422 424 519 474 481 l 474 342 b 265 419 433 392 354 419 b 35 204 163 419 35 367 b 265 -17 35 53 163 -17 b 474 67 351 -17 432 17 l 474 0 z m 354 124 b 247 201 297 124 247 149 b 354 279 247 254 297 279 b 474 232 401 279 451 263 l 474 172 b 354 124 451 140 401 124 z m 622 838 l 531 913 b 379 832 496 861 443 832 b 226 913 313 832 261 865 l 135 838 b 379 715 192 763 281 715 b 622 838 479 715 567 763 z m 449 915 b 606 1101 551 915 606 979 l 497 1101 b 456 1033 497 1054 478 1033 b 299 1110 411 1033 388 1110 b 142 924 196 1110 142 1047 l 250 924 b 292 992 250 971 269 992 b 449 915 336 992 358 915 z "},"ặ":{"ha":765,"x_min":0,"x_max":0,"o":"m 688 0 l 688 419 b 375 688 688 628 536 688 b 71 583 272 688 157 657 l 147 449 b 338 519 201 494 271 519 b 474 422 424 519 474 481 l 474 342 b 265 419 433 392 354 419 b 35 204 163 419 35 367 b 265 -17 35 53 163 -17 b 474 67 351 -17 432 17 l 474 0 z m 354 124 b 247 201 297 124 247 149 b 354 279 247 254 297 279 b 474 232 401 279 451 263 l 474 172 b 354 124 451 140 401 124 z m 383 -282 b 492 -172 443 -282 492 -233 b 383 -64 492 -112 443 -64 b 275 -172 324 -64 275 -112 b 383 -282 275 -233 324 -282 z m 622 856 l 531 931 b 379 850 496 879 443 850 b 226 931 313 850 261 883 l 135 856 b 379 733 192 781 281 733 b 622 856 479 733 567 781 z "},"æ":{"ha":1194,"x_min":0,"x_max":0,"o":"m 1167 268 l 1167 314 b 843 688 1167 542 1028 688 b 603 589 722 688 653 643 b 378 688 563 651 492 688 b 71 583 274 688 157 657 l 147 447 b 349 519 206 494 278 519 b 493 422 439 519 493 479 l 493 344 b 274 419 447 393 361 419 b 35 201 144 419 35 350 b 322 -17 35 50 167 -17 b 600 90 440 -17 542 29 b 850 -17 663 14 747 -17 b 1115 72 936 -17 1049 13 l 1021 210 b 871 153 986 175 925 153 b 708 268 775 153 724 208 z m 706 407 b 833 522 714 457 749 522 b 963 407 925 522 957 454 z m 493 224 b 351 140 493 186 431 140 b 247 210 300 140 247 161 b 363 279 247 257 301 279 b 493 231 414 279 468 261 z "},"ǽ":{"ha":1194,"x_min":0,"x_max":0,"o":"m 858 972 l 669 972 l 493 772 l 638 772 z m 1167 268 l 1167 314 b 843 688 1167 542 1028 688 b 603 589 722 688 653 643 b 378 688 563 651 492 688 b 71 583 274 688 157 657 l 147 447 b 349 519 206 494 278 519 b 493 422 439 519 493 479 l 493 344 b 274 419 447 393 361 419 b 35 201 144 419 35 350 b 322 -17 35 50 167 -17 b 600 90 440 -17 542 29 b 850 -17 663 14 747 -17 b 1115 72 936 -17 1049 13 l 1021 210 b 871 153 986 175 925 153 b 708 268 775 153 724 208 z m 706 407 b 833 522 714 457 749 522 b 963 407 925 522 957 454 z m 493 224 b 351 140 493 186 431 140 b 247 210 300 140 247 161 b 363 279 247 257 301 279 b 493 231 414 279 468 261 z "},"ḃ":{"ha":821,"x_min":0,"x_max":0,"o":"m 292 232 l 292 438 b 419 499 318 474 374 499 b 568 336 504 499 568 436 b 419 172 568 235 504 172 b 292 232 374 172 318 196 z m 292 0 l 292 78 b 490 -17 347 14 415 -17 b 786 336 656 -17 786 108 b 490 688 786 556 657 688 b 292 592 417 688 344 658 l 292 926 l 78 926 l 78 0 z m 419 976 b 528 1086 479 976 528 1025 b 419 1194 528 1146 479 1194 b 311 1086 360 1194 311 1146 b 419 976 311 1025 360 976 z "},"ć":{"ha":694,"x_min":0,"x_max":0,"o":"m 674 972 l 485 972 l 308 772 l 453 772 z m 400 -17 b 675 107 544 -17 635 49 l 536 238 b 410 172 510 200 467 172 b 253 336 321 172 253 235 b 410 499 253 438 321 499 b 536 435 467 499 510 474 l 675 564 b 400 688 635 624 544 688 b 33 336 190 688 33 546 b 400 -17 33 125 190 -17 z "},"ç":{"ha":694,"x_min":0,"x_max":0,"o":"m 406 -272 b 565 -151 493 -272 565 -228 b 471 -51 565 -93 522 -51 b 424 -65 453 -51 438 -57 l 444 -14 b 675 107 563 -3 639 54 l 536 238 b 410 172 510 200 467 172 b 253 336 321 172 253 235 b 410 499 253 438 321 499 b 536 435 467 499 510 474 l 675 564 b 400 688 635 624 544 688 b 33 336 190 688 33 546 b 347 -14 33 143 164 7 l 317 -94 l 390 -136 b 431 -118 400 -126 414 -118 b 465 -149 453 -118 465 -129 b 400 -187 465 -175 433 -187 b 286 -146 363 -187 322 -172 l 247 -226 b 406 -272 276 -250 336 -272 z "},"ĉ":{"ha":694,"x_min":0,"x_max":0,"o":"m 631 772 l 501 972 l 314 972 l 189 772 l 315 772 l 407 885 l 503 772 z m 400 -17 b 675 107 544 -17 635 49 l 536 238 b 410 172 510 200 467 172 b 253 336 321 172 253 235 b 410 499 253 438 321 499 b 536 435 467 499 510 474 l 675 564 b 400 688 635 624 544 688 b 33 336 190 688 33 546 b 400 -17 33 125 190 -17 z "},"ċ":{"ha":694,"x_min":0,"x_max":0,"o":"m 400 -17 b 675 107 544 -17 635 49 l 536 238 b 410 172 510 200 467 172 b 253 336 321 172 253 235 b 410 499 253 438 321 499 b 536 435 467 499 510 474 l 675 564 b 400 688 635 624 544 688 b 33 336 190 688 33 546 b 400 -17 33 125 190 -17 z m 399 744 b 507 854 458 744 507 793 b 399 963 507 914 458 963 b 290 854 339 963 290 914 b 399 744 290 793 339 744 z "},"č":{"ha":694,"x_min":0,"x_max":0,"o":"m 506 772 l 631 972 l 503 972 l 411 860 l 315 972 l 189 972 l 318 772 z m 400 -17 b 675 107 544 -17 635 49 l 536 238 b 410 172 510 200 467 172 b 253 336 321 172 253 235 b 410 499 253 438 321 499 b 536 435 467 499 510 474 l 675 564 b 400 688 635 624 544 688 b 33 336 190 688 33 546 b 400 -17 33 125 190 -17 z "},"ď":{"ha":990,"x_min":0,"x_max":0,"o":"m 997 818 b 889 943 997 897 946 943 b 792 844 836 943 792 899 b 874 757 792 792 828 757 b 897 761 883 757 893 758 b 807 654 886 721 842 674 l 875 600 b 997 818 949 653 997 731 z m 742 0 l 742 926 l 529 926 l 529 592 b 331 688 475 658 404 688 b 33 336 163 688 33 556 b 331 -17 33 108 165 -17 b 529 78 406 -17 474 14 l 529 0 z m 400 172 b 253 336 315 172 253 236 b 400 499 253 436 315 499 b 529 439 446 499 501 475 l 529 233 b 400 172 501 197 446 172 z "},"đ":{"ha":828,"x_min":0,"x_max":0,"o":"m 742 0 l 742 728 l 817 728 l 817 846 l 742 846 l 742 926 l 529 926 l 529 846 l 335 846 l 335 728 l 529 728 l 529 592 b 331 688 475 658 404 688 b 33 336 163 688 33 556 b 331 -17 33 108 165 -17 b 529 78 406 -17 474 14 l 529 0 z m 400 172 b 253 336 315 172 253 236 b 400 499 253 436 315 499 b 529 439 446 499 501 475 l 529 233 b 400 172 501 197 446 172 z "},"ḋ":{"ha":821,"x_min":0,"x_max":0,"o":"m 742 0 l 742 926 l 529 926 l 529 592 b 331 688 475 658 404 688 b 33 336 163 688 33 556 b 331 -17 33 108 165 -17 b 529 78 406 -17 474 14 l 529 0 z m 400 172 b 253 336 315 172 253 236 b 400 499 253 436 315 499 b 529 439 446 499 501 475 l 529 233 b 400 172 501 197 446 172 z m 403 976 b 511 1086 463 976 511 1025 b 403 1194 511 1146 463 1194 b 294 1086 343 1194 294 1146 b 403 976 294 1025 343 976 z "},"é":{"ha":761,"x_min":0,"x_max":0,"o":"m 663 972 l 474 972 l 297 772 l 442 772 z m 400 -17 b 681 72 503 -17 614 13 l 590 206 b 424 149 553 169 471 149 b 256 268 326 149 268 206 l 733 268 l 733 314 b 390 688 733 542 589 688 b 33 336 181 688 33 531 b 400 -17 33 118 193 -17 z m 529 407 l 253 407 b 390 522 261 456 297 522 b 529 407 489 522 524 454 z "},"ĕ":{"ha":761,"x_min":0,"x_max":0,"o":"m 400 -17 b 681 72 503 -17 614 13 l 590 206 b 424 149 553 169 471 149 b 256 268 326 149 268 206 l 733 268 l 733 314 b 390 688 733 542 589 688 b 33 336 181 688 33 531 b 400 -17 33 118 193 -17 z m 529 407 l 253 407 b 390 522 261 456 297 522 b 529 407 489 522 524 454 z m 636 856 l 544 931 b 393 850 510 879 457 850 b 240 931 326 850 275 883 l 149 856 b 393 733 206 781 294 733 b 636 856 493 733 581 781 z "},"ê":{"ha":761,"x_min":0,"x_max":0,"o":"m 613 772 l 483 972 l 296 972 l 171 772 l 297 772 l 389 885 l 485 772 z m 400 -17 b 681 72 503 -17 614 13 l 590 206 b 424 149 553 169 471 149 b 256 268 326 149 268 206 l 733 268 l 733 314 b 390 688 733 542 589 688 b 33 336 181 688 33 531 b 400 -17 33 118 193 -17 z m 529 407 l 253 407 b 390 522 261 456 297 522 b 529 407 489 522 524 454 z "},"ë":{"ha":761,"x_min":0,"x_max":0,"o":"m 650 854 b 540 963 650 914 601 963 b 432 854 481 963 432 914 b 540 744 432 792 481 744 b 650 854 601 744 650 792 z m 353 854 b 243 963 353 914 304 963 b 135 854 182 963 135 914 b 243 744 135 792 182 744 b 353 854 304 744 353 792 z m 400 -17 b 681 72 503 -17 614 13 l 590 206 b 424 149 553 169 471 149 b 256 268 326 149 268 206 l 733 268 l 733 314 b 390 688 733 542 589 688 b 33 336 181 688 33 531 b 400 -17 33 118 193 -17 z m 529 407 l 253 407 b 390 522 261 456 297 522 b 529 407 489 522 524 454 z "},"ė":{"ha":761,"x_min":0,"x_max":0,"o":"m 400 -17 b 681 72 503 -17 614 13 l 590 206 b 424 149 553 169 471 149 b 256 268 326 149 268 206 l 733 268 l 733 314 b 390 688 733 542 589 688 b 33 336 181 688 33 531 b 400 -17 33 118 193 -17 z m 529 407 l 253 407 b 390 522 261 456 297 522 b 529 407 489 522 524 454 z m 393 744 b 501 854 453 744 501 793 b 393 963 501 914 453 963 b 285 854 333 963 285 914 b 393 744 285 793 333 744 z "},"è":{"ha":761,"x_min":0,"x_max":0,"o":"m 400 -17 b 681 72 503 -17 614 13 l 590 206 b 424 149 553 169 471 149 b 256 268 326 149 268 206 l 733 268 l 733 314 b 390 688 733 542 589 688 b 33 336 181 688 33 531 b 400 -17 33 118 193 -17 z m 529 407 l 253 407 b 390 522 261 456 297 522 b 529 407 489 522 524 454 z m 482 772 l 306 972 l 117 972 l 338 772 z "},"ē":{"ha":761,"x_min":0,"x_max":0,"o":"m 400 -17 b 681 72 503 -17 614 13 l 590 206 b 424 149 553 169 471 149 b 256 268 326 149 268 206 l 733 268 l 733 314 b 390 688 733 542 589 688 b 33 336 181 688 33 531 b 400 -17 33 118 193 -17 z m 529 407 l 253 407 b 390 522 261 456 297 522 b 529 407 489 522 524 454 z m 638 772 l 638 890 l 133 890 l 133 772 z "},"ę":{"ha":761,"x_min":0,"x_max":0,"o":"m 540 -131 b 486 -174 531 -156 514 -174 b 440 -121 464 -174 440 -161 b 535 0 440 -76 467 -35 b 681 72 590 14 643 39 l 590 206 b 424 149 553 169 471 149 b 256 268 326 149 268 206 l 733 268 l 733 314 b 390 688 733 542 589 688 b 33 336 181 688 33 531 b 383 -17 33 124 185 -10 b 340 -131 356 -50 340 -87 b 486 -258 340 -221 410 -258 b 622 -182 550 -258 594 -228 z m 529 407 l 253 407 b 390 522 261 456 297 522 b 529 407 489 522 524 454 z "},"ě":{"ha":761,"x_min":0,"x_max":0,"o":"m 485 772 l 610 972 l 482 972 l 390 860 l 294 972 l 168 972 l 297 772 z m 400 -17 b 681 72 503 -17 614 13 l 590 206 b 424 149 553 169 471 149 b 256 268 326 149 268 206 l 733 268 l 733 314 b 390 688 733 542 589 688 b 33 336 181 688 33 531 b 400 -17 33 118 193 -17 z m 529 407 l 253 407 b 390 522 261 456 297 522 b 529 407 489 522 524 454 z "},"ẹ":{"ha":761,"x_min":0,"x_max":0,"o":"m 400 -17 b 681 72 503 -17 614 13 l 590 206 b 424 149 553 169 471 149 b 256 268 326 149 268 206 l 733 268 l 733 314 b 390 688 733 542 589 688 b 33 336 181 688 33 531 b 400 -17 33 118 193 -17 z m 529 407 l 253 407 b 390 522 261 456 297 522 b 529 407 489 522 524 454 z m 393 -282 b 501 -172 453 -282 501 -233 b 393 -64 501 -112 453 -64 b 285 -172 333 -64 285 -112 b 393 -282 285 -233 333 -282 z "},"ẻ":{"ha":761,"x_min":0,"x_max":0,"o":"m 400 -17 b 681 72 503 -17 614 13 l 590 206 b 424 149 553 169 471 149 b 256 268 326 149 268 206 l 733 268 l 733 314 b 390 688 733 542 589 688 b 33 336 181 688 33 531 b 400 -17 33 118 193 -17 z m 529 407 l 253 407 b 390 522 261 456 297 522 b 529 407 489 522 524 454 z m 339 800 b 382 836 346 819 360 836 b 418 796 400 836 418 825 b 393 732 418 774 411 751 l 479 732 b 499 800 490 754 499 774 b 382 903 499 872 443 903 b 267 824 331 903 285 876 z "},"ẽ":{"ha":761,"x_min":0,"x_max":0,"o":"m 400 -17 b 681 72 503 -17 614 13 l 590 206 b 424 149 553 169 471 149 b 256 268 326 149 268 206 l 733 268 l 733 314 b 390 688 733 542 589 688 b 33 336 181 688 33 531 b 400 -17 33 118 193 -17 z m 529 407 l 253 407 b 390 522 261 456 297 522 b 529 407 489 522 524 454 z m 458 769 b 615 956 561 769 615 833 l 507 956 b 465 888 507 908 488 888 b 308 964 421 888 397 964 b 151 778 206 964 151 901 l 260 778 b 301 846 260 825 279 846 b 458 769 346 846 368 769 z "},"ế":{"ha":761,"x_min":0,"x_max":0,"o":"m 611 772 l 482 972 l 294 972 l 169 772 l 296 772 l 388 885 l 483 772 z m 918 1069 l 729 1069 l 553 869 l 697 869 z m 400 -17 b 681 72 503 -17 614 13 l 590 206 b 424 149 553 169 471 149 b 256 268 326 149 268 206 l 733 268 l 733 314 b 390 688 733 542 589 688 b 33 336 181 688 33 531 b 400 -17 33 118 193 -17 z m 529 407 l 253 407 b 390 522 261 456 297 522 b 529 407 489 522 524 454 z "},"ề":{"ha":761,"x_min":0,"x_max":0,"o":"m 611 772 l 482 972 l 294 972 l 169 772 l 296 772 l 388 885 l 483 772 z m 400 -17 b 681 72 503 -17 614 13 l 590 206 b 424 149 553 169 471 149 b 256 268 326 149 268 206 l 733 268 l 733 314 b 390 688 733 542 589 688 b 33 336 181 688 33 531 b 400 -17 33 118 193 -17 z m 529 407 l 253 407 b 390 522 261 456 297 522 b 529 407 489 522 524 454 z m 219 869 l 43 1069 l -146 1069 l 75 869 z "},"ể":{"ha":761,"x_min":0,"x_max":0,"o":"m 611 772 l 482 972 l 294 972 l 169 772 l 296 772 l 388 885 l 483 772 z m 400 -17 b 681 72 503 -17 614 13 l 590 206 b 424 149 553 169 471 149 b 256 268 326 149 268 206 l 733 268 l 733 314 b 390 688 733 542 589 688 b 33 336 181 688 33 531 b 400 -17 33 118 193 -17 z m 529 407 l 253 407 b 390 522 261 456 297 522 b 529 407 489 522 524 454 z m 500 994 b 543 1031 507 1014 521 1031 b 579 990 561 1031 579 1019 b 554 926 579 968 572 946 l 640 926 b 660 994 651 949 660 968 b 543 1097 660 1067 604 1097 b 428 1018 492 1097 446 1071 z "},"ễ":{"ha":761,"x_min":0,"x_max":0,"o":"m 611 726 l 482 926 l 294 926 l 169 726 l 296 726 l 388 839 l 483 726 z m 400 -17 b 681 72 503 -17 614 13 l 590 206 b 424 149 553 169 471 149 b 256 268 326 149 268 206 l 733 268 l 733 314 b 390 688 733 542 589 688 b 33 336 181 688 33 531 b 400 -17 33 118 193 -17 z m 529 407 l 253 407 b 390 522 261 456 297 522 b 529 407 489 522 524 454 z m 465 947 b 622 1133 568 947 622 1011 l 514 1133 b 472 1065 514 1086 494 1065 b 315 1142 428 1065 404 1142 b 158 956 213 1142 158 1079 l 267 956 b 308 1024 267 1003 286 1024 b 465 947 353 1024 375 947 z "},"ệ":{"ha":761,"x_min":0,"x_max":0,"o":"m 614 772 l 485 972 l 297 972 l 172 772 l 299 772 l 390 885 l 486 772 z m 400 -17 b 681 72 503 -17 614 13 l 590 206 b 424 149 553 169 471 149 b 256 268 326 149 268 206 l 733 268 l 733 314 b 390 688 733 542 589 688 b 33 336 181 688 33 531 b 400 -17 33 118 193 -17 z m 529 407 l 253 407 b 390 522 261 456 297 522 b 529 407 489 522 524 454 z m 393 -282 b 501 -172 453 -282 501 -233 b 393 -64 501 -112 453 -64 b 285 -172 333 -64 285 -112 b 393 -282 285 -233 333 -282 z "},"ﬀ":{"ha":969,"x_min":0,"x_max":0,"o":"m 338 0 l 338 485 l 474 485 l 474 671 l 338 671 l 338 704 b 411 778 338 751 371 778 b 478 751 442 778 461 769 l 557 874 b 364 940 511 921 436 940 b 124 704 224 940 124 846 l 124 671 l 13 671 l 13 485 l 124 485 l 124 0 z m 822 0 l 822 485 l 958 485 l 958 671 l 822 671 l 822 704 b 896 778 822 751 856 778 b 963 751 926 778 946 769 l 1042 874 b 849 940 996 921 921 940 b 608 704 708 940 608 846 l 608 671 l 497 671 l 497 485 l 608 485 l 608 0 z "},"ﬁ":{"ha":854,"x_min":0,"x_max":0,"o":"m 338 0 l 338 485 l 474 485 l 474 671 l 338 671 l 338 704 b 408 778 338 750 367 778 b 465 761 432 778 453 771 l 506 910 b 364 940 472 928 422 940 b 124 704 225 940 124 847 l 124 671 l 13 671 l 13 485 l 124 485 l 124 0 z m 669 731 b 792 854 738 731 792 786 b 669 976 792 922 738 976 b 547 854 601 976 547 922 b 669 731 547 786 601 731 z m 776 0 l 776 671 l 563 671 l 563 0 z "},"":{"ha":854,"x_min":0,"x_max":0,"o":"m 338 0 l 338 485 l 474 485 l 474 671 l 338 671 l 338 704 b 408 778 338 750 367 778 b 465 761 432 778 453 771 l 506 910 b 364 940 472 928 422 940 b 124 704 225 940 124 847 l 124 671 l 13 671 l 13 485 l 124 485 l 124 0 z m 669 731 b 792 854 738 731 792 786 b 669 976 792 922 738 976 b 547 854 601 976 547 922 b 669 731 547 786 601 731 z m 517 -272 b 776 6 696 -272 776 -157 l 776 671 l 563 671 l 563 6 b 481 -97 563 -64 531 -97 b 394 -68 440 -97 421 -89 l 340 -225 b 517 -272 392 -258 424 -272 z "},"ﬂ":{"ha":854,"x_min":0,"x_max":0,"o":"m 338 0 l 338 485 l 474 485 l 474 671 l 338 671 l 338 704 b 408 778 338 750 367 778 b 465 761 432 778 453 771 l 506 910 b 364 940 472 928 422 940 b 124 704 225 940 124 847 l 124 671 l 13 671 l 13 485 l 124 485 l 124 0 z m 776 0 l 776 926 l 563 926 l 563 0 z "},"ﬃ":{"ha":1340,"x_min":0,"x_max":0,"o":"m 822 0 l 822 485 l 958 485 l 958 671 l 822 671 l 822 704 b 893 778 822 750 851 778 b 950 761 917 778 938 771 l 990 910 b 849 940 957 928 907 940 b 608 704 710 940 608 847 l 608 671 l 497 671 l 497 485 l 608 485 l 608 0 z m 1154 731 b 1276 854 1222 731 1276 786 b 1154 976 1276 922 1222 976 b 1032 854 1086 976 1032 922 b 1154 731 1032 786 1086 731 z m 1261 0 l 1261 671 l 1047 671 l 1047 0 z m 338 0 l 338 485 l 474 485 l 474 671 l 338 671 l 338 704 b 411 778 338 751 371 778 b 478 751 442 778 461 769 l 557 874 b 364 940 511 921 436 940 b 124 704 224 940 124 846 l 124 671 l 13 671 l 13 485 l 124 485 l 124 0 z "},"":{"ha":1340,"x_min":0,"x_max":0,"o":"m 822 0 l 822 485 l 958 485 l 958 671 l 822 671 l 822 704 b 893 778 822 750 851 778 b 950 761 917 778 938 771 l 990 910 b 849 940 957 928 907 940 b 608 704 710 940 608 847 l 608 671 l 497 671 l 497 485 l 608 485 l 608 0 z m 1154 731 b 1276 854 1222 731 1276 786 b 1154 976 1276 922 1222 976 b 1032 854 1086 976 1032 922 b 1154 731 1032 786 1086 731 z m 1001 -272 b 1261 6 1181 -272 1261 -157 l 1261 671 l 1047 671 l 1047 6 b 965 -97 1047 -64 1015 -97 b 879 -68 925 -97 906 -89 l 825 -225 b 1001 -272 876 -258 908 -272 z m 338 0 l 338 485 l 474 485 l 474 671 l 338 671 l 338 704 b 411 778 338 751 371 778 b 478 751 442 778 461 769 l 557 874 b 364 940 511 921 436 940 b 124 704 224 940 124 846 l 124 671 l 13 671 l 13 485 l 124 485 l 124 0 z "},"ﬄ":{"ha":1340,"x_min":0,"x_max":0,"o":"m 822 0 l 822 485 l 958 485 l 958 671 l 822 671 l 822 704 b 893 778 822 750 851 778 b 950 761 917 778 938 771 l 990 910 b 849 940 957 928 907 940 b 608 704 710 940 608 847 l 608 671 l 497 671 l 497 485 l 608 485 l 608 0 z m 1261 0 l 1261 926 l 1047 926 l 1047 0 z m 338 0 l 338 485 l 474 485 l 474 671 l 338 671 l 338 704 b 411 778 338 751 371 778 b 478 751 442 778 461 769 l 557 874 b 364 940 511 921 436 940 b 124 704 224 940 124 846 l 124 671 l 13 671 l 13 485 l 124 485 l 124 0 z "},"ḟ":{"ha":485,"x_min":0,"x_max":0,"o":"m 365 976 b 474 1086 425 976 474 1025 b 365 1194 474 1146 425 1194 b 257 1086 306 1194 257 1146 b 365 976 257 1025 306 976 z m 338 0 l 338 485 l 474 485 l 474 671 l 338 671 l 338 704 b 411 778 338 751 371 778 b 478 751 442 778 461 769 l 557 874 b 364 940 511 921 436 940 b 124 704 224 940 124 846 l 124 671 l 13 671 l 13 485 l 124 485 l 124 0 z "},"ĝ":{"ha":819,"x_min":0,"x_max":0,"o":"m 640 772 l 511 972 l 324 972 l 199 772 l 325 772 l 417 885 l 513 772 z m 357 -272 b 740 60 524 -272 740 -214 l 740 671 l 528 671 l 528 592 b 329 688 474 658 404 688 b 33 350 161 688 33 571 b 329 11 33 124 165 11 b 528 108 406 11 472 43 l 528 57 b 357 -97 528 -68 428 -97 b 153 -19 279 -97 204 -75 l 60 -172 b 357 -272 146 -243 242 -272 z m 400 200 b 253 350 315 200 253 251 b 400 499 253 447 315 499 b 528 439 444 499 501 475 l 528 260 b 400 200 501 224 444 200 z "},"ğ":{"ha":819,"x_min":0,"x_max":0,"o":"m 357 -272 b 740 60 524 -272 740 -214 l 740 671 l 528 671 l 528 592 b 329 688 474 658 404 688 b 33 350 161 688 33 571 b 329 11 33 124 165 11 b 528 108 406 11 472 43 l 528 57 b 357 -97 528 -68 428 -97 b 153 -19 279 -97 204 -75 l 60 -172 b 357 -272 146 -243 242 -272 z m 400 200 b 253 350 315 200 253 251 b 400 499 253 447 315 499 b 528 439 444 499 501 475 l 528 260 b 400 200 501 224 444 200 z m 651 856 l 560 931 b 408 850 525 879 472 850 b 256 931 342 850 290 883 l 164 856 b 408 733 221 781 310 733 b 651 856 508 733 596 781 z "},"ġ":{"ha":819,"x_min":0,"x_max":0,"o":"m 357 -272 b 740 60 524 -272 740 -214 l 740 671 l 528 671 l 528 592 b 329 688 474 658 404 688 b 33 350 161 688 33 571 b 329 11 33 124 165 11 b 528 108 406 11 472 43 l 528 57 b 357 -97 528 -68 428 -97 b 153 -19 279 -97 204 -75 l 60 -172 b 357 -272 146 -243 242 -272 z m 400 200 b 253 350 315 200 253 251 b 400 499 253 447 315 499 b 528 439 444 499 501 475 l 528 260 b 400 200 501 224 444 200 z m 419 744 b 528 854 479 744 528 793 b 419 963 528 914 479 963 b 311 854 360 963 311 914 b 419 744 311 793 360 744 z "},"ģ":{"ha":819,"x_min":0,"x_max":0,"o":"m 307 850 b 407 733 307 757 368 733 b 507 832 463 733 507 779 b 413 925 507 886 458 925 b 404 924 408 925 406 924 b 493 1021 411 963 463 1007 l 425 1075 b 307 850 346 1021 307 940 z m 357 -272 b 740 60 524 -272 740 -214 l 740 671 l 528 671 l 528 592 b 329 688 474 658 404 688 b 33 350 161 688 33 571 b 329 11 33 124 165 11 b 528 108 406 11 472 43 l 528 57 b 357 -97 528 -68 428 -97 b 153 -19 279 -97 204 -75 l 60 -172 b 357 -272 146 -243 242 -272 z m 400 200 b 253 350 315 200 253 251 b 400 499 253 447 315 499 b 528 439 444 499 501 475 l 528 260 b 400 200 501 224 444 200 z "},"ħ":{"ha":831,"x_min":0,"x_max":0,"o":"m 493 728 l 493 846 l 299 846 l 299 926 l 85 926 l 85 846 l 11 846 l 11 728 l 85 728 l 85 0 l 299 0 l 299 433 b 428 499 324 464 365 499 b 539 390 496 499 539 472 l 539 0 l 753 0 l 753 478 b 531 688 753 601 683 688 b 299 589 418 688 339 636 l 299 728 z "},"ĥ":{"ha":825,"x_min":0,"x_max":0,"o":"m 635 1004 l 506 1204 l 318 1204 l 193 1004 l 319 1004 l 411 1117 l 507 1004 z m 747 0 l 747 478 b 525 688 747 601 678 688 b 293 589 413 688 333 636 l 293 926 l 79 926 l 79 0 l 293 0 l 293 433 b 422 499 318 464 360 499 b 533 390 490 499 533 472 l 533 0 z "},"ḣ":{"ha":825,"x_min":0,"x_max":0,"o":"m 747 0 l 747 478 b 525 688 747 601 678 688 b 293 589 413 688 333 636 l 293 926 l 79 926 l 79 0 l 293 0 l 293 433 b 422 499 318 464 360 499 b 533 390 490 499 533 472 l 533 0 z m 413 976 b 521 1086 472 976 521 1025 b 413 1194 521 1146 472 1194 b 304 1086 353 1194 304 1146 b 413 976 304 1025 353 976 z "},"ı":{"ha":369,"x_min":0,"x_max":0,"o":"m 292 0 l 292 671 l 78 671 l 78 0 z "},"í":{"ha":369,"x_min":0,"x_max":0,"o":"m 458 972 l 269 972 l 93 772 l 238 772 z m 292 0 l 292 671 l 78 671 l 78 0 z "},"ĭ":{"ha":369,"x_min":0,"x_max":0,"o":"m 292 0 l 292 671 l 78 671 l 78 0 z m 431 856 l 339 931 b 188 850 304 879 251 850 b 35 931 121 850 69 883 l -57 856 b 188 733 0 781 89 733 b 431 856 288 733 375 781 z "},"î":{"ha":369,"x_min":0,"x_max":0,"o":"m 407 772 l 278 972 l 90 972 l -35 772 l 92 772 l 183 885 l 279 772 z m 292 0 l 292 671 l 78 671 l 78 0 z "},"ï":{"ha":369,"x_min":0,"x_max":0,"o":"m 443 854 b 333 963 443 914 394 963 b 225 854 274 963 225 914 b 333 744 225 792 274 744 b 443 854 394 744 443 792 z m 146 854 b 36 963 146 914 97 963 b -72 854 -25 963 -72 914 b 36 744 -72 792 -25 744 b 146 854 97 744 146 792 z m 292 0 l 292 671 l 78 671 l 78 0 z "},"ì":{"ha":369,"x_min":0,"x_max":0,"o":"m 292 0 l 292 671 l 78 671 l 78 0 z m 278 772 l 101 972 l -87 972 l 133 772 z "},"ī":{"ha":369,"x_min":0,"x_max":0,"o":"m 292 0 l 292 671 l 78 671 l 78 0 z m 438 772 l 438 890 l -67 890 l -67 772 z "},"į":{"ha":369,"x_min":0,"x_max":0,"o":"m 297 -131 b 243 -174 288 -156 271 -174 b 197 -121 221 -174 197 -161 b 292 0 197 -76 224 -35 l 292 671 l 78 671 l 78 0 l 156 0 b 97 -131 117 -36 97 -81 b 243 -258 97 -221 167 -258 b 379 -182 307 -258 351 -228 z m 185 731 b 307 854 253 731 307 786 b 185 976 307 922 253 976 b 63 854 117 976 63 922 b 185 731 63 786 117 731 z "},"ĩ":{"ha":369,"x_min":0,"x_max":0,"o":"m 292 0 l 292 671 l 78 671 l 78 0 z m 261 769 b 418 956 364 769 418 833 l 310 956 b 268 888 310 908 290 888 b 111 964 224 888 200 964 b -46 778 8 964 -46 901 l 63 778 b 104 846 63 825 82 846 b 261 769 149 846 171 769 z "},"ỉ":{"ha":369,"x_min":0,"x_max":0,"o":"m 292 0 l 292 671 l 78 671 l 78 0 z m 142 800 b 185 836 149 819 163 836 b 221 796 203 836 221 825 b 196 732 221 774 214 751 l 282 732 b 301 800 293 754 301 774 b 185 903 301 872 246 903 b 69 824 133 903 88 876 z "},"ị":{"ha":369,"x_min":0,"x_max":0,"o":"m 185 731 b 307 854 253 731 307 786 b 185 976 307 922 253 976 b 63 854 117 976 63 922 b 185 731 63 786 117 731 z m 292 0 l 292 671 l 78 671 l 78 0 z m 188 -282 b 296 -172 247 -282 296 -233 b 188 -64 296 -112 247 -64 b 79 -172 128 -64 79 -112 b 188 -282 79 -233 128 -282 z "},"ĳ":{"ha":740,"x_min":0,"x_max":0,"o":"m 185 731 b 307 854 253 731 307 786 b 185 976 307 922 253 976 b 63 854 117 976 63 922 b 185 731 63 786 117 731 z m 292 0 l 292 671 l 78 671 l 78 0 z m 554 731 b 676 854 622 731 676 786 b 554 976 676 922 622 976 b 432 854 486 976 432 922 b 554 731 432 786 486 731 z m 401 -272 b 661 6 581 -272 661 -157 l 661 671 l 447 671 l 447 6 b 365 -97 447 -64 415 -97 b 279 -68 325 -97 306 -89 l 225 -225 b 401 -272 276 -258 308 -272 z "},"ȷ":{"ha":369,"x_min":0,"x_max":0,"o":"m 32 -272 b 292 6 211 -272 292 -157 l 292 671 l 78 671 l 78 6 b -4 -87 78 -53 46 -87 b -90 -57 -44 -87 -64 -78 l -144 -225 b 32 -272 -93 -258 -61 -272 z "},"ĵ":{"ha":369,"x_min":0,"x_max":0,"o":"m 410 772 l 281 972 l 93 972 l -32 772 l 94 772 l 186 885 l 282 772 z m 32 -272 b 292 6 211 -272 292 -157 l 292 671 l 78 671 l 78 6 b -4 -87 78 -53 46 -87 b -90 -57 -44 -87 -64 -78 l -144 -225 b 32 -272 -93 -258 -61 -272 z "},"ķ":{"ha":758,"x_min":0,"x_max":0,"o":"m 488 -193 b 379 -68 488 -114 436 -68 b 282 -167 326 -68 282 -112 b 364 -254 282 -219 318 -254 b 388 -250 374 -254 383 -253 b 297 -357 376 -290 332 -337 l 365 -411 b 488 -193 439 -358 488 -281 z m 767 0 l 507 365 l 754 671 l 496 671 l 292 403 l 292 926 l 78 926 l 78 0 l 292 0 l 292 161 l 356 238 l 503 0 z "},"ĸ":{"ha":758,"x_min":0,"x_max":0,"o":"m 767 0 l 507 365 l 754 671 l 496 671 l 292 403 l 292 671 l 78 671 l 78 0 l 292 0 l 292 161 l 356 238 l 503 0 z "},"ĺ":{"ha":369,"x_min":0,"x_max":0,"o":"m 458 1204 l 269 1204 l 93 1004 l 238 1004 z m 292 0 l 292 926 l 78 926 l 78 0 z "},"ļ":{"ha":369,"x_min":0,"x_max":0,"o":"m 294 -193 b 186 -68 294 -114 243 -68 b 89 -167 133 -68 89 -112 b 171 -254 89 -219 125 -254 b 194 -250 181 -254 190 -253 b 104 -357 183 -290 139 -337 l 172 -411 b 294 -193 246 -358 294 -281 z m 292 0 l 292 926 l 78 926 l 78 0 z "},"ľ":{"ha":536,"x_min":0,"x_max":0,"o":"m 560 821 b 451 946 560 900 508 946 b 354 847 399 946 354 901 b 436 760 354 794 390 760 b 460 764 446 760 456 761 b 369 657 449 724 404 676 l 438 603 b 560 821 511 656 560 733 z m 292 0 l 292 926 l 78 926 l 78 0 z "},"ŀ":{"ha":588,"x_min":0,"x_max":0,"o":"m 292 0 l 292 926 l 78 926 l 78 0 z m 608 339 b 478 469 608 410 549 469 b 349 339 407 469 349 410 b 478 210 349 269 407 210 b 608 339 549 210 608 269 z "},"ł":{"ha":443,"x_min":0,"x_max":0,"o":"m 11 267 l 114 325 l 114 0 l 328 0 l 328 449 l 432 510 l 432 661 l 328 600 l 328 926 l 114 926 l 114 476 l 11 418 z "},"ń":{"ha":824,"x_min":0,"x_max":0,"o":"m 685 972 l 496 972 l 319 772 l 464 772 z m 746 0 l 746 475 b 524 688 746 599 676 688 b 292 589 411 688 332 636 l 292 671 l 78 671 l 78 0 l 292 0 l 292 433 b 422 499 317 464 358 499 b 532 388 489 499 532 469 l 532 0 z "},"ŉ":{"ha":824,"x_min":0,"x_max":0,"o":"m 253 951 b 144 1076 253 1031 201 1076 b 47 978 92 1076 47 1032 b 129 890 47 925 83 890 b 153 894 139 890 149 892 b 63 788 142 854 97 807 l 131 733 b 253 951 204 786 253 864 z m 746 0 l 746 475 b 524 688 746 599 676 688 b 292 589 411 688 332 636 l 292 671 l 78 671 l 78 0 l 292 0 l 292 433 b 422 499 317 464 358 499 b 532 388 489 499 532 469 l 532 0 z "},"ň":{"ha":824,"x_min":0,"x_max":0,"o":"m 508 772 l 633 972 l 506 972 l 414 860 l 318 972 l 192 972 l 321 772 z m 746 0 l 746 475 b 524 688 746 599 676 688 b 292 589 411 688 332 636 l 292 671 l 78 671 l 78 0 l 292 0 l 292 433 b 422 499 317 464 358 499 b 532 388 489 499 532 469 l 532 0 z "},"ņ":{"ha":824,"x_min":0,"x_max":0,"o":"m 518 -193 b 410 -68 518 -114 467 -68 b 313 -167 357 -68 313 -112 b 394 -254 313 -219 349 -254 b 418 -250 404 -254 414 -253 b 328 -357 407 -290 363 -337 l 396 -411 b 518 -193 469 -358 518 -281 z m 746 0 l 746 475 b 524 688 746 599 676 688 b 292 589 411 688 332 636 l 292 671 l 78 671 l 78 0 l 292 0 l 292 433 b 422 499 317 464 358 499 b 532 388 489 499 532 469 l 532 0 z "},"ñ":{"ha":824,"x_min":0,"x_max":0,"o":"m 746 0 l 746 475 b 524 688 746 599 676 688 b 292 589 411 688 332 636 l 292 671 l 78 671 l 78 0 l 292 0 l 292 433 b 422 499 317 464 358 499 b 532 388 489 499 532 469 l 532 0 z m 489 769 b 646 956 592 769 646 833 l 538 956 b 496 888 538 908 518 888 b 339 964 451 888 428 964 b 182 778 236 964 182 901 l 290 778 b 332 846 290 825 310 846 b 489 769 376 846 399 769 z "},"ŋ":{"ha":824,"x_min":0,"x_max":0,"o":"m 746 475 b 524 688 746 599 676 688 b 292 589 411 688 332 636 l 292 671 l 78 671 l 78 0 l 292 0 l 292 433 b 422 499 317 464 358 499 b 532 388 489 499 532 469 l 532 6 b 450 -83 532 -50 500 -83 b 364 -53 410 -83 390 -75 l 310 -225 b 486 -272 361 -258 393 -272 b 746 6 665 -272 746 -157 z "},"ó":{"ha":800,"x_min":0,"x_max":0,"o":"m 672 972 l 483 972 l 307 772 l 451 772 z m 399 -17 b 765 336 629 -17 765 147 b 399 688 765 525 629 688 b 33 336 171 688 33 525 b 399 -17 33 147 171 -17 z m 399 172 b 254 336 306 172 254 246 b 399 499 254 425 306 499 b 546 336 493 499 546 425 b 399 172 546 246 493 172 z "},"ŏ":{"ha":800,"x_min":0,"x_max":0,"o":"m 399 -17 b 765 336 629 -17 765 147 b 399 688 765 525 629 688 b 33 336 171 688 33 525 b 399 -17 33 147 171 -17 z m 399 172 b 254 336 306 172 254 246 b 399 499 254 425 306 499 b 546 336 493 499 546 425 b 399 172 546 246 493 172 z m 642 856 l 550 931 b 399 850 515 879 463 850 b 246 931 332 850 281 883 l 154 856 b 399 733 211 781 300 733 b 642 856 499 733 586 781 z "},"ô":{"ha":800,"x_min":0,"x_max":0,"o":"m 622 772 l 493 972 l 306 972 l 181 772 l 307 772 l 399 885 l 494 772 z m 399 -17 b 765 336 629 -17 765 147 b 399 688 765 525 629 688 b 33 336 171 688 33 525 b 399 -17 33 147 171 -17 z m 399 172 b 254 336 306 172 254 246 b 399 499 254 425 306 499 b 546 336 493 499 546 425 b 399 172 546 246 493 172 z "},"ö":{"ha":800,"x_min":0,"x_max":0,"o":"m 657 854 b 547 963 657 914 608 963 b 439 854 488 963 439 914 b 547 744 439 792 488 744 b 657 854 608 744 657 792 z m 360 854 b 250 963 360 914 311 963 b 142 854 189 963 142 914 b 250 744 142 792 189 744 b 360 854 311 744 360 792 z m 399 -17 b 765 336 629 -17 765 147 b 399 688 765 525 629 688 b 33 336 171 688 33 525 b 399 -17 33 147 171 -17 z m 399 172 b 254 336 306 172 254 246 b 399 499 254 425 306 499 b 546 336 493 499 546 425 b 399 172 546 246 493 172 z "},"ò":{"ha":800,"x_min":0,"x_max":0,"o":"m 399 -17 b 765 336 629 -17 765 147 b 399 688 765 525 629 688 b 33 336 171 688 33 525 b 399 -17 33 147 171 -17 z m 399 172 b 254 336 306 172 254 246 b 399 499 254 425 306 499 b 546 336 493 499 546 425 b 399 172 546 246 493 172 z m 492 772 l 315 972 l 126 972 l 347 772 z "},"ő":{"ha":800,"x_min":0,"x_max":0,"o":"m 501 972 l 338 972 l 221 772 l 342 772 z m 714 972 l 549 972 l 433 772 l 554 772 z m 399 -17 b 765 336 629 -17 765 147 b 399 688 765 525 629 688 b 33 336 171 688 33 525 b 399 -17 33 147 171 -17 z m 399 172 b 254 336 306 172 254 246 b 399 499 254 425 306 499 b 546 336 493 499 546 425 b 399 172 546 246 493 172 z "},"ō":{"ha":800,"x_min":0,"x_max":0,"o":"m 651 772 l 651 890 l 147 890 l 147 772 z m 399 -17 b 765 336 629 -17 765 147 b 399 688 765 525 629 688 b 33 336 171 688 33 525 b 399 -17 33 147 171 -17 z m 399 172 b 254 336 306 172 254 246 b 399 499 254 425 306 499 b 546 336 493 499 546 425 b 399 172 546 246 493 172 z "},"ø":{"ha":800,"x_min":0,"x_max":0,"o":"m 165 0 l 197 36 b 399 -17 251 3 319 -17 b 765 336 629 -17 765 147 b 674 576 765 428 733 513 l 757 671 l 629 671 l 599 636 b 399 688 544 668 476 688 b 33 336 171 688 33 525 b 124 96 33 244 65 160 l 40 0 z m 399 172 b 331 188 372 172 350 176 l 531 414 b 546 336 540 390 546 364 b 399 172 546 246 493 172 z m 254 336 b 399 499 254 425 306 499 b 465 483 424 499 446 493 l 268 260 b 254 336 258 282 254 308 z "},"ǿ":{"ha":800,"x_min":0,"x_max":0,"o":"m 672 972 l 483 972 l 307 772 l 451 772 z m 165 0 l 197 36 b 399 -17 251 3 319 -17 b 765 336 629 -17 765 147 b 674 576 765 428 733 513 l 757 671 l 629 671 l 599 636 b 399 688 544 668 476 688 b 33 336 171 688 33 525 b 124 96 33 244 65 160 l 40 0 z m 399 172 b 331 188 372 172 350 176 l 531 414 b 546 336 540 390 546 364 b 399 172 546 246 493 172 z m 254 336 b 399 499 254 425 306 499 b 465 483 424 499 446 493 l 268 260 b 254 336 258 282 254 308 z "},"õ":{"ha":800,"x_min":0,"x_max":0,"o":"m 399 -17 b 765 336 629 -17 765 147 b 399 688 765 525 629 688 b 33 336 171 688 33 525 b 399 -17 33 147 171 -17 z m 399 172 b 254 336 306 172 254 246 b 399 499 254 425 306 499 b 546 336 493 499 546 425 b 399 172 546 246 493 172 z m 475 769 b 632 956 578 769 632 833 l 524 956 b 482 888 524 908 504 888 b 325 964 438 888 414 964 b 168 778 222 964 168 901 l 276 778 b 318 846 276 825 296 846 b 475 769 363 846 385 769 z "},"ọ":{"ha":800,"x_min":0,"x_max":0,"o":"m 399 -17 b 765 336 629 -17 765 147 b 399 688 765 525 629 688 b 33 336 171 688 33 525 b 399 -17 33 147 171 -17 z m 399 172 b 254 336 306 172 254 246 b 399 499 254 425 306 499 b 546 336 493 499 546 425 b 399 172 546 246 493 172 z m 401 -282 b 510 -172 461 -282 510 -233 b 401 -64 510 -112 461 -64 b 293 -172 342 -64 293 -112 b 401 -282 293 -233 342 -282 z "},"ỏ":{"ha":800,"x_min":0,"x_max":0,"o":"m 399 -17 b 765 336 629 -17 765 147 b 399 688 765 525 629 688 b 33 336 171 688 33 525 b 399 -17 33 147 171 -17 z m 399 172 b 254 336 306 172 254 246 b 399 499 254 425 306 499 b 546 336 493 499 546 425 b 399 172 546 246 493 172 z m 357 800 b 400 836 364 819 378 836 b 436 796 418 836 436 825 b 411 732 436 774 429 751 l 497 732 b 517 800 508 754 517 774 b 400 903 517 872 461 903 b 285 824 349 903 303 876 z "},"ố":{"ha":800,"x_min":0,"x_max":0,"o":"m 621 772 l 492 972 l 304 972 l 179 772 l 306 772 l 397 885 l 493 772 z m 929 1069 l 740 1069 l 564 869 l 708 869 z m 399 -17 b 765 336 629 -17 765 147 b 399 688 765 525 629 688 b 33 336 171 688 33 525 b 399 -17 33 147 171 -17 z m 399 172 b 254 336 306 172 254 246 b 399 499 254 425 306 499 b 546 336 493 499 546 425 b 399 172 546 246 493 172 z "},"ồ":{"ha":800,"x_min":0,"x_max":0,"o":"m 621 772 l 492 972 l 304 972 l 179 772 l 306 772 l 397 885 l 493 772 z m 399 -17 b 765 336 629 -17 765 147 b 399 688 765 525 629 688 b 33 336 171 688 33 525 b 399 -17 33 147 171 -17 z m 399 172 b 254 336 306 172 254 246 b 399 499 254 425 306 499 b 546 336 493 499 546 425 b 399 172 546 246 493 172 z m 229 869 l 53 1069 l -136 1069 l 85 869 z "},"ổ":{"ha":800,"x_min":0,"x_max":0,"o":"m 619 772 l 490 972 l 303 972 l 178 772 l 304 772 l 396 885 l 492 772 z m 399 -17 b 765 336 629 -17 765 147 b 399 688 765 525 629 688 b 33 336 171 688 33 525 b 399 -17 33 147 171 -17 z m 399 172 b 254 336 306 172 254 246 b 399 499 254 425 306 499 b 546 336 493 499 546 425 b 399 172 546 246 493 172 z m 510 994 b 553 1031 517 1014 531 1031 b 589 990 571 1031 589 1019 b 564 926 589 968 582 946 l 650 926 b 669 994 661 949 669 968 b 553 1097 669 1067 614 1097 b 438 1018 501 1097 456 1071 z "},"ỗ":{"ha":800,"x_min":0,"x_max":0,"o":"m 619 726 l 490 926 l 303 926 l 178 726 l 304 726 l 396 839 l 492 726 z m 399 -17 b 765 336 629 -17 765 147 b 399 688 765 525 629 688 b 33 336 171 688 33 525 b 399 -17 33 147 171 -17 z m 399 172 b 254 336 306 172 254 246 b 399 499 254 425 306 499 b 546 336 493 499 546 425 b 399 172 546 246 493 172 z m 475 947 b 632 1133 578 947 632 1011 l 524 1133 b 482 1065 524 1086 504 1065 b 325 1142 438 1065 414 1142 b 168 956 222 1142 168 1079 l 276 956 b 318 1024 276 1003 296 1024 b 475 947 363 1024 385 947 z "},"ộ":{"ha":800,"x_min":0,"x_max":0,"o":"m 621 772 l 492 972 l 304 972 l 179 772 l 306 772 l 397 885 l 493 772 z m 399 -17 b 765 336 629 -17 765 147 b 399 688 765 525 629 688 b 33 336 171 688 33 525 b 399 -17 33 147 171 -17 z m 399 172 b 254 336 306 172 254 246 b 399 499 254 425 306 499 b 546 336 493 499 546 425 b 399 172 546 246 493 172 z m 401 -282 b 510 -172 461 -282 510 -233 b 401 -64 510 -112 461 -64 b 293 -172 342 -64 293 -112 b 401 -282 293 -233 342 -282 z "},"ơ":{"ha":800,"x_min":0,"x_max":0,"o":"m 783 740 b 688 850 783 810 739 850 b 601 764 640 850 601 811 b 675 686 601 717 633 686 b 696 690 683 686 693 688 b 638 610 688 663 664 631 b 399 688 578 657 496 688 b 33 336 171 688 33 525 b 399 -17 33 147 171 -17 b 765 336 629 -17 765 147 b 690 557 765 418 739 496 b 783 740 747 603 783 668 z m 399 172 b 254 336 306 172 254 246 b 399 499 254 425 306 499 b 546 336 493 499 546 425 b 399 172 546 246 493 172 z "},"ớ":{"ha":800,"x_min":0,"x_max":0,"o":"m 672 972 l 483 972 l 307 772 l 451 772 z m 783 740 b 688 850 783 810 739 850 b 601 764 640 850 601 811 b 675 686 601 717 633 686 b 696 690 683 686 693 688 b 638 610 688 663 664 631 b 399 688 578 657 496 688 b 33 336 171 688 33 525 b 399 -17 33 147 171 -17 b 765 336 629 -17 765 147 b 690 557 765 418 739 496 b 783 740 747 603 783 668 z m 399 172 b 254 336 306 172 254 246 b 399 499 254 425 306 499 b 546 336 493 499 546 425 b 399 172 546 246 493 172 z "},"ờ":{"ha":800,"x_min":0,"x_max":0,"o":"m 783 740 b 688 850 783 810 739 850 b 601 764 640 850 601 811 b 675 686 601 717 633 686 b 696 690 683 686 693 688 b 638 610 688 663 664 631 b 399 688 578 657 496 688 b 33 336 171 688 33 525 b 399 -17 33 147 171 -17 b 765 336 629 -17 765 147 b 690 557 765 418 739 496 b 783 740 747 603 783 668 z m 399 172 b 254 336 306 172 254 246 b 399 499 254 425 306 499 b 546 336 493 499 546 425 b 399 172 546 246 493 172 z m 492 772 l 315 972 l 126 972 l 347 772 z "},"ở":{"ha":800,"x_min":0,"x_max":0,"o":"m 783 740 b 688 850 783 810 739 850 b 601 764 640 850 601 811 b 675 686 601 717 633 686 b 696 690 683 686 693 688 b 638 610 688 663 664 631 b 399 688 578 657 496 688 b 33 336 171 688 33 525 b 399 -17 33 147 171 -17 b 765 336 629 -17 765 147 b 690 557 765 418 739 496 b 783 740 747 603 783 668 z m 399 172 b 254 336 306 172 254 246 b 399 499 254 425 306 499 b 546 336 493 499 546 425 b 399 172 546 246 493 172 z m 356 800 b 399 836 363 819 376 836 b 435 796 417 836 435 825 b 410 732 435 774 428 751 l 496 732 b 515 800 507 754 515 774 b 399 903 515 872 460 903 b 283 824 347 903 301 876 z "},"ỡ":{"ha":800,"x_min":0,"x_max":0,"o":"m 783 740 b 688 850 783 810 739 850 b 601 764 640 850 601 811 b 675 686 601 717 633 686 b 696 690 683 686 693 688 b 638 610 688 663 664 631 b 399 688 578 657 496 688 b 33 336 171 688 33 525 b 399 -17 33 147 171 -17 b 765 336 629 -17 765 147 b 690 557 765 418 739 496 b 783 740 747 603 783 668 z m 399 172 b 254 336 306 172 254 246 b 399 499 254 425 306 499 b 546 336 493 499 546 425 b 399 172 546 246 493 172 z m 457 769 b 614 956 560 769 614 833 l 506 956 b 464 888 506 908 486 888 b 307 964 419 888 396 964 b 150 778 204 964 150 901 l 258 778 b 300 846 258 825 278 846 b 457 769 344 846 367 769 z "},"ợ":{"ha":800,"x_min":0,"x_max":0,"o":"m 783 740 b 688 850 783 810 739 850 b 601 764 640 850 601 811 b 675 686 601 717 633 686 b 696 690 683 686 693 688 b 638 610 688 663 664 631 b 399 688 578 657 496 688 b 33 336 171 688 33 525 b 399 -17 33 147 171 -17 b 765 336 629 -17 765 147 b 690 557 765 418 739 496 b 783 740 747 603 783 668 z m 399 172 b 254 336 306 172 254 246 b 399 499 254 425 306 499 b 546 336 493 499 546 425 b 399 172 546 246 493 172 z m 401 -282 b 510 -172 461 -282 510 -233 b 401 -64 510 -112 461 -64 b 293 -172 342 -64 293 -112 b 401 -282 293 -233 342 -282 z "},"œ":{"ha":1272,"x_min":0,"x_max":0,"o":"m 1244 268 l 1244 314 b 903 688 1244 542 1101 688 b 654 560 776 688 701 619 b 399 688 601 618 526 688 b 33 336 171 688 33 525 b 399 -17 33 147 171 -17 b 653 110 526 -17 603 50 b 911 -17 706 50 776 -17 b 1193 72 1014 -17 1125 13 l 1099 204 b 940 149 1060 169 997 149 b 767 268 838 149 783 208 z m 765 407 b 901 524 772 457 808 524 b 1040 407 1000 524 1035 454 z m 546 336 b 399 171 546 235 486 171 b 254 336 314 171 254 235 b 399 499 254 436 314 499 b 546 336 486 499 546 436 z "},"ṗ":{"ha":818,"x_min":0,"x_max":0,"o":"m 490 -17 b 785 336 658 -17 785 108 b 490 688 785 563 658 688 b 292 593 414 688 344 657 l 292 671 l 78 671 l 78 -256 l 292 -256 l 292 79 b 490 -17 347 13 415 -17 z m 419 172 b 292 233 374 172 318 199 l 292 438 b 419 499 318 474 374 499 b 567 336 503 499 567 436 b 419 172 567 235 503 172 z m 419 744 b 528 854 479 744 528 793 b 419 963 528 914 479 963 b 311 854 360 963 311 914 b 419 744 311 793 360 744 z "},"ŕ":{"ha":521,"x_min":0,"x_max":0,"o":"m 561 972 l 372 972 l 196 772 l 340 772 z m 292 0 l 292 428 b 449 489 319 465 393 489 b 501 483 471 489 489 486 l 501 689 b 292 589 421 689 336 643 l 292 671 l 78 671 l 78 0 z "},"ř":{"ha":521,"x_min":0,"x_max":0,"o":"m 385 772 l 510 972 l 382 972 l 290 860 l 194 972 l 68 972 l 197 772 z m 292 0 l 292 428 b 449 489 319 465 393 489 b 501 483 471 489 489 486 l 501 689 b 292 589 421 689 336 643 l 292 671 l 78 671 l 78 0 z "},"ŗ":{"ha":521,"x_min":0,"x_max":0,"o":"m 368 -193 b 260 -68 368 -114 317 -68 b 163 -167 207 -68 163 -112 b 244 -254 163 -219 199 -254 b 268 -250 254 -254 264 -253 b 178 -357 257 -290 213 -337 l 246 -411 b 368 -193 319 -358 368 -281 z m 292 0 l 292 428 b 449 489 319 465 393 489 b 501 483 471 489 489 486 l 501 689 b 292 589 421 689 336 643 l 292 671 l 78 671 l 78 0 z "},"ś":{"ha":672,"x_min":0,"x_max":0,"o":"m 608 972 l 419 972 l 243 772 l 388 772 z m 335 -17 b 640 206 528 -17 640 78 b 250 482 640 481 250 404 b 335 531 250 510 285 531 b 532 457 415 531 492 496 l 614 599 b 333 688 542 651 446 688 b 46 467 147 688 46 585 b 436 196 46 197 436 283 b 346 144 436 165 410 144 b 110 233 267 144 160 189 l 21 86 b 335 -17 92 24 215 -17 z "},"š":{"ha":672,"x_min":0,"x_max":0,"o":"m 432 772 l 557 972 l 429 972 l 338 860 l 242 972 l 115 972 l 244 772 z m 335 -17 b 640 206 528 -17 640 78 b 250 482 640 481 250 404 b 335 531 250 510 285 531 b 532 457 415 531 492 496 l 614 599 b 333 688 542 651 446 688 b 46 467 147 688 46 585 b 436 196 46 197 436 283 b 346 144 436 165 410 144 b 110 233 267 144 160 189 l 21 86 b 335 -17 92 24 215 -17 z "},"ŝ":{"ha":672,"x_min":0,"x_max":0,"o":"m 557 772 l 428 972 l 240 972 l 115 772 l 242 772 l 333 885 l 429 772 z m 335 -17 b 640 206 528 -17 640 78 b 250 482 640 481 250 404 b 335 531 250 510 285 531 b 532 457 415 531 492 496 l 614 599 b 333 688 542 651 446 688 b 46 467 147 688 46 585 b 436 196 46 197 436 283 b 346 144 436 165 410 144 b 110 233 267 144 160 189 l 21 86 b 335 -17 92 24 215 -17 z "},"ş":{"ha":672,"x_min":0,"x_max":0,"o":"m 333 -275 b 493 -154 421 -275 493 -231 b 399 -54 493 -96 450 -54 b 351 -68 381 -54 365 -60 l 374 -15 b 640 206 543 -3 640 86 b 250 482 640 481 250 404 b 335 531 250 510 285 531 b 532 457 415 531 492 496 l 614 599 b 333 688 542 651 446 688 b 46 467 147 688 46 585 b 436 196 46 197 436 283 b 346 144 436 165 410 144 b 110 233 267 144 160 189 l 21 86 b 276 -14 79 33 176 -3 l 244 -97 l 318 -139 b 358 -121 328 -129 342 -121 b 393 -151 381 -121 393 -132 b 328 -190 393 -178 361 -190 b 214 -149 290 -190 250 -175 l 175 -229 b 333 -275 204 -253 264 -275 z "},"ș":{"ha":672,"x_min":0,"x_max":0,"o":"m 451 -193 b 343 -68 451 -114 400 -68 b 246 -167 290 -68 246 -112 b 328 -254 246 -219 282 -254 b 351 -250 338 -254 347 -253 b 261 -357 340 -290 296 -337 l 329 -411 b 451 -193 403 -358 451 -281 z m 335 -17 b 640 206 528 -17 640 78 b 250 482 640 481 250 404 b 335 531 250 510 285 531 b 532 457 415 531 492 496 l 614 599 b 333 688 542 651 446 688 b 46 467 147 688 46 585 b 436 196 46 197 436 283 b 346 144 436 165 410 144 b 110 233 267 144 160 189 l 21 86 b 335 -17 92 24 215 -17 z "},"ṡ":{"ha":672,"x_min":0,"x_max":0,"o":"m 335 -17 b 640 206 528 -17 640 78 b 250 482 640 481 250 404 b 335 531 250 510 285 531 b 532 457 415 531 492 496 l 614 599 b 333 688 542 651 446 688 b 46 467 147 688 46 585 b 436 196 46 197 436 283 b 346 144 436 165 410 144 b 110 233 267 144 160 189 l 21 86 b 335 -17 92 24 215 -17 z m 336 744 b 444 854 396 744 444 793 b 336 963 444 914 396 963 b 228 854 276 963 228 914 b 336 744 228 793 276 744 z "},"ß":{"ha":924,"x_min":0,"x_max":0,"o":"m 906 207 b 561 478 906 481 561 406 b 731 726 561 546 731 569 b 424 940 731 860 582 940 b 79 643 204 940 79 803 l 79 0 l 293 0 l 293 643 b 419 751 293 713 346 751 b 513 694 468 751 513 733 b 357 469 513 647 357 610 b 700 196 357 211 700 281 b 615 144 700 169 672 144 b 419 233 540 144 457 186 l 335 86 b 615 -17 404 25 486 -17 b 906 207 786 -17 906 74 z "},"ſ":{"ha":485,"x_min":0,"x_max":0,"o":"m 338 0 l 338 704 b 408 775 338 747 371 775 b 478 747 439 775 461 765 l 557 874 b 364 940 511 921 436 940 b 124 704 224 940 124 846 l 124 671 l 13 671 l 13 485 l 124 485 l 124 0 z "},"ŧ":{"ha":500,"x_min":0,"x_max":0,"o":"m 332 -17 b 490 28 411 -17 464 3 l 449 189 b 394 172 442 181 418 172 b 335 240 357 172 335 201 l 335 276 l 429 276 l 429 394 l 335 394 l 335 485 l 471 485 l 471 671 l 335 671 l 335 854 l 122 854 l 122 671 l 11 671 l 11 485 l 122 485 l 122 394 l 11 394 l 11 276 l 122 276 l 122 181 b 332 -17 122 51 196 -17 z "},"ť":{"ha":574,"x_min":0,"x_max":0,"o":"m 611 951 b 503 1076 611 1031 560 1076 b 406 978 450 1076 406 1032 b 488 890 406 925 442 890 b 511 894 497 890 507 892 b 421 788 500 854 456 807 l 489 733 b 611 951 563 786 611 864 z m 332 -17 b 490 28 411 -17 464 3 l 449 189 b 394 172 442 181 418 172 b 335 240 357 172 335 201 l 335 485 l 471 485 l 471 671 l 335 671 l 335 854 l 122 854 l 122 671 l 11 671 l 11 485 l 122 485 l 122 181 b 332 -17 122 51 196 -17 z "},"ţ":{"ha":500,"x_min":0,"x_max":0,"o":"m 358 -193 b 250 -68 358 -114 307 -68 b 153 -167 197 -68 153 -112 b 235 -254 153 -219 189 -254 b 258 -250 244 -254 254 -253 b 168 -357 247 -290 203 -337 l 236 -411 b 358 -193 310 -358 358 -281 z m 332 -17 b 490 28 411 -17 464 3 l 449 189 b 394 172 442 181 418 172 b 335 240 357 172 335 201 l 335 485 l 471 485 l 471 671 l 335 671 l 335 854 l 122 854 l 122 671 l 11 671 l 11 485 l 122 485 l 122 181 b 332 -17 122 51 196 -17 z "},"ț":{"ha":500,"x_min":0,"x_max":0,"o":"m 358 -193 b 250 -68 358 -114 307 -68 b 153 -167 197 -68 153 -112 b 235 -254 153 -219 189 -254 b 258 -250 244 -254 254 -253 b 168 -357 247 -290 203 -337 l 236 -411 b 358 -193 310 -358 358 -281 z m 332 -17 b 490 28 411 -17 464 3 l 449 189 b 394 172 442 181 418 172 b 335 240 357 172 335 201 l 335 485 l 471 485 l 471 671 l 335 671 l 335 854 l 122 854 l 122 671 l 11 671 l 11 485 l 122 485 l 122 181 b 332 -17 122 51 196 -17 z "},"ṫ":{"ha":500,"x_min":0,"x_max":0,"o":"m 332 -17 b 490 28 411 -17 464 3 l 449 189 b 394 172 442 181 418 172 b 335 240 357 172 335 201 l 335 485 l 471 485 l 471 671 l 335 671 l 335 854 l 122 854 l 122 671 l 11 671 l 11 485 l 122 485 l 122 181 b 332 -17 122 51 196 -17 z m 233 976 b 342 1086 293 976 342 1025 b 233 1194 342 1146 293 1194 b 125 1086 174 1194 125 1146 b 233 976 125 1025 174 976 z "},"ú":{"ha":822,"x_min":0,"x_max":0,"o":"m 683 972 l 494 972 l 318 772 l 463 772 z m 744 0 l 744 671 l 531 671 l 531 238 b 403 172 506 206 464 172 b 292 281 333 172 292 200 l 292 671 l 78 671 l 78 193 b 299 -17 78 69 146 -17 b 531 81 411 -17 489 33 l 531 0 z "},"ŭ":{"ha":822,"x_min":0,"x_max":0,"o":"m 744 0 l 744 671 l 531 671 l 531 238 b 403 172 506 206 464 172 b 292 281 333 172 292 200 l 292 671 l 78 671 l 78 193 b 299 -17 78 69 146 -17 b 531 81 411 -17 489 33 l 531 0 z m 657 856 l 565 931 b 414 850 531 879 478 850 b 261 931 347 850 296 883 l 169 856 b 414 733 226 781 315 733 b 657 856 514 733 601 781 z "},"û":{"ha":822,"x_min":0,"x_max":0,"o":"m 635 772 l 506 972 l 318 972 l 193 772 l 319 772 l 411 885 l 507 772 z m 744 0 l 744 671 l 531 671 l 531 238 b 403 172 506 206 464 172 b 292 281 333 172 292 200 l 292 671 l 78 671 l 78 193 b 299 -17 78 69 146 -17 b 531 81 411 -17 489 33 l 531 0 z "},"ü":{"ha":822,"x_min":0,"x_max":0,"o":"m 671 854 b 561 963 671 914 622 963 b 453 854 501 963 453 914 b 561 744 453 792 501 744 b 671 854 622 744 671 792 z m 374 854 b 264 963 374 914 325 963 b 156 854 203 963 156 914 b 264 744 156 792 203 744 b 374 854 325 744 374 792 z m 744 0 l 744 671 l 531 671 l 531 238 b 403 172 506 206 464 172 b 292 281 333 172 292 200 l 292 671 l 78 671 l 78 193 b 299 -17 78 69 146 -17 b 531 81 411 -17 489 33 l 531 0 z "},"ù":{"ha":822,"x_min":0,"x_max":0,"o":"m 744 0 l 744 671 l 531 671 l 531 238 b 403 172 506 206 464 172 b 292 281 333 172 292 200 l 292 671 l 78 671 l 78 193 b 299 -17 78 69 146 -17 b 531 81 411 -17 489 33 l 531 0 z m 503 772 l 326 972 l 138 972 l 358 772 z "},"ű":{"ha":822,"x_min":0,"x_max":0,"o":"m 744 0 l 744 671 l 531 671 l 531 238 b 403 172 506 206 464 172 b 292 281 333 172 292 200 l 292 671 l 78 671 l 78 193 b 299 -17 78 69 146 -17 b 531 81 411 -17 489 33 l 531 0 z m 513 972 l 349 972 l 232 772 l 353 772 z m 725 972 l 560 972 l 444 772 l 565 772 z "},"ū":{"ha":822,"x_min":0,"x_max":0,"o":"m 744 0 l 744 671 l 531 671 l 531 238 b 403 172 506 206 464 172 b 292 281 333 172 292 200 l 292 671 l 78 671 l 78 193 b 299 -17 78 69 146 -17 b 531 81 411 -17 489 33 l 531 0 z m 663 772 l 663 890 l 158 890 l 158 772 z "},"ų":{"ha":822,"x_min":0,"x_max":0,"o":"m 744 0 l 744 671 l 531 671 l 531 238 b 403 172 506 206 464 172 b 292 281 333 172 292 200 l 292 671 l 78 671 l 78 193 b 299 -17 78 69 146 -17 b 531 81 411 -17 489 33 l 531 0 l 608 0 b 550 -131 569 -36 550 -81 b 696 -258 550 -221 619 -258 b 832 -182 760 -258 804 -228 l 750 -131 b 696 -174 740 -156 724 -174 b 650 -121 674 -174 650 -161 b 744 0 650 -76 676 -35 z "},"ů":{"ha":822,"x_min":0,"x_max":0,"o":"m 414 729 b 561 879 496 729 561 797 b 414 1031 561 963 496 1031 b 263 879 331 1031 263 963 b 414 729 263 797 331 729 z m 414 824 b 357 879 382 824 357 849 b 414 936 357 911 382 936 b 468 879 444 936 468 911 b 414 824 468 849 444 824 z m 744 0 l 744 671 l 531 671 l 531 238 b 403 172 506 206 464 172 b 292 281 333 172 292 200 l 292 671 l 78 671 l 78 193 b 299 -17 78 69 146 -17 b 531 81 411 -17 489 33 l 531 0 z "},"ũ":{"ha":822,"x_min":0,"x_max":0,"o":"m 744 0 l 744 671 l 531 671 l 531 238 b 403 172 506 206 464 172 b 292 281 333 172 292 200 l 292 671 l 78 671 l 78 193 b 299 -17 78 69 146 -17 b 531 81 411 -17 489 33 l 531 0 z m 488 769 b 644 956 590 769 644 833 l 536 956 b 494 888 536 908 517 888 b 338 964 450 888 426 964 b 181 778 235 964 181 901 l 289 778 b 331 846 289 825 308 846 b 488 769 375 846 397 769 z "},"ụ":{"ha":822,"x_min":0,"x_max":0,"o":"m 744 0 l 744 671 l 531 671 l 531 238 b 403 172 506 206 464 172 b 292 281 333 172 292 200 l 292 671 l 78 671 l 78 193 b 299 -17 78 69 146 -17 b 531 81 411 -17 489 33 l 531 0 z m 414 -282 b 522 -172 474 -282 522 -233 b 414 -64 522 -112 474 -64 b 306 -172 354 -64 306 -112 b 414 -282 306 -233 354 -282 z "},"ư":{"ha":822,"x_min":0,"x_max":0,"o":"m 744 0 l 744 569 b 851 763 817 621 851 696 b 754 874 851 833 806 874 b 668 788 707 874 668 835 b 742 708 668 740 700 708 b 763 713 750 708 760 710 b 742 671 758 699 751 685 l 531 671 l 531 238 b 403 172 506 206 464 172 b 292 281 333 172 292 200 l 292 671 l 78 671 l 78 193 b 299 -17 78 69 146 -17 b 531 81 411 -17 489 33 l 531 0 z "},"ủ":{"ha":822,"x_min":0,"x_max":0,"o":"m 744 0 l 744 671 l 531 671 l 531 238 b 403 172 506 206 464 172 b 292 281 333 172 292 200 l 292 671 l 78 671 l 78 193 b 299 -17 78 69 146 -17 b 531 81 411 -17 489 33 l 531 0 z m 368 800 b 411 836 375 819 389 836 b 447 796 429 836 447 825 b 422 732 447 774 440 751 l 508 732 b 528 800 519 754 528 774 b 411 903 528 872 472 903 b 296 824 360 903 314 876 z "},"ứ":{"ha":822,"x_min":0,"x_max":0,"o":"m 683 972 l 494 972 l 318 772 l 463 772 z m 744 0 l 744 569 b 851 763 817 621 851 696 b 754 874 851 833 806 874 b 668 788 707 874 668 835 b 742 708 668 740 700 708 b 763 713 750 708 760 710 b 742 671 758 699 751 685 l 531 671 l 531 238 b 403 172 506 206 464 172 b 292 281 333 172 292 200 l 292 671 l 78 671 l 78 193 b 299 -17 78 69 146 -17 b 531 81 411 -17 489 33 l 531 0 z "},"ừ":{"ha":822,"x_min":0,"x_max":0,"o":"m 503 772 l 326 972 l 138 972 l 358 772 z m 744 0 l 744 569 b 851 763 817 621 851 696 b 754 874 851 833 806 874 b 668 788 707 874 668 835 b 742 708 668 740 700 708 b 763 713 750 708 760 710 b 742 671 758 699 751 685 l 531 671 l 531 238 b 403 172 506 206 464 172 b 292 281 333 172 292 200 l 292 671 l 78 671 l 78 193 b 299 -17 78 69 146 -17 b 531 81 411 -17 489 33 l 531 0 z "},"ử":{"ha":822,"x_min":0,"x_max":0,"o":"m 368 800 b 411 836 375 819 389 836 b 447 796 429 836 447 825 b 422 732 447 774 440 751 l 508 732 b 528 800 519 754 528 774 b 411 903 528 872 472 903 b 296 824 360 903 314 876 z m 744 0 l 744 569 b 851 763 817 621 851 696 b 754 874 851 833 806 874 b 668 788 707 874 668 835 b 742 708 668 740 700 708 b 763 713 750 708 760 710 b 742 671 758 699 751 685 l 531 671 l 531 238 b 403 172 506 206 464 172 b 292 281 333 172 292 200 l 292 671 l 78 671 l 78 193 b 299 -17 78 69 146 -17 b 531 81 411 -17 489 33 l 531 0 z "},"ữ":{"ha":822,"x_min":0,"x_max":0,"o":"m 744 0 l 744 569 b 851 763 817 621 851 696 b 754 874 851 833 806 874 b 668 788 707 874 668 835 b 742 708 668 740 700 708 b 763 713 750 708 760 710 b 742 671 758 699 751 685 l 531 671 l 531 238 b 403 172 506 206 464 172 b 292 281 333 172 292 200 l 292 671 l 78 671 l 78 193 b 299 -17 78 69 146 -17 b 531 81 411 -17 489 33 l 531 0 z m 486 769 b 643 956 589 769 643 833 l 535 956 b 493 888 535 908 515 888 b 336 964 449 888 425 964 b 179 778 233 964 179 901 l 288 778 b 329 846 288 825 307 846 b 486 769 374 846 396 769 z "},"ự":{"ha":822,"x_min":0,"x_max":0,"o":"m 414 -282 b 522 -172 474 -282 522 -233 b 414 -64 522 -112 474 -64 b 306 -172 354 -64 306 -112 b 414 -282 306 -233 354 -282 z m 744 0 l 744 569 b 851 763 817 621 851 696 b 754 874 851 833 806 874 b 668 788 707 874 668 835 b 742 708 668 740 700 708 b 763 713 750 708 760 710 b 742 671 758 699 751 685 l 531 671 l 531 238 b 403 172 506 206 464 172 b 292 281 333 172 292 200 l 292 671 l 78 671 l 78 193 b 299 -17 78 69 146 -17 b 531 81 411 -17 489 33 l 531 0 z "},"ẃ":{"ha":1093,"x_min":0,"x_max":0,"o":"m 818 972 l 629 972 l 453 772 l 597 772 z m 903 0 l 1101 671 l 881 671 l 774 260 l 642 671 l 451 671 l 319 260 l 211 671 l -8 671 l 190 0 l 421 0 l 546 415 l 672 0 z "},"ŵ":{"ha":1093,"x_min":0,"x_max":0,"o":"m 768 772 l 639 972 l 451 972 l 326 772 l 453 772 l 544 885 l 640 772 z m 903 0 l 1101 671 l 881 671 l 774 260 l 642 671 l 451 671 l 319 260 l 211 671 l -8 671 l 190 0 l 421 0 l 546 415 l 672 0 z "},"ẅ":{"ha":1093,"x_min":0,"x_max":0,"o":"m 804 854 b 694 963 804 914 756 963 b 586 854 635 963 586 914 b 694 744 586 792 635 744 b 804 854 756 744 804 792 z m 507 854 b 397 963 507 914 458 963 b 289 854 336 963 289 914 b 397 744 289 792 336 744 b 507 854 458 744 507 792 z m 903 0 l 1101 671 l 881 671 l 774 260 l 642 671 l 451 671 l 319 260 l 211 671 l -8 671 l 190 0 l 421 0 l 546 415 l 672 0 z "},"ẁ":{"ha":1093,"x_min":0,"x_max":0,"o":"m 903 0 l 1101 671 l 881 671 l 774 260 l 642 671 l 451 671 l 319 260 l 211 671 l -8 671 l 190 0 l 421 0 l 546 415 l 672 0 z m 636 772 l 460 972 l 271 972 l 492 772 z "},"ý":{"ha":728,"x_min":0,"x_max":0,"o":"m 64 -261 b 156 -272 86 -268 136 -272 b 439 -96 283 -269 385 -237 l 742 671 l 515 671 l 363 246 l 211 671 l -14 671 l 253 -10 l 238 -46 b 147 -83 226 -74 196 -83 b 94 -71 131 -83 110 -79 z m 636 972 l 447 972 l 271 772 l 415 772 z "},"ŷ":{"ha":728,"x_min":0,"x_max":0,"o":"m 64 -261 b 156 -272 86 -268 136 -272 b 439 -96 283 -269 385 -237 l 742 671 l 515 671 l 363 246 l 211 671 l -14 671 l 253 -10 l 238 -46 b 147 -83 226 -74 196 -83 b 94 -71 131 -83 110 -79 z m 585 772 l 456 972 l 268 972 l 143 772 l 269 772 l 361 885 l 457 772 z "},"ÿ":{"ha":728,"x_min":0,"x_max":0,"o":"m 64 -261 b 156 -272 86 -268 136 -272 b 439 -96 283 -269 385 -237 l 742 671 l 515 671 l 363 246 l 211 671 l -14 671 l 253 -10 l 238 -46 b 147 -83 226 -74 196 -83 b 94 -71 131 -83 110 -79 z m 621 854 b 511 963 621 914 572 963 b 403 854 451 963 403 914 b 511 744 403 792 451 744 b 621 854 572 744 621 792 z m 324 854 b 214 963 324 914 275 963 b 106 854 153 963 106 914 b 214 744 106 792 153 744 b 324 854 275 744 324 792 z "},"ỳ":{"ha":728,"x_min":0,"x_max":0,"o":"m 64 -261 b 156 -272 86 -268 136 -272 b 439 -96 283 -269 385 -237 l 742 671 l 515 671 l 363 246 l 211 671 l -14 671 l 253 -10 l 238 -46 b 147 -83 226 -74 196 -83 b 94 -71 131 -83 110 -79 z m 454 772 l 278 972 l 89 972 l 310 772 z "},"ź":{"ha":671,"x_min":0,"x_max":0,"o":"m 608 972 l 419 972 l 243 772 l 388 772 z m 618 0 l 618 185 l 338 185 l 613 519 l 613 671 l 53 671 l 53 485 l 322 485 l 53 157 l 53 0 z "},"ž":{"ha":671,"x_min":0,"x_max":0,"o":"m 425 772 l 550 972 l 422 972 l 331 860 l 235 972 l 108 972 l 238 772 z m 618 0 l 618 185 l 338 185 l 613 519 l 613 671 l 53 671 l 53 485 l 322 485 l 53 157 l 53 0 z "},"ż":{"ha":671,"x_min":0,"x_max":0,"o":"m 618 0 l 618 185 l 338 185 l 613 519 l 613 671 l 53 671 l 53 485 l 322 485 l 53 157 l 53 0 z m 332 744 b 440 854 392 744 440 793 b 332 963 440 914 392 963 b 224 854 272 963 224 914 b 332 744 224 793 272 744 z "},"ð":{"ha":800,"x_min":0,"x_max":0,"o":"m 129 631 l 335 722 b 550 494 433 651 519 574 b 328 625 500 578 426 625 b 33 306 164 625 33 496 b 399 -17 33 117 179 -17 b 765 354 629 -17 765 132 b 538 813 765 532 683 679 l 631 854 l 590 946 l 451 885 b 272 1004 397 925 338 964 l 157 835 l 233 789 l 90 726 z m 399 172 b 254 306 306 172 254 231 b 399 438 254 379 306 438 b 546 306 493 438 546 379 b 399 172 546 231 493 172 z "},"þ":{"ha":818,"x_min":0,"x_max":0,"o":"m 490 -17 b 785 336 658 -17 785 108 b 490 688 785 563 658 688 b 292 593 414 688 344 657 l 292 926 l 78 926 l 78 -256 l 292 -256 l 292 79 b 490 -17 347 13 415 -17 z m 419 172 b 292 233 374 172 318 199 l 292 438 b 419 499 318 474 374 499 b 567 336 503 499 567 436 b 419 172 567 235 503 172 z "},"":{"ha":846,"x_min":0,"x_max":0,"o":"m 694 1042 l 506 1042 l 329 842 l 474 842 z m 289 764 l -15 0 l 233 0 l 271 106 l 575 106 l 614 0 l 861 0 l 558 764 z m 513 297 l 333 297 l 424 543 z "},"":{"ha":846,"x_min":0,"x_max":0,"o":"m 289 764 l -15 0 l 233 0 l 271 106 l 575 106 l 614 0 l 861 0 l 558 764 z m 513 297 l 333 297 l 424 543 z m 668 925 l 576 1000 b 425 919 542 949 489 919 b 272 1000 358 919 307 953 l 181 925 b 425 803 238 850 326 803 b 668 925 525 803 613 850 z "},"":{"ha":846,"x_min":0,"x_max":0,"o":"m 646 842 l 517 1042 l 329 1042 l 204 842 l 331 842 l 422 954 l 518 842 z m 289 764 l -15 0 l 233 0 l 271 106 l 575 106 l 614 0 l 861 0 l 558 764 z m 513 297 l 333 297 l 424 543 z "},"":{"ha":846,"x_min":0,"x_max":0,"o":"m 682 947 b 572 1056 682 1007 633 1056 b 464 947 513 1056 464 1007 b 572 838 464 885 513 838 b 682 947 633 838 682 885 z m 385 947 b 275 1056 385 1007 336 1056 b 167 947 214 1056 167 1007 b 275 838 167 885 214 838 b 385 947 336 838 385 885 z m 289 764 l -15 0 l 233 0 l 271 106 l 575 106 l 614 0 l 861 0 l 558 764 z m 513 297 l 333 297 l 424 543 z "},"":{"ha":846,"x_min":0,"x_max":0,"o":"m 289 764 l -15 0 l 233 0 l 271 106 l 575 106 l 614 0 l 861 0 l 558 764 z m 513 297 l 333 297 l 424 543 z m 515 842 l 339 1042 l 150 1042 l 371 842 z "},"":{"ha":846,"x_min":0,"x_max":0,"o":"m 676 842 l 676 960 l 172 960 l 172 842 z m 289 764 l -15 0 l 233 0 l 271 106 l 575 106 l 614 0 l 861 0 l 558 764 z m 513 297 l 333 297 l 424 543 z "},"":{"ha":846,"x_min":0,"x_max":0,"o":"m 289 764 l -15 0 l 233 0 l 271 106 l 575 106 l 614 0 l 725 0 b 667 -131 686 -36 667 -81 b 813 -258 667 -221 736 -258 b 949 -182 876 -258 921 -228 l 867 -131 b 813 -174 857 -156 840 -174 b 767 -121 790 -174 767 -161 b 861 0 767 -76 793 -35 l 558 764 z m 513 297 l 333 297 l 424 543 z "},"":{"ha":846,"x_min":0,"x_max":0,"o":"m 425 792 b 572 942 507 792 572 860 b 425 1093 572 1025 507 1093 b 274 942 342 1093 274 1025 b 425 792 274 860 342 792 z m 425 886 b 368 942 393 886 368 911 b 425 999 368 974 393 999 b 479 942 456 999 479 974 b 425 886 479 911 456 886 z m 289 764 l -15 0 l 233 0 l 271 106 l 575 106 l 614 0 l 861 0 l 558 764 z m 513 297 l 333 297 l 424 543 z "},"":{"ha":846,"x_min":0,"x_max":0,"o":"m 289 764 l -15 0 l 233 0 l 271 106 l 575 106 l 614 0 l 861 0 l 558 764 z m 513 297 l 333 297 l 424 543 z m 499 839 b 656 1025 601 839 656 903 l 547 1025 b 506 957 547 978 528 957 b 349 1033 461 957 438 1033 b 192 847 246 1033 192 971 l 300 847 b 342 915 300 894 319 915 b 499 839 386 915 408 839 z "},"":{"ha":1190,"x_min":0,"x_max":0,"o":"m 1139 0 l 1139 186 l 760 186 l 760 294 l 1129 294 l 1129 481 l 760 481 l 760 578 l 1139 578 l 1139 764 l 453 764 l -17 0 l 232 0 l 293 106 l 539 106 l 539 0 z m 539 297 l 396 297 l 539 543 z "},"":{"ha":1190,"x_min":0,"x_max":0,"o":"m 922 1042 l 733 1042 l 557 842 l 701 842 z m 1139 0 l 1139 186 l 760 186 l 760 294 l 1129 294 l 1129 481 l 760 481 l 760 578 l 1139 578 l 1139 764 l 453 764 l -17 0 l 232 0 l 293 106 l 539 106 l 539 0 z m 539 297 l 396 297 l 539 543 z "},"":{"ha":815,"x_min":0,"x_max":0,"o":"m 728 1042 l 539 1042 l 363 842 l 507 842 z m 454 -17 b 797 197 632 -17 746 86 l 613 282 b 454 178 586 222 526 178 b 257 382 339 178 257 267 b 454 586 257 499 339 586 b 613 481 526 586 586 540 l 797 567 b 454 781 744 679 632 781 b 33 382 211 781 33 618 b 454 -17 33 147 211 -17 z "},"":{"ha":815,"x_min":0,"x_max":0,"o":"m 553 842 l 678 1042 l 550 1042 l 458 929 l 363 1042 l 236 1042 l 365 842 z m 454 -17 b 797 197 632 -17 746 86 l 613 282 b 454 178 586 222 526 178 b 257 382 339 178 257 267 b 454 586 257 499 339 586 b 613 481 526 586 586 540 l 797 567 b 454 781 744 679 632 781 b 33 382 211 781 33 618 b 454 -17 33 147 211 -17 z "},"":{"ha":815,"x_min":0,"x_max":0,"o":"m 450 -275 b 610 -154 538 -275 610 -231 b 515 -54 610 -96 567 -54 b 468 -68 497 -54 482 -60 l 490 -15 b 797 197 647 -1 749 93 l 613 282 b 454 178 586 222 526 178 b 257 382 339 178 257 267 b 454 586 257 499 339 586 b 613 481 526 586 586 540 l 797 567 b 454 781 744 679 632 781 b 33 382 211 781 33 618 b 393 -12 33 167 182 11 l 361 -97 l 435 -139 b 475 -121 444 -129 458 -121 b 510 -151 497 -121 510 -132 b 444 -190 510 -178 478 -190 b 331 -149 407 -190 367 -175 l 292 -229 b 450 -275 321 -253 381 -275 z "},"":{"ha":815,"x_min":0,"x_max":0,"o":"m 678 842 l 549 1042 l 361 1042 l 236 842 l 363 842 l 454 954 l 550 842 z m 454 -17 b 797 197 632 -17 746 86 l 613 282 b 454 178 586 222 526 178 b 257 382 339 178 257 267 b 454 586 257 499 339 586 b 613 481 526 586 586 540 l 797 567 b 454 781 744 679 632 781 b 33 382 211 781 33 618 b 454 -17 33 147 211 -17 z "},"":{"ha":815,"x_min":0,"x_max":0,"o":"m 454 -17 b 797 197 632 -17 746 86 l 613 282 b 454 178 586 222 526 178 b 257 382 339 178 257 267 b 454 586 257 499 339 586 b 613 481 526 586 586 540 l 797 567 b 454 781 744 679 632 781 b 33 382 211 781 33 618 b 454 -17 33 147 211 -17 z m 456 814 b 564 924 515 814 564 863 b 456 1032 564 983 515 1032 b 347 924 396 1032 347 983 b 456 814 347 863 396 814 z "},"":{"ha":876,"x_min":0,"x_max":0,"o":"m 531 842 l 656 1042 l 528 1042 l 436 929 l 340 1042 l 214 1042 l 343 842 z m 417 0 b 838 382 671 0 838 146 b 415 764 838 619 671 764 l 72 764 l 72 0 z m 415 192 l 294 192 l 294 572 l 417 572 b 614 382 558 572 614 488 b 415 192 614 281 549 192 z "},"":{"ha":883,"x_min":0,"x_max":0,"o":"m 422 0 b 843 382 676 0 843 146 b 421 764 843 619 676 764 l 78 764 l 78 456 l 11 456 l 11 308 l 78 308 l 78 0 z m 444 308 l 444 456 l 300 456 l 300 572 l 422 572 b 619 382 564 572 619 488 b 421 192 619 281 554 192 l 300 192 l 300 308 z "},"":{"ha":729,"x_min":0,"x_max":0,"o":"m 651 1042 l 463 1042 l 286 842 l 431 842 z m 678 0 l 678 186 l 300 186 l 300 294 l 669 294 l 669 481 l 300 481 l 300 578 l 678 578 l 678 764 l 78 764 l 78 0 z "},"":{"ha":729,"x_min":0,"x_max":0,"o":"m 678 0 l 678 186 l 300 186 l 300 294 l 669 294 l 669 481 l 300 481 l 300 578 l 678 578 l 678 764 l 78 764 l 78 0 z m 624 925 l 532 1000 b 381 919 497 949 444 919 b 228 1000 314 919 263 953 l 136 925 b 381 803 193 850 282 803 b 624 925 481 803 568 850 z "},"":{"ha":729,"x_min":0,"x_max":0,"o":"m 475 842 l 600 1042 l 472 1042 l 381 929 l 285 1042 l 158 1042 l 288 842 z m 678 0 l 678 186 l 300 186 l 300 294 l 669 294 l 669 481 l 300 481 l 300 578 l 678 578 l 678 764 l 78 764 l 78 0 z "},"":{"ha":729,"x_min":0,"x_max":0,"o":"m 601 842 l 472 1042 l 285 1042 l 160 842 l 286 842 l 378 954 l 474 842 z m 678 0 l 678 186 l 300 186 l 300 294 l 669 294 l 669 481 l 300 481 l 300 578 l 678 578 l 678 764 l 78 764 l 78 0 z "},"":{"ha":729,"x_min":0,"x_max":0,"o":"m 638 924 b 528 1032 638 983 589 1032 b 419 924 468 1032 419 983 b 528 814 419 861 468 814 b 638 924 589 814 638 861 z m 340 924 b 231 1032 340 983 292 1032 b 122 924 169 1032 122 983 b 231 814 122 861 169 814 b 340 924 292 814 340 861 z m 678 0 l 678 186 l 300 186 l 300 294 l 669 294 l 669 481 l 300 481 l 300 578 l 678 578 l 678 764 l 78 764 l 78 0 z "},"":{"ha":729,"x_min":0,"x_max":0,"o":"m 678 0 l 678 186 l 300 186 l 300 294 l 669 294 l 669 481 l 300 481 l 300 578 l 678 578 l 678 764 l 78 764 l 78 0 z m 383 814 b 492 924 443 814 492 863 b 383 1032 492 983 443 1032 b 275 924 324 1032 275 983 b 383 814 275 863 324 814 z "},"":{"ha":729,"x_min":0,"x_max":0,"o":"m 678 0 l 678 186 l 300 186 l 300 294 l 669 294 l 669 481 l 300 481 l 300 578 l 678 578 l 678 764 l 78 764 l 78 0 z m 467 842 l 290 1042 l 101 1042 l 322 842 z "},"":{"ha":729,"x_min":0,"x_max":0,"o":"m 678 0 l 678 186 l 300 186 l 300 294 l 669 294 l 669 481 l 300 481 l 300 578 l 678 578 l 678 764 l 78 764 l 78 0 z m 632 842 l 632 960 l 128 960 l 128 842 z "},"":{"ha":729,"x_min":0,"x_max":0,"o":"m 683 -131 b 629 -174 674 -156 657 -174 b 583 -121 607 -174 583 -161 b 678 0 583 -76 610 -35 l 678 186 l 300 186 l 300 294 l 669 294 l 669 481 l 300 481 l 300 578 l 678 578 l 678 764 l 78 764 l 78 0 l 542 0 b 483 -131 503 -36 483 -81 b 629 -258 483 -221 553 -258 b 765 -182 693 -258 738 -228 z "},"":{"ha":849,"x_min":0,"x_max":0,"o":"m 458 -17 b 801 135 599 -17 715 43 l 801 446 l 426 446 l 426 272 l 581 272 l 581 218 b 458 176 556 197 514 176 b 258 382 339 176 258 267 b 458 585 258 499 339 585 b 601 504 524 585 574 550 l 782 606 b 458 781 728 694 615 781 b 33 382 219 781 33 626 b 458 -17 33 140 219 -17 z m 704 925 l 613 1000 b 461 919 578 949 525 919 b 308 1000 394 919 343 953 l 217 925 b 461 803 274 850 363 803 b 704 925 561 803 649 850 z "},"":{"ha":849,"x_min":0,"x_max":0,"o":"m 458 -17 b 801 135 599 -17 715 43 l 801 446 l 426 446 l 426 272 l 581 272 l 581 218 b 458 176 556 197 514 176 b 258 382 339 176 258 267 b 458 585 258 499 339 585 b 601 504 524 585 574 550 l 782 606 b 458 781 728 694 615 781 b 33 382 219 781 33 626 b 458 -17 33 140 219 -17 z m 681 842 l 551 1042 l 364 1042 l 239 842 l 365 842 l 457 954 l 553 842 z "},"":{"ha":849,"x_min":0,"x_max":0,"o":"m 458 -17 b 801 135 599 -17 715 43 l 801 446 l 426 446 l 426 272 l 581 272 l 581 218 b 458 176 556 197 514 176 b 258 382 339 176 258 267 b 458 585 258 499 339 585 b 601 504 524 585 574 550 l 782 606 b 458 781 728 694 615 781 b 33 382 219 781 33 626 b 458 -17 33 140 219 -17 z m 565 -193 b 457 -68 565 -114 514 -68 b 360 -167 404 -68 360 -112 b 442 -254 360 -219 396 -254 b 465 -250 451 -254 461 -253 b 375 -357 454 -290 410 -337 l 443 -411 b 565 -193 517 -358 565 -281 z "},"":{"ha":849,"x_min":0,"x_max":0,"o":"m 458 -17 b 801 135 599 -17 715 43 l 801 446 l 426 446 l 426 272 l 581 272 l 581 218 b 458 176 556 197 514 176 b 258 382 339 176 258 267 b 458 585 258 499 339 585 b 601 504 524 585 574 550 l 782 606 b 458 781 728 694 615 781 b 33 382 219 781 33 626 b 458 -17 33 140 219 -17 z m 454 814 b 563 924 514 814 563 863 b 454 1032 563 983 514 1032 b 346 924 394 1032 346 983 b 454 814 346 863 394 814 z "},"":{"ha":933,"x_min":0,"x_max":0,"o":"m 847 0 l 847 571 l 924 571 l 924 689 l 847 689 l 847 764 l 626 764 l 626 689 l 311 689 l 311 764 l 89 764 l 89 689 l 11 689 l 11 571 l 89 571 l 89 0 l 311 0 l 311 294 l 626 294 l 626 0 z m 311 486 l 311 571 l 626 571 l 626 486 z "},"":{"ha":914,"x_min":0,"x_max":0,"o":"m 678 842 l 549 1042 l 361 1042 l 236 842 l 363 842 l 454 954 l 550 842 z m 836 0 l 836 764 l 615 764 l 615 486 l 300 486 l 300 764 l 78 764 l 78 0 l 300 0 l 300 294 l 615 294 l 615 0 z "},"":{"ha":378,"x_min":0,"x_max":0,"o":"m 461 1042 l 272 1042 l 96 842 l 240 842 z m 300 0 l 300 764 l 78 764 l 78 0 z "},"":{"ha":378,"x_min":0,"x_max":0,"o":"m 300 0 l 300 764 l 78 764 l 78 0 z m 435 925 l 343 1000 b 192 919 308 949 256 919 b 39 1000 125 919 74 953 l -53 925 b 192 803 4 850 93 803 b 435 925 292 803 379 850 z "},"":{"ha":378,"x_min":0,"x_max":0,"o":"m 300 0 l 300 764 l 78 764 l 78 0 z m 279 842 l 103 1042 l -86 1042 l 135 842 z "},"":{"ha":378,"x_min":0,"x_max":0,"o":"m 408 842 l 279 1042 l 92 1042 l -33 842 l 93 842 l 185 954 l 281 842 z m 300 0 l 300 764 l 78 764 l 78 0 z "},"":{"ha":378,"x_min":0,"x_max":0,"o":"m 446 924 b 336 1032 446 983 397 1032 b 228 924 276 1032 228 983 b 336 814 228 861 276 814 b 446 924 397 814 446 861 z m 149 924 b 39 1032 149 983 100 1032 b -69 924 -22 1032 -69 983 b 39 814 -69 861 -22 814 b 149 924 100 814 149 861 z m 300 0 l 300 764 l 78 764 l 78 0 z "},"":{"ha":378,"x_min":0,"x_max":0,"o":"m 300 0 l 300 764 l 78 764 l 78 0 z m 189 814 b 297 924 249 814 297 863 b 189 1032 297 983 249 1032 b 81 924 129 1032 81 983 b 189 814 81 863 129 814 z "},"":{"ha":378,"x_min":0,"x_max":0,"o":"m 443 842 l 443 960 l -61 960 l -61 842 z m 300 0 l 300 764 l 78 764 l 78 0 z "},"":{"ha":378,"x_min":0,"x_max":0,"o":"m 300 0 l 300 764 l 78 764 l 78 0 l 164 0 b 106 -131 125 -36 106 -81 b 251 -258 106 -221 175 -258 b 388 -182 315 -258 360 -228 l 306 -131 b 251 -174 296 -156 279 -174 b 206 -121 229 -174 206 -161 b 300 0 206 -76 232 -35 z "},"":{"ha":378,"x_min":0,"x_max":0,"o":"m 300 0 l 300 764 l 78 764 l 78 0 z m 267 839 b 424 1025 369 839 424 903 l 315 1025 b 274 957 315 978 296 957 b 117 1033 229 957 206 1033 b -40 847 14 1033 -40 971 l 68 847 b 110 915 68 894 88 915 b 267 839 154 915 176 839 z "},"":{"ha":988,"x_min":0,"x_max":0,"o":"m 596 -17 b 908 260 786 -17 908 68 l 908 764 l 686 764 l 686 281 b 578 178 686 217 644 178 b 464 228 533 178 493 199 l 381 60 b 596 -17 439 7 518 -17 z m 300 0 l 300 764 l 78 764 l 78 0 z "},"":{"ha":608,"x_min":0,"x_max":0,"o":"m 640 842 l 511 1042 l 324 1042 l 199 842 l 325 842 l 417 954 l 513 842 z m 218 -17 b 531 260 408 -17 531 68 l 531 764 l 308 764 l 308 281 b 200 178 308 217 267 178 b 86 228 156 178 115 199 l 3 60 b 218 -17 61 7 140 -17 z "},"":{"ha":808,"x_min":0,"x_max":0,"o":"m 514 -193 b 406 -68 514 -114 463 -68 b 308 -167 353 -68 308 -112 b 390 -254 308 -219 344 -254 b 414 -250 400 -254 410 -253 b 324 -357 403 -290 358 -337 l 392 -411 b 514 -193 465 -358 514 -281 z m 817 0 l 489 407 l 799 764 l 532 764 l 300 471 l 300 764 l 78 764 l 78 0 l 300 0 l 300 225 l 344 278 l 550 0 z "},"":{"ha":658,"x_min":0,"x_max":0,"o":"m 619 0 l 619 192 l 300 192 l 300 764 l 78 764 l 78 0 z m 621 1042 l 432 1042 l 256 842 l 400 842 z "},"":{"ha":658,"x_min":0,"x_max":0,"o":"m 579 651 b 471 776 579 731 528 776 b 374 678 418 776 374 732 b 456 590 374 625 410 590 b 479 594 465 590 475 592 b 389 488 468 554 424 507 l 457 433 b 579 651 531 486 579 564 z m 619 0 l 619 192 l 300 192 l 300 764 l 78 764 l 78 0 z "},"":{"ha":658,"x_min":0,"x_max":0,"o":"m 456 -193 b 347 -68 456 -114 404 -68 b 250 -167 294 -68 250 -112 b 332 -254 250 -219 286 -254 b 356 -250 342 -254 351 -253 b 265 -357 344 -290 300 -337 l 333 -411 b 456 -193 407 -358 456 -281 z m 619 0 l 619 192 l 300 192 l 300 764 l 78 764 l 78 0 z "},"":{"ha":711,"x_min":0,"x_max":0,"o":"m 619 0 l 619 192 l 300 192 l 300 764 l 78 764 l 78 0 z m 681 429 b 550 560 681 500 621 560 b 421 429 479 560 421 500 b 550 300 421 360 479 300 b 681 429 621 300 681 360 z "},"":{"ha":665,"x_min":0,"x_max":0,"o":"m 11 172 l 85 214 l 85 0 l 626 0 l 626 192 l 307 192 l 307 343 l 408 401 l 408 594 l 307 535 l 307 764 l 85 764 l 85 407 l 11 364 z "},"":{"ha":913,"x_min":0,"x_max":0,"o":"m 729 1042 l 540 1042 l 364 842 l 508 842 z m 833 0 l 833 764 l 613 764 l 613 363 l 318 764 l 78 764 l 78 0 l 299 0 l 299 421 l 607 0 z "},"":{"ha":913,"x_min":0,"x_max":0,"o":"m 550 842 l 675 1042 l 547 1042 l 456 929 l 360 1042 l 233 1042 l 363 842 z m 833 0 l 833 764 l 613 764 l 613 363 l 318 764 l 78 764 l 78 0 l 299 0 l 299 421 l 607 0 z "},"":{"ha":913,"x_min":0,"x_max":0,"o":"m 567 -193 b 458 -68 567 -114 515 -68 b 361 -167 406 -68 361 -112 b 443 -254 361 -219 397 -254 b 467 -250 453 -254 463 -253 b 376 -357 456 -290 411 -337 l 444 -411 b 567 -193 518 -358 567 -281 z m 833 0 l 833 764 l 613 764 l 613 363 l 318 764 l 78 764 l 78 0 l 299 0 l 299 421 l 607 0 z "},"":{"ha":913,"x_min":0,"x_max":0,"o":"m 833 0 l 833 764 l 613 764 l 613 363 l 318 764 l 78 764 l 78 0 l 299 0 l 299 421 l 607 0 z m 532 839 b 689 1025 635 839 689 903 l 581 1025 b 539 957 581 978 561 957 b 382 1033 494 957 471 1033 b 225 847 279 1033 225 971 l 333 847 b 375 915 333 894 353 915 b 532 839 419 915 442 839 z "},"":{"ha":913,"x_min":0,"x_max":0,"o":"m 522 -272 b 833 0 710 -272 831 -189 l 833 764 l 613 764 l 613 363 l 318 764 l 78 764 l 78 0 l 299 0 l 299 421 l 608 -3 b 503 -78 597 -49 558 -78 b 390 -28 458 -78 418 -57 l 306 -196 b 522 -272 364 -249 443 -272 z "},"":{"ha":904,"x_min":0,"x_max":0,"o":"m 451 -17 b 869 382 696 -17 869 150 b 451 781 869 614 696 781 b 33 382 207 781 33 614 b 451 -17 33 150 207 -17 z m 451 178 b 257 382 333 178 257 267 b 451 586 257 497 333 586 b 644 382 569 586 644 497 b 451 178 644 267 569 178 z m 724 1042 l 535 1042 l 358 842 l 503 842 z "},"":{"ha":904,"x_min":0,"x_max":0,"o":"m 451 -17 b 869 382 696 -17 869 150 b 451 781 869 614 696 781 b 33 382 207 781 33 614 b 451 -17 33 150 207 -17 z m 451 178 b 257 382 333 178 257 267 b 451 586 257 497 333 586 b 644 382 569 586 644 497 b 451 178 644 267 569 178 z m 697 925 l 606 1000 b 454 919 571 949 518 919 b 301 1000 388 919 336 953 l 210 925 b 454 803 267 850 356 803 b 697 925 554 803 642 850 z "},"":{"ha":904,"x_min":0,"x_max":0,"o":"m 451 -17 b 869 382 696 -17 869 150 b 451 781 869 614 696 781 b 33 382 207 781 33 614 b 451 -17 33 150 207 -17 z m 451 178 b 257 382 333 178 257 267 b 451 586 257 497 333 586 b 644 382 569 586 644 497 b 451 178 644 267 569 178 z m 675 842 l 546 1042 l 358 1042 l 233 842 l 360 842 l 451 954 l 547 842 z "},"":{"ha":904,"x_min":0,"x_max":0,"o":"m 451 -17 b 869 382 696 -17 869 150 b 451 781 869 614 696 781 b 33 382 207 781 33 614 b 451 -17 33 150 207 -17 z m 451 178 b 257 382 333 178 257 267 b 451 586 257 497 333 586 b 644 382 569 586 644 497 b 451 178 644 267 569 178 z m 713 924 b 603 1032 713 983 664 1032 b 494 924 543 1032 494 983 b 603 814 494 861 543 814 b 713 924 664 814 713 861 z m 415 924 b 306 1032 415 983 367 1032 b 197 924 244 1032 197 983 b 306 814 197 861 244 814 b 415 924 367 814 415 861 z "},"":{"ha":904,"x_min":0,"x_max":0,"o":"m 451 -17 b 869 382 696 -17 869 150 b 451 781 869 614 696 781 b 33 382 207 781 33 614 b 451 -17 33 150 207 -17 z m 451 178 b 257 382 333 178 257 267 b 451 586 257 497 333 586 b 644 382 569 586 644 497 b 451 178 644 267 569 178 z m 543 842 l 367 1042 l 178 1042 l 399 842 z "},"":{"ha":904,"x_min":0,"x_max":0,"o":"m 451 -17 b 869 382 696 -17 869 150 b 451 781 869 614 696 781 b 33 382 207 781 33 614 b 451 -17 33 150 207 -17 z m 451 178 b 257 382 333 178 257 267 b 451 586 257 497 333 586 b 644 382 569 586 644 497 b 451 178 644 267 569 178 z m 556 1042 l 392 1042 l 275 842 l 396 842 z m 768 1042 l 603 1042 l 488 842 l 608 842 z "},"":{"ha":904,"x_min":0,"x_max":0,"o":"m 451 -17 b 869 382 696 -17 869 150 b 451 781 869 614 696 781 b 33 382 207 781 33 614 b 451 -17 33 150 207 -17 z m 451 178 b 257 382 333 178 257 267 b 451 586 257 497 333 586 b 644 382 569 586 644 497 b 451 178 644 267 569 178 z m 706 842 l 706 960 l 201 960 l 201 842 z "},"":{"ha":904,"x_min":0,"x_max":0,"o":"m 451 -17 b 869 382 696 -17 869 150 b 451 781 869 614 696 781 b 33 382 207 781 33 614 b 451 -17 33 150 207 -17 z m 451 178 b 257 382 333 178 257 267 b 451 586 257 497 333 586 b 644 382 569 586 644 497 b 451 178 644 267 569 178 z m 531 839 b 688 1025 633 839 688 903 l 579 1025 b 538 957 579 978 560 957 b 381 1033 493 957 469 1033 b 224 847 278 1033 224 971 l 332 847 b 374 915 332 894 351 915 b 531 839 418 915 440 839 z "},"":{"ha":904,"x_min":0,"x_max":0,"o":"m 451 -17 b 869 382 696 -17 869 150 b 760 661 869 493 829 590 l 843 764 l 676 764 l 653 736 b 451 781 594 764 526 781 b 33 382 207 781 33 614 b 142 104 33 271 72 174 l 57 0 l 224 0 l 247 28 b 451 -17 306 0 375 -17 z m 451 178 b 378 190 425 178 400 182 l 619 488 b 644 382 635 457 644 421 b 451 178 644 267 569 178 z m 257 382 b 451 586 257 497 333 586 b 522 574 476 586 500 582 l 281 276 b 257 382 265 307 257 343 z "},"":{"ha":904,"x_min":0,"x_max":0,"o":"m 451 -17 b 869 382 696 -17 869 150 b 760 661 869 493 829 590 l 843 764 l 676 764 l 653 736 b 451 781 594 764 526 781 b 33 382 207 781 33 614 b 142 104 33 271 72 174 l 57 0 l 224 0 l 247 28 b 451 -17 306 0 375 -17 z m 451 178 b 378 190 425 178 400 182 l 619 488 b 644 382 635 457 644 421 b 451 178 644 267 569 178 z m 257 382 b 451 586 257 497 333 586 b 522 574 476 586 500 582 l 281 276 b 257 382 265 307 257 343 z m 724 1042 l 535 1042 l 358 842 l 503 842 z "},"":{"ha":1274,"x_min":0,"x_max":0,"o":"m 1222 0 l 1222 192 l 844 192 l 844 292 l 1214 292 l 1214 483 l 844 483 l 844 572 l 1222 572 l 1222 764 l 622 764 l 622 692 b 408 781 568 753 490 781 b 33 382 189 781 33 615 b 408 -17 33 149 189 -17 b 622 72 493 -17 568 11 l 622 0 z m 622 281 b 454 178 590 213 529 178 b 257 382 333 178 257 267 b 454 586 257 497 333 586 b 622 485 528 586 590 553 z "},"":{"ha":817,"x_min":0,"x_max":0,"o":"m 697 1042 l 508 1042 l 332 842 l 476 842 z m 775 0 l 610 268 b 771 504 682 290 771 363 b 493 764 771 646 668 764 l 78 764 l 78 0 l 300 0 l 300 244 l 397 244 l 525 0 z m 467 436 l 300 436 l 300 572 l 467 572 b 546 504 515 572 546 544 b 467 436 546 465 515 436 z "},"":{"ha":817,"x_min":0,"x_max":0,"o":"m 493 842 l 618 1042 l 490 1042 l 399 929 l 303 1042 l 176 1042 l 306 842 z m 775 0 l 610 268 b 771 504 682 290 771 363 b 493 764 771 646 668 764 l 78 764 l 78 0 l 300 0 l 300 244 l 397 244 l 525 0 z m 467 436 l 300 436 l 300 572 l 467 572 b 546 504 515 572 546 544 b 467 436 546 465 515 436 z "},"":{"ha":817,"x_min":0,"x_max":0,"o":"m 506 -193 b 397 -68 506 -114 454 -68 b 300 -167 344 -68 300 -112 b 382 -254 300 -219 336 -254 b 406 -250 392 -254 401 -253 b 315 -357 394 -290 350 -337 l 383 -411 b 506 -193 457 -358 506 -281 z m 775 0 l 610 268 b 771 504 682 290 771 363 b 493 764 771 646 668 764 l 78 764 l 78 0 l 300 0 l 300 244 l 397 244 l 525 0 z m 467 436 l 300 436 l 300 572 l 467 572 b 546 504 515 572 546 544 b 467 436 546 465 515 436 z "},"":{"ha":725,"x_min":0,"x_max":0,"o":"m 633 1042 l 444 1042 l 268 842 l 413 842 z m 358 -17 b 701 239 576 -17 701 81 b 265 544 701 532 265 456 b 360 600 265 575 297 600 b 586 519 431 600 528 569 l 688 671 b 361 781 606 740 496 781 b 40 533 161 781 40 663 b 478 225 40 239 478 321 b 367 164 478 189 440 164 b 111 260 267 164 165 208 l 14 96 b 358 -17 85 33 207 -17 z "},"":{"ha":725,"x_min":0,"x_max":0,"o":"m 464 842 l 589 1042 l 461 1042 l 369 929 l 274 1042 l 147 1042 l 276 842 z m 358 -17 b 701 239 576 -17 701 81 b 265 544 701 532 265 456 b 360 600 265 575 297 600 b 586 519 431 600 528 569 l 688 671 b 361 781 606 740 496 781 b 40 533 161 781 40 663 b 478 225 40 239 478 321 b 367 164 478 189 440 164 b 111 260 267 164 165 208 l 14 96 b 358 -17 85 33 207 -17 z "},"":{"ha":725,"x_min":0,"x_max":0,"o":"m 589 842 l 460 1042 l 272 1042 l 147 842 l 274 842 l 365 954 l 461 842 z m 358 -17 b 701 239 576 -17 701 81 b 265 544 701 532 265 456 b 360 600 265 575 297 600 b 586 519 431 600 528 569 l 688 671 b 361 781 606 740 496 781 b 40 533 161 781 40 663 b 478 225 40 239 478 321 b 367 164 478 189 440 164 b 111 260 267 164 165 208 l 14 96 b 358 -17 85 33 207 -17 z "},"":{"ha":725,"x_min":0,"x_max":0,"o":"m 356 -275 b 515 -154 443 -275 515 -231 b 421 -54 515 -96 472 -54 b 374 -68 403 -54 388 -60 l 394 -15 b 701 239 590 -6 701 89 b 265 544 701 532 265 456 b 360 600 265 575 297 600 b 586 519 431 600 528 569 l 688 671 b 361 781 606 740 496 781 b 40 533 161 781 40 663 b 478 225 40 239 478 321 b 367 164 478 189 440 164 b 111 260 267 164 165 208 l 14 96 b 299 -14 75 42 175 -3 l 267 -97 l 340 -139 b 381 -121 350 -129 364 -121 b 415 -151 403 -121 415 -132 b 350 -190 415 -178 383 -190 b 236 -149 313 -190 272 -175 l 197 -229 b 356 -275 226 -253 286 -275 z "},"":{"ha":725,"x_min":0,"x_max":0,"o":"m 472 -193 b 364 -68 472 -114 421 -68 b 267 -167 311 -68 267 -112 b 349 -254 267 -219 303 -254 b 372 -250 358 -254 368 -253 b 282 -357 361 -290 317 -337 l 350 -411 b 472 -193 424 -358 472 -281 z m 358 -17 b 701 239 576 -17 701 81 b 265 544 701 532 265 456 b 360 600 265 575 297 600 b 586 519 431 600 528 569 l 688 671 b 361 781 606 740 496 781 b 40 533 161 781 40 663 b 478 225 40 239 478 321 b 367 164 478 189 440 164 b 111 260 267 164 165 208 l 14 96 b 358 -17 85 33 207 -17 z "},"":{"ha":686,"x_min":0,"x_max":0,"o":"m 454 0 l 454 261 l 586 261 l 586 379 l 454 379 l 454 572 l 661 572 l 661 764 l 25 764 l 25 572 l 232 572 l 232 379 l 100 379 l 100 261 l 232 261 l 232 0 z "},"":{"ha":686,"x_min":0,"x_max":0,"o":"m 440 842 l 565 1042 l 438 1042 l 346 929 l 250 1042 l 124 1042 l 253 842 z m 454 0 l 454 572 l 661 572 l 661 764 l 25 764 l 25 572 l 232 572 l 232 0 z "},"":{"ha":686,"x_min":0,"x_max":0,"o":"m 450 -193 b 342 -68 450 -114 399 -68 b 244 -167 289 -68 244 -112 b 326 -254 244 -219 281 -254 b 350 -250 336 -254 346 -253 b 260 -357 339 -290 294 -337 l 328 -411 b 450 -193 401 -358 450 -281 z m 454 0 l 454 572 l 661 572 l 661 764 l 25 764 l 25 572 l 232 572 l 232 0 z "},"":{"ha":913,"x_min":0,"x_max":0,"o":"m 731 1042 l 542 1042 l 365 842 l 510 842 z m 457 -17 b 835 308 714 -17 835 118 l 835 764 l 611 764 l 611 328 b 457 178 611 240 556 178 b 301 328 357 178 301 240 l 301 764 l 78 764 l 78 307 b 457 -17 78 118 200 -17 z "},"":{"ha":913,"x_min":0,"x_max":0,"o":"m 457 -17 b 835 308 714 -17 835 118 l 835 764 l 611 764 l 611 328 b 457 178 611 240 556 178 b 301 328 357 178 301 240 l 301 764 l 78 764 l 78 307 b 457 -17 78 118 200 -17 z m 701 925 l 610 1000 b 458 919 575 949 522 919 b 306 1000 392 919 340 953 l 214 925 b 458 803 271 850 360 803 b 701 925 558 803 646 850 z "},"":{"ha":913,"x_min":0,"x_max":0,"o":"m 679 842 l 550 1042 l 363 1042 l 238 842 l 364 842 l 456 954 l 551 842 z m 457 -17 b 835 308 714 -17 835 118 l 835 764 l 611 764 l 611 328 b 457 178 611 240 556 178 b 301 328 357 178 301 240 l 301 764 l 78 764 l 78 307 b 457 -17 78 118 200 -17 z "},"":{"ha":913,"x_min":0,"x_max":0,"o":"m 717 924 b 607 1032 717 983 668 1032 b 499 924 547 1032 499 983 b 607 814 499 861 547 814 b 717 924 668 814 717 861 z m 419 924 b 310 1032 419 983 371 1032 b 201 924 249 1032 201 983 b 310 814 201 861 249 814 b 419 924 371 814 419 861 z m 457 -17 b 835 308 714 -17 835 118 l 835 764 l 611 764 l 611 328 b 457 178 611 240 556 178 b 301 328 357 178 301 240 l 301 764 l 78 764 l 78 307 b 457 -17 78 118 200 -17 z "},"":{"ha":913,"x_min":0,"x_max":0,"o":"m 457 -17 b 835 308 714 -17 835 118 l 835 764 l 611 764 l 611 328 b 457 178 611 240 556 178 b 301 328 357 178 301 240 l 301 764 l 78 764 l 78 307 b 457 -17 78 118 200 -17 z m 549 842 l 372 1042 l 183 1042 l 404 842 z "},"":{"ha":913,"x_min":0,"x_max":0,"o":"m 457 -17 b 835 308 714 -17 835 118 l 835 764 l 611 764 l 611 328 b 457 178 611 240 556 178 b 301 328 357 178 301 240 l 301 764 l 78 764 l 78 307 b 457 -17 78 118 200 -17 z m 558 1042 l 394 1042 l 278 842 l 399 842 z m 771 1042 l 606 1042 l 490 842 l 611 842 z "},"":{"ha":913,"x_min":0,"x_max":0,"o":"m 457 -17 b 835 308 714 -17 835 118 l 835 764 l 611 764 l 611 328 b 457 178 611 240 556 178 b 301 328 357 178 301 240 l 301 764 l 78 764 l 78 307 b 457 -17 78 118 200 -17 z m 708 842 l 708 960 l 204 960 l 204 842 z "},"":{"ha":913,"x_min":0,"x_max":0,"o":"m 604 -131 b 550 -174 594 -156 578 -174 b 504 -121 528 -174 504 -161 b 597 0 504 -76 531 -35 b 835 308 758 40 835 157 l 835 764 l 611 764 l 611 328 b 457 178 611 240 556 178 b 301 328 357 178 301 240 l 301 764 l 78 764 l 78 307 b 447 -17 78 121 197 -12 b 404 -131 419 -50 404 -87 b 550 -258 404 -221 474 -258 b 686 -182 614 -258 658 -228 z "},"":{"ha":913,"x_min":0,"x_max":0,"o":"m 457 -17 b 835 308 714 -17 835 118 l 835 764 l 611 764 l 611 328 b 457 178 611 240 556 178 b 301 328 357 178 301 240 l 301 764 l 78 764 l 78 307 b 457 -17 78 118 200 -17 z m 460 792 b 607 942 542 792 607 860 b 460 1093 607 1025 542 1093 b 308 942 376 1093 308 1025 b 460 792 308 860 376 792 z m 460 886 b 403 942 428 886 403 911 b 460 999 403 974 428 999 b 514 942 490 999 514 974 b 460 886 514 911 490 886 z "},"":{"ha":913,"x_min":0,"x_max":0,"o":"m 457 -17 b 835 308 714 -17 835 118 l 835 764 l 611 764 l 611 328 b 457 178 611 240 556 178 b 301 328 357 178 301 240 l 301 764 l 78 764 l 78 307 b 457 -17 78 118 200 -17 z m 533 839 b 690 1025 636 839 690 903 l 582 1025 b 540 957 582 978 563 957 b 383 1033 496 957 472 1033 b 226 847 281 1033 226 971 l 335 847 b 376 915 335 894 354 915 b 533 839 421 915 443 839 z "},"":{"ha":1131,"x_min":0,"x_max":0,"o":"m 788 842 l 658 1042 l 471 1042 l 346 842 l 472 842 l 564 954 l 660 842 z m 910 0 l 1140 764 l 893 764 l 779 286 l 650 764 l 481 764 l 351 288 l 239 764 l -8 764 l 221 0 l 451 0 l 565 446 l 679 0 z "},"":{"ha":797,"x_min":0,"x_max":0,"o":"m 674 1042 l 485 1042 l 308 842 l 453 842 z m 510 0 l 510 310 l 813 764 l 565 764 l 400 494 l 233 764 l -15 764 l 290 310 l 290 0 z "},"":{"ha":797,"x_min":0,"x_max":0,"o":"m 622 842 l 493 1042 l 306 1042 l 181 842 l 307 842 l 399 954 l 494 842 z m 510 0 l 510 310 l 813 764 l 565 764 l 400 494 l 233 764 l -15 764 l 290 310 l 290 0 z "},"":{"ha":797,"x_min":0,"x_max":0,"o":"m 658 924 b 549 1032 658 983 610 1032 b 440 924 489 1032 440 983 b 549 814 440 861 489 814 b 658 924 610 814 658 861 z m 361 924 b 251 1032 361 983 313 1032 b 143 924 190 1032 143 983 b 251 814 143 861 190 814 b 361 924 313 814 361 861 z m 510 0 l 510 310 l 813 764 l 565 764 l 400 494 l 233 764 l -15 764 l 290 310 l 290 0 z "},"":{"ha":732,"x_min":0,"x_max":0,"o":"m 639 1042 l 450 1042 l 274 842 l 418 842 z m 685 0 l 685 194 l 356 194 l 676 606 l 676 764 l 47 764 l 47 569 l 368 569 l 47 158 l 47 0 z "},"":{"ha":732,"x_min":0,"x_max":0,"o":"m 460 842 l 585 1042 l 457 1042 l 365 929 l 269 1042 l 143 1042 l 272 842 z m 685 0 l 685 194 l 356 194 l 676 606 l 676 764 l 47 764 l 47 569 l 368 569 l 47 158 l 47 0 z "},"":{"ha":732,"x_min":0,"x_max":0,"o":"m 685 0 l 685 194 l 356 194 l 676 606 l 676 764 l 47 764 l 47 569 l 368 569 l 47 158 l 47 0 z m 378 814 b 486 924 438 814 486 863 b 378 1032 486 983 438 1032 b 269 924 318 1032 269 983 b 378 814 269 863 318 814 z "},"":{"ha":888,"x_min":0,"x_max":0,"o":"m 422 0 b 843 382 676 0 843 146 b 421 764 843 619 676 764 l 78 764 l 78 456 l 11 456 l 11 308 l 78 308 l 78 0 z m 444 308 l 444 456 l 300 456 l 300 572 l 422 572 b 619 382 564 572 619 488 b 421 192 619 281 554 192 l 300 192 l 300 308 z "},"":{"ha":790,"x_min":0,"x_max":0,"o":"m 300 0 l 300 139 l 493 139 b 771 399 678 139 771 258 b 493 658 771 538 669 658 l 300 658 l 300 764 l 78 764 l 78 0 z m 467 331 l 300 331 l 300 468 l 467 468 b 546 399 515 468 546 438 b 467 331 546 358 515 331 z "},"´":{"ha":365,"x_min":0,"x_max":0,"o":"m 365 972 l 176 972 l 0 772 l 144 772 z "},"¨":{"ha":425,"x_min":0,"x_max":0,"o":"m 471 854 b 361 963 471 914 422 963 b 253 854 301 963 253 914 b 361 744 253 792 301 744 b 471 854 422 744 471 792 z m 174 854 b 64 963 174 914 125 963 b -44 854 3 963 -44 914 b 64 744 -44 792 3 744 b 174 854 125 744 174 792 z "},"`":{"ha":365,"x_min":0,"x_max":0,"o":"m 365 772 l 189 972 l 0 972 l 221 772 z "},"ˋ":{"ha":365,"x_min":0,"x_max":0,"o":"m 365 772 l 189 972 l 0 972 l 221 772 z "},"ˆ":{"ha":442,"x_min":0,"x_max":0,"o":"m 442 772 l 313 972 l 125 972 l 0 772 l 126 772 l 218 885 l 314 772 z "},"˜":{"ha":464,"x_min":0,"x_max":0,"o":"m 307 769 b 464 956 410 769 464 833 l 356 956 b 314 888 356 908 336 888 b 157 964 269 888 246 964 b 0 778 54 964 0 901 l 108 778 b 150 846 108 825 128 846 b 307 769 194 846 217 769 z "},"¯":{"ha":504,"x_min":0,"x_max":0,"o":"m 504 772 l 504 890 l 0 890 l 0 772 z "},"‾":{"ha":504,"x_min":0,"x_max":0,"o":"m 504 772 l 504 890 l 0 890 l 0 772 z "},"˘":{"ha":488,"x_min":0,"x_max":0,"o":"m 488 856 l 396 931 b 244 850 361 879 308 850 b 92 931 178 850 126 883 l 0 856 b 244 733 57 781 146 733 b 488 856 344 733 432 781 z "},"˙":{"ha":286,"x_min":0,"x_max":0,"o":"m 143 744 b 251 854 203 744 251 793 b 143 963 251 914 203 963 b 35 854 83 963 35 914 b 143 744 35 793 83 744 z "},"˚":{"ha":299,"x_min":0,"x_max":0,"o":"m 151 729 b 299 879 233 729 299 797 b 151 1031 299 963 233 1031 b 0 879 68 1031 0 963 b 151 729 0 797 68 729 z m 151 824 b 94 879 119 824 94 849 b 151 936 94 911 119 936 b 206 879 182 936 206 911 b 151 824 206 849 182 824 z "},"¸":{"ha":318,"x_min":0,"x_max":0,"o":"m 158 -275 b 318 -154 246 -275 318 -231 b 224 -54 318 -96 275 -54 b 176 -68 206 -54 190 -60 l 211 15 l 113 15 l 69 -97 l 143 -139 b 183 -121 153 -129 167 -121 b 218 -151 206 -121 218 -132 b 153 -190 218 -178 186 -190 b 39 -149 115 -190 75 -175 l 0 -229 b 158 -275 29 -253 89 -275 z "},"˝":{"ha":493,"x_min":0,"x_max":0,"o":"m 281 972 l 117 972 l 0 772 l 121 772 z m 493 972 l 328 972 l 213 772 l 333 772 z "},"˛":{"ha":282,"x_min":0,"x_max":0,"o":"m 200 -131 b 146 -174 190 -156 174 -174 b 100 -121 124 -174 100 -161 b 194 0 100 -76 126 -35 l 124 47 b 0 -131 44 3 0 -57 b 146 -258 0 -221 69 -258 b 282 -182 210 -258 254 -228 z "},"ˇ":{"ha":442,"x_min":0,"x_max":0,"o":"m 317 772 l 442 972 l 314 972 l 222 860 l 126 972 l 0 972 l 129 772 z "},"":{"ha":372,"x_min":0,"x_max":0,"o":"m 293 -193 b 185 -68 293 -114 242 -68 b 88 -167 132 -68 88 -112 b 169 -254 88 -219 124 -254 b 193 -250 179 -254 189 -253 b 103 -357 182 -290 138 -337 l 171 -411 b 293 -193 244 -358 293 -281 z "},"ˉ":{"ha":504,"x_min":0,"x_max":0,"o":"m 504 821 l 504 939 l 0 939 l 0 821 z "},"̉":{"ha":282,"x_min":0,"x_max":0,"o":"m 93 994 b 136 1031 100 1014 114 1031 b 172 990 154 1031 172 1019 b 147 926 172 968 165 946 l 233 926 b 253 994 244 949 253 968 b 136 1097 253 1067 197 1097 b 21 1018 85 1097 39 1071 z "},"Α":{"ha":968,"x_min":0,"x_max":0,"o":"m 983 0 l 633 926 l 333 926 l -15 0 l 256 0 l 301 133 l 667 133 l 713 0 z m 601 342 l 365 342 l 483 690 z "},"Β":{"ha":944,"x_min":0,"x_max":0,"o":"m 625 0 b 897 251 807 0 897 117 b 721 478 897 368 819 463 b 879 690 808 497 879 575 b 608 926 879 807 792 926 l 83 926 l 83 0 z m 554 571 l 322 571 l 322 725 l 554 725 b 636 649 603 725 636 693 b 554 571 636 603 603 571 z m 563 201 l 322 201 l 322 368 l 563 368 b 654 285 621 368 654 331 b 563 201 654 235 619 201 z "},"Γ":{"ha":808,"x_min":0,"x_max":0,"o":"m 322 0 l 322 718 l 763 718 l 763 926 l 83 926 l 83 0 z "},"Δ":{"ha":968,"x_min":0,"x_max":0,"o":"m 983 0 l 633 926 l 333 926 l -15 0 z m 647 208 l 321 208 l 483 690 z "},"∆":{"ha":968,"x_min":0,"x_max":0,"o":"m 983 0 l 633 926 l 333 926 l -15 0 z m 647 208 l 321 208 l 483 690 z "},"Ε":{"ha":818,"x_min":0,"x_max":0,"o":"m 763 0 l 763 208 l 322 208 l 322 365 l 753 365 l 753 574 l 322 574 l 322 718 l 763 718 l 763 926 l 83 926 l 83 0 z "},"Ζ":{"ha":828,"x_min":0,"x_max":0,"o":"m 774 0 l 774 208 l 368 208 l 764 736 l 764 926 l 54 926 l 54 718 l 449 718 l 54 190 l 54 0 z "},"Η":{"ha":1029,"x_min":0,"x_max":0,"o":"m 946 0 l 946 926 l 707 926 l 707 581 l 322 581 l 322 926 l 83 926 l 83 0 l 322 0 l 322 372 l 707 372 l 707 0 z "},"Θ":{"ha":1064,"x_min":0,"x_max":0,"o":"m 721 365 l 721 574 l 342 574 l 342 365 z m 532 -17 b 1026 463 815 -17 1026 181 b 532 942 1026 744 815 942 b 36 463 249 942 36 744 b 532 -17 36 181 249 -17 z m 532 194 b 279 463 378 194 279 313 b 532 731 279 614 378 731 b 783 463 685 731 783 614 b 532 194 783 313 685 194 z "},"Ι":{"ha":406,"x_min":0,"x_max":0,"o":"m 322 0 l 322 926 l 83 926 l 83 0 z "},"Κ":{"ha":908,"x_min":0,"x_max":0,"o":"m 921 0 l 542 493 l 901 926 l 607 926 l 322 546 l 322 926 l 83 926 l 83 0 l 322 0 l 322 271 l 385 349 l 628 0 z "},"Λ":{"ha":968,"x_min":0,"x_max":0,"o":"m 983 0 l 633 926 l 333 926 l -15 0 l 256 0 l 483 690 l 713 0 z "},"Μ":{"ha":1218,"x_min":0,"x_max":0,"o":"m 1135 0 l 1135 926 l 803 926 l 608 424 l 415 926 l 83 926 l 83 0 l 322 0 l 322 603 l 556 0 l 661 0 l 896 603 l 896 0 z "},"Ν":{"ha":1028,"x_min":0,"x_max":0,"o":"m 944 0 l 944 926 l 704 926 l 704 417 l 329 926 l 83 926 l 83 0 l 322 0 l 322 536 l 714 0 z "},"Ξ":{"ha":872,"x_min":0,"x_max":0,"o":"m 814 718 l 814 926 l 57 926 l 57 718 z m 815 0 l 815 208 l 57 208 l 57 0 z m 806 365 l 806 574 l 67 574 l 67 365 z "},"Ο":{"ha":1064,"x_min":0,"x_max":0,"o":"m 532 -17 b 1026 463 815 -17 1026 181 b 532 942 1026 744 815 942 b 36 463 249 942 36 744 b 532 -17 36 181 249 -17 z m 532 194 b 279 463 378 194 279 313 b 532 731 279 614 378 731 b 783 463 685 731 783 614 b 532 194 783 313 685 194 z "},"Π":{"ha":1029,"x_min":0,"x_max":0,"o":"m 946 0 l 946 926 l 83 926 l 83 0 l 322 0 l 322 718 l 707 718 l 707 0 z "},"Ρ":{"ha":893,"x_min":0,"x_max":0,"o":"m 322 0 l 322 311 l 547 311 b 869 618 756 311 869 451 b 547 926 869 786 756 926 l 83 926 l 83 0 z m 515 519 l 322 519 l 322 718 l 515 718 b 626 618 579 718 626 682 b 515 519 626 556 579 519 z "},"Σ":{"ha":821,"x_min":0,"x_max":0,"o":"m 357 718 l 764 718 l 764 926 l 58 926 l 58 718 l 319 472 l 57 208 l 57 0 l 764 0 l 764 208 l 346 208 l 613 474 z "},"Τ":{"ha":818,"x_min":0,"x_max":0,"o":"m 529 0 l 529 718 l 788 718 l 788 926 l 31 926 l 31 718 l 290 718 l 290 0 z "},"Υ":{"ha":910,"x_min":0,"x_max":0,"o":"m 575 0 l 575 374 l 925 926 l 654 926 l 456 585 l 254 926 l -15 926 l 336 374 l 336 0 z "},"Φ":{"ha":1222,"x_min":0,"x_max":0,"o":"m 731 0 l 731 94 b 1185 463 1017 121 1185 244 b 731 831 1185 678 1017 804 l 731 926 l 490 926 l 490 831 b 36 463 204 804 36 678 b 490 94 36 246 204 121 l 490 0 z m 942 463 b 731 307 942 376 871 325 l 731 618 b 942 463 871 600 942 547 z m 279 463 b 490 618 279 547 350 600 l 490 307 b 279 463 350 325 279 376 z "},"Χ":{"ha":939,"x_min":0,"x_max":0,"o":"m 953 0 l 631 476 l 932 926 l 649 926 l 469 636 l 288 926 l 6 926 l 308 475 l -15 0 l 268 0 l 469 311 l 671 0 z "},"Ψ":{"ha":1253,"x_min":0,"x_max":0,"o":"m 746 0 l 746 178 b 1169 565 1033 210 1169 361 l 1169 926 l 925 926 l 925 572 b 746 393 925 479 864 417 l 746 926 l 507 926 l 507 393 b 326 572 386 417 326 479 l 326 926 l 83 926 l 83 564 b 507 178 83 363 219 210 l 507 0 z "},"Ω":{"ha":1064,"x_min":0,"x_max":0,"o":"m 60 208 l 60 0 l 454 0 l 454 208 b 279 465 340 242 279 351 b 532 729 279 582 346 729 b 783 465 717 729 783 582 b 610 208 783 351 722 242 l 610 0 l 1003 0 l 1003 208 l 850 208 b 1026 519 938 271 1026 375 b 532 942 1026 783 815 942 b 36 519 250 942 36 783 b 214 208 36 375 128 271 z "},"Ω":{"ha":1064,"x_min":0,"x_max":0,"o":"m 60 208 l 60 0 l 454 0 l 454 208 b 279 465 340 242 279 351 b 532 729 279 582 346 729 b 783 465 717 729 783 582 b 610 208 783 351 722 242 l 610 0 l 1003 0 l 1003 208 l 850 208 b 1026 519 938 271 1026 375 b 532 942 1026 783 815 942 b 36 519 250 942 36 783 b 214 208 36 375 128 271 z "},"α":{"ha":840,"x_min":0,"x_max":0,"o":"m 821 176 b 794 172 813 174 804 172 b 742 225 764 172 742 190 l 742 671 l 528 671 l 528 592 b 331 688 475 658 404 688 b 33 336 163 688 33 556 b 331 -17 33 108 165 -17 b 543 100 419 -17 497 26 b 739 -17 569 22 639 -17 b 833 -4 769 -17 810 -12 z m 400 172 b 253 336 315 172 253 236 b 400 497 253 436 315 497 b 529 438 446 497 501 474 l 529 233 b 400 172 501 197 446 172 z "},"β":{"ha":821,"x_min":0,"x_max":0,"o":"m 292 618 b 435 750 292 697 349 750 b 546 656 500 750 546 715 b 429 563 546 600 506 563 l 378 563 l 378 372 l 436 372 b 568 274 519 372 568 333 b 438 172 568 215 522 172 b 292 232 374 172 325 196 z m 292 78 b 514 -17 347 14 415 -17 b 786 232 656 -17 786 94 b 569 478 786 392 668 468 b 765 686 679 496 765 578 b 435 940 765 839 653 940 b 78 618 275 940 78 854 l 78 -256 l 292 -256 z "},"γ":{"ha":728,"x_min":0,"x_max":0,"o":"m 469 -256 l 469 7 b 707 671 601 174 707 449 l 494 671 b 390 242 494 525 444 331 b 211 671 375 369 297 563 l -28 671 b 257 -126 133 489 257 183 l 257 -256 z "},"δ":{"ha":800,"x_min":0,"x_max":0,"o":"m 413 -17 b 765 321 642 -17 765 147 b 317 731 765 703 317 656 b 400 776 317 757 350 776 b 597 703 481 776 557 742 l 679 854 b 399 943 607 907 513 943 b 111 722 214 943 111 840 b 178 585 111 657 138 615 b 33 329 100 539 33 451 b 413 -17 33 147 171 -17 z m 560 321 b 406 172 560 246 504 172 b 254 329 308 172 254 246 b 369 504 254 397 293 468 b 560 321 469 471 560 433 z "},"ε":{"ha":692,"x_min":0,"x_max":0,"o":"m 365 -17 b 682 90 506 -17 618 28 l 586 217 b 365 147 525 169 436 147 b 256 200 289 147 256 168 b 375 258 256 238 296 258 l 507 258 l 507 418 l 375 418 b 268 474 293 418 268 439 b 372 524 268 503 310 524 b 572 451 456 524 521 499 l 674 574 b 383 686 607 640 507 686 b 47 500 161 688 47 614 b 219 344 47 422 126 360 b 33 186 136 339 33 283 b 365 -17 33 67 161 -15 z "},"ζ":{"ha":672,"x_min":0,"x_max":0,"o":"m 421 -39 b 336 -218 421 -81 365 -178 l 560 -218 b 640 14 611 -128 640 -50 b 421 172 640 117 583 172 b 253 311 315 172 253 211 b 622 775 253 496 440 679 l 622 926 l 56 926 l 56 740 l 347 740 b 33 293 156 640 33 475 b 393 -17 33 103 174 -17 b 421 -39 414 -17 421 -24 z "},"η":{"ha":824,"x_min":0,"x_max":0,"o":"m 746 -256 l 746 475 b 524 688 746 599 676 688 b 292 589 411 688 332 636 l 292 671 l 78 671 l 78 0 l 292 0 l 292 433 b 422 499 317 464 358 499 b 532 388 489 499 532 469 l 532 -256 z "},"θ":{"ha":800,"x_min":0,"x_max":0,"o":"m 399 -17 b 765 464 635 -17 765 206 b 399 943 765 722 635 943 b 33 464 165 943 33 722 b 399 -17 33 206 165 -17 z m 399 172 b 258 372 314 172 271 238 l 542 372 b 399 172 529 238 485 172 z m 399 754 b 542 558 483 754 528 688 l 258 558 b 399 754 271 688 315 754 z "},"ι":{"ha":389,"x_min":0,"x_max":0,"o":"m 289 -17 b 383 -4 319 -17 358 -12 l 369 176 b 343 172 363 174 353 172 b 292 225 314 172 292 190 l 292 671 l 78 671 l 78 181 b 289 -17 78 51 151 -17 z "},"κ":{"ha":758,"x_min":0,"x_max":0,"o":"m 767 0 l 507 365 l 754 671 l 496 671 l 292 403 l 292 671 l 78 671 l 78 0 l 292 0 l 292 161 l 356 238 l 503 0 z "},"λ":{"ha":728,"x_min":0,"x_max":0,"o":"m 94 742 b 147 754 110 750 131 754 b 238 717 196 754 226 744 l 253 681 l -14 0 l 211 0 l 363 425 l 515 0 l 742 0 l 439 767 b 156 943 385 908 283 939 b 64 932 136 943 86 939 z "},"μ":{"ha":842,"x_min":0,"x_max":0,"o":"m 292 8 b 367 -17 304 -4 331 -17 b 543 104 446 -17 508 35 b 742 -17 571 22 636 -17 b 836 -4 772 -17 811 -12 l 822 176 b 796 172 815 174 806 172 b 744 225 767 172 744 190 l 744 671 l 531 671 l 531 238 b 403 172 506 206 464 172 b 292 281 333 172 292 203 l 292 671 l 78 671 l 78 -256 l 292 -256 z "},"µ":{"ha":842,"x_min":0,"x_max":0,"o":"m 292 8 b 367 -17 304 -4 331 -17 b 543 104 446 -17 508 35 b 742 -17 571 22 636 -17 b 836 -4 772 -17 811 -12 l 822 176 b 796 172 815 174 806 172 b 744 225 767 172 744 190 l 744 671 l 531 671 l 531 238 b 403 172 506 206 464 172 b 292 281 333 172 292 203 l 292 671 l 78 671 l 78 -256 l 292 -256 z "},"ν":{"ha":728,"x_min":0,"x_max":0,"o":"m 464 0 b 707 671 599 165 707 446 l 494 671 b 374 213 494 525 453 338 l 211 671 l -14 671 l 250 0 z "},"ξ":{"ha":672,"x_min":0,"x_max":0,"o":"m 393 -17 b 421 -39 414 -17 421 -24 b 336 -218 421 -81 365 -178 l 560 -218 b 640 14 611 -128 640 -50 b 421 172 640 117 583 172 b 254 272 314 172 254 207 b 408 376 254 342 310 376 l 614 376 l 614 560 l 408 560 b 269 646 322 560 269 590 b 354 740 269 692 303 728 l 619 740 l 619 926 l 64 926 l 64 740 l 174 740 b 49 578 101 713 49 649 b 190 431 49 492 118 443 b 33 228 106 404 33 340 b 393 -17 33 83 154 -17 z "},"ο":{"ha":800,"x_min":0,"x_max":0,"o":"m 399 -17 b 765 336 629 -17 765 147 b 399 688 765 525 629 688 b 33 336 171 688 33 525 b 399 -17 33 147 171 -17 z m 399 172 b 254 336 306 172 254 246 b 399 499 254 425 306 499 b 546 336 493 499 546 425 b 399 172 546 246 493 172 z "},"π":{"ha":911,"x_min":0,"x_max":0,"o":"m 789 0 l 789 485 l 900 485 l 900 671 l 11 671 l 11 485 l 122 485 l 122 0 l 335 0 l 335 485 l 576 485 l 576 0 z "},"ρ":{"ha":818,"x_min":0,"x_max":0,"o":"m 490 -17 b 785 336 658 -17 785 108 b 432 688 785 525 654 688 b 78 336 210 688 78 525 l 78 -256 l 292 -256 l 292 79 b 490 -17 347 13 415 -17 z m 419 172 b 292 233 374 172 318 199 l 292 336 b 429 499 292 425 340 499 b 567 336 518 499 567 425 b 419 172 567 235 503 172 z "},"ς":{"ha":690,"x_min":0,"x_max":0,"o":"m 410 -17 b 436 -39 426 -17 436 -24 b 351 -218 436 -81 381 -178 l 574 -218 b 654 14 625 -128 654 -50 b 419 172 654 117 582 172 b 253 336 326 172 253 228 b 410 499 253 438 321 499 b 536 435 467 499 510 474 l 675 564 b 400 688 635 624 544 688 b 33 336 190 688 33 546 b 410 -17 33 121 194 -17 z "},"σ":{"ha":800,"x_min":0,"x_max":0,"o":"m 749 292 b 668 482 749 368 726 431 l 775 482 l 775 671 l 404 671 b 33 336 171 671 33 522 b 399 -17 33 147 171 -17 b 749 292 629 -17 749 125 z m 546 335 b 399 172 546 246 493 172 b 254 336 306 172 254 246 b 404 482 254 411 306 482 l 469 482 b 546 335 518 450 546 397 z "},"τ":{"ha":678,"x_min":0,"x_max":0,"o":"m 443 -17 b 601 28 522 -17 575 3 l 560 189 b 504 172 553 181 529 172 b 446 240 468 172 446 201 l 446 485 l 654 485 l 654 671 l 25 671 l 25 485 l 232 485 l 232 181 b 443 -17 232 51 307 -17 z "},"υ":{"ha":811,"x_min":0,"x_max":0,"o":"m 411 -17 b 778 367 642 -17 778 144 b 682 688 778 468 749 590 l 486 606 b 558 367 533 538 558 446 b 411 172 558 246 506 172 b 292 311 336 172 292 231 l 292 671 l 78 671 l 78 307 b 411 -17 78 118 186 -17 z "},"φ":{"ha":1139,"x_min":0,"x_max":0,"o":"m 1106 336 b 568 688 1106 557 929 688 l 463 688 l 463 178 b 254 356 314 196 254 256 b 385 521 254 419 296 486 l 297 688 b 33 356 151 628 33 524 b 463 -11 33 140 175 13 l 463 -256 l 676 -256 l 676 -11 b 1106 336 964 13 1106 138 z m 885 336 b 676 178 885 253 824 194 l 676 493 b 885 336 796 485 885 435 z "},"χ":{"ha":711,"x_min":0,"x_max":0,"o":"m 719 -256 l 490 221 l 704 671 l 471 671 l 356 421 l 240 671 l 6 671 l 221 221 l -8 -256 l 225 -256 l 356 22 l 486 -256 z "},"ψ":{"ha":1139,"x_min":0,"x_max":0,"o":"m 676 -256 l 676 -11 b 1061 344 936 17 1061 150 l 1061 671 l 847 671 l 847 346 b 676 181 847 256 782 201 l 676 926 l 463 926 l 463 181 b 292 346 357 201 292 256 l 292 671 l 78 671 l 78 344 b 463 -11 78 150 201 17 l 463 -256 z "},"ω":{"ha":1215,"x_min":0,"x_max":0,"o":"m 1179 336 b 1031 688 1179 492 1115 611 l 867 568 b 960 336 935 496 960 417 b 838 172 960 246 915 172 b 714 336 757 172 714 246 l 714 504 l 500 504 l 500 336 b 376 172 500 246 457 172 b 254 336 299 172 254 246 b 346 568 254 417 279 496 l 183 688 b 33 336 99 611 33 492 b 346 -17 33 147 150 -17 b 607 167 479 -17 558 54 b 868 -17 654 54 735 -17 b 1179 336 1064 -17 1179 147 z "},"Ά":{"ha":968,"x_min":0,"x_max":0,"o":"m 217 760 l 322 1063 l 156 1063 l 126 760 z m 983 0 l 633 926 l 333 926 l -15 0 l 256 0 l 301 133 l 667 133 l 713 0 z m 601 342 l 365 342 l 483 690 z "},"Έ":{"ha":883,"x_min":0,"x_max":0,"o":"m 63 760 l 168 1063 l 1 1063 l -28 760 z m 826 0 l 826 208 l 386 208 l 386 365 l 817 365 l 817 574 l 386 574 l 386 718 l 826 718 l 826 926 l 147 926 l 147 0 z "},"Ή":{"ha":1093,"x_min":0,"x_max":0,"o":"m 63 760 l 168 1063 l 1 1063 l -28 760 z m 1010 0 l 1010 926 l 771 926 l 771 581 l 386 581 l 386 926 l 147 926 l 147 0 l 386 0 l 386 372 l 771 372 l 771 0 z "},"Ί":{"ha":469,"x_min":0,"x_max":0,"o":"m 63 760 l 168 1063 l 1 1063 l -28 760 z m 386 0 l 386 926 l 147 926 l 147 0 z "},"Ό":{"ha":1064,"x_min":0,"x_max":0,"o":"m 75 760 l 181 1063 l 14 1063 l -15 760 z m 532 -17 b 1026 463 815 -17 1026 181 b 532 942 1026 744 815 942 b 36 463 249 942 36 744 b 532 -17 36 181 249 -17 z m 532 194 b 279 463 378 194 279 313 b 532 731 279 614 378 731 b 783 463 685 731 783 614 b 532 194 783 313 685 194 z "},"Ύ":{"ha":1044,"x_min":0,"x_max":0,"o":"m 63 760 l 168 1063 l 1 1063 l -28 760 z m 711 0 l 711 374 l 1061 926 l 790 926 l 592 585 l 390 926 l 121 926 l 472 374 l 472 0 z "},"Ώ":{"ha":1079,"x_min":0,"x_max":0,"o":"m 75 760 l 181 1063 l 14 1063 l -15 760 z m 76 208 l 76 0 l 471 0 l 471 208 b 296 465 357 242 296 351 b 549 729 296 582 363 729 b 800 465 733 729 800 582 b 626 208 800 351 739 242 l 626 0 l 1019 0 l 1019 208 l 867 208 b 1043 519 954 271 1043 375 b 549 942 1043 783 832 942 b 53 519 267 942 53 783 b 231 208 53 375 144 271 z "},"Ϊ":{"ha":406,"x_min":0,"x_max":0,"o":"m 322 0 l 322 926 l 83 926 l 83 0 z m 461 1110 b 351 1218 461 1169 413 1218 b 243 1110 292 1218 243 1169 b 351 1000 243 1047 292 1000 b 461 1110 413 1000 461 1047 z m 164 1110 b 54 1218 164 1169 115 1218 b -54 1110 -7 1218 -54 1169 b 54 1000 -54 1047 -7 1000 b 164 1110 115 1000 164 1047 z "},"Ϋ":{"ha":910,"x_min":0,"x_max":0,"o":"m 575 0 l 575 374 l 925 926 l 654 926 l 456 585 l 254 926 l -15 926 l 336 374 l 336 0 z m 711 1110 b 601 1218 711 1169 663 1218 b 493 1110 542 1218 493 1169 b 601 1000 493 1047 542 1000 b 711 1110 663 1000 711 1047 z m 414 1110 b 304 1218 414 1169 365 1218 b 196 1110 243 1218 196 1169 b 304 1000 196 1047 243 1000 b 414 1110 365 1000 414 1047 z "},"ά":{"ha":840,"x_min":0,"x_max":0,"o":"m 450 760 l 556 1063 l 389 1063 l 360 760 z m 821 176 b 794 172 813 174 804 172 b 742 225 764 172 742 190 l 742 671 l 528 671 l 528 592 b 331 688 475 658 404 688 b 33 336 163 688 33 556 b 331 -17 33 108 165 -17 b 543 100 419 -17 497 26 b 739 -17 569 22 639 -17 b 833 -4 769 -17 810 -12 z m 400 172 b 253 336 315 172 253 236 b 400 497 253 436 315 497 b 529 438 446 497 501 474 l 529 233 b 400 172 501 197 446 172 z "},"έ":{"ha":692,"x_min":0,"x_max":0,"o":"m 375 760 l 481 1063 l 314 1063 l 285 760 z m 365 -17 b 682 90 506 -17 618 28 l 586 217 b 365 147 525 169 436 147 b 256 200 289 147 256 168 b 375 258 256 238 296 258 l 507 258 l 507 418 l 375 418 b 268 474 293 418 268 439 b 372 524 268 503 310 524 b 572 451 456 524 521 499 l 674 574 b 383 686 607 640 507 686 b 47 500 161 688 47 614 b 219 344 47 422 126 360 b 33 186 136 339 33 283 b 365 -17 33 67 161 -15 z "},"ή":{"ha":824,"x_min":0,"x_max":0,"o":"m 442 760 l 547 1063 l 381 1063 l 351 760 z m 746 -256 l 746 475 b 524 688 746 599 676 688 b 292 589 411 688 332 636 l 292 671 l 78 671 l 78 0 l 292 0 l 292 433 b 422 499 317 464 358 499 b 532 388 489 499 532 469 l 532 -256 z "},"ί":{"ha":389,"x_min":0,"x_max":0,"o":"m 225 760 l 331 1063 l 164 1063 l 135 760 z m 289 -17 b 383 -4 319 -17 358 -12 l 369 176 b 343 172 363 174 353 172 b 292 225 314 172 292 190 l 292 671 l 78 671 l 78 181 b 289 -17 78 51 151 -17 z "},"ϊ":{"ha":389,"x_min":0,"x_max":0,"o":"m 453 854 b 343 963 453 914 404 963 b 235 854 283 963 235 914 b 343 744 235 792 283 744 b 453 854 404 744 453 792 z m 156 854 b 46 963 156 914 107 963 b -62 854 -15 963 -62 914 b 46 744 -62 792 -15 744 b 156 854 107 744 156 792 z m 289 -17 b 383 -4 319 -17 358 -12 l 369 176 b 343 172 363 174 353 172 b 292 225 314 172 292 190 l 292 671 l 78 671 l 78 181 b 289 -17 78 51 151 -17 z "},"ΐ":{"ha":389,"x_min":0,"x_max":0,"o":"m 214 760 l 318 1063 l 151 1063 l 122 760 z m 522 854 b 413 963 522 914 474 963 b 304 854 353 963 304 914 b 413 744 304 792 353 744 b 522 854 474 744 522 792 z m 83 854 b -25 963 83 914 36 963 b -133 854 -86 963 -133 914 b -25 744 -133 792 -86 744 b 83 854 36 744 83 792 z m 289 -17 b 383 -4 319 -17 358 -12 l 369 176 b 343 172 363 174 353 172 b 292 225 314 172 292 190 l 292 671 l 78 671 l 78 181 b 289 -17 78 51 151 -17 z "},"ύ":{"ha":811,"x_min":0,"x_max":0,"o":"m 436 760 l 542 1063 l 375 1063 l 346 760 z m 411 -17 b 778 367 642 -17 778 144 b 682 688 778 468 749 590 l 486 606 b 558 367 533 538 558 446 b 411 172 558 246 506 172 b 292 311 336 172 292 231 l 292 671 l 78 671 l 78 307 b 411 -17 78 118 186 -17 z "},"ϋ":{"ha":811,"x_min":0,"x_max":0,"o":"m 663 854 b 553 963 663 914 614 963 b 444 854 493 963 444 914 b 553 744 444 792 493 744 b 663 854 614 744 663 792 z m 365 854 b 256 963 365 914 317 963 b 147 854 194 963 147 914 b 256 744 147 792 194 744 b 365 854 317 744 365 792 z m 411 -17 b 778 367 642 -17 778 144 b 682 688 778 468 749 590 l 486 606 b 558 367 533 538 558 446 b 411 172 558 246 506 172 b 292 311 336 172 292 231 l 292 671 l 78 671 l 78 307 b 411 -17 78 118 186 -17 z "},"ΰ":{"ha":811,"x_min":0,"x_max":0,"o":"m 425 760 l 529 1063 l 363 1063 l 333 760 z m 733 854 b 624 963 733 914 685 963 b 515 854 564 963 515 914 b 624 744 515 792 564 744 b 733 854 685 744 733 792 z m 294 854 b 186 963 294 914 247 963 b 78 854 125 963 78 914 b 186 744 78 792 125 744 b 294 854 247 744 294 792 z m 411 -17 b 778 367 642 -17 778 144 b 682 688 778 468 749 590 l 486 606 b 558 367 533 538 558 446 b 411 172 558 246 506 172 b 292 311 336 172 292 231 l 292 671 l 78 671 l 78 307 b 411 -17 78 118 186 -17 z "},"ό":{"ha":800,"x_min":0,"x_max":0,"o":"m 429 760 l 535 1063 l 368 1063 l 339 760 z m 399 -17 b 765 336 629 -17 765 147 b 399 688 765 525 629 688 b 33 336 171 688 33 525 b 399 -17 33 147 171 -17 z m 399 172 b 254 336 306 172 254 246 b 399 499 254 425 306 499 b 546 336 493 499 546 425 b 399 172 546 246 493 172 z "}}}
